<!-- Generator: Adobe Illustrator 24.2.0, SVG Export Plug-In  -->
<svg version="1.1" xmlns="http://www.w3.org/2000/svg" xmlns:xlink="http://www.w3.org/1999/xlink" x="0px" y="0px" width="99.8px"
	 height="99.61px" viewBox="0 0 99.8 99.61" style="overflow:visible;enable-background:new 0 0 99.8 99.61;" xml:space="preserve">
<style type="text/css">
	.st0{fill:#FFD506;}
</style>
<polygon class="st0" points="49.9,4.61 56.17,0 61.09,6.02 68.31,3.12 71.58,10.17 79.29,9.15 80.71,16.8 88.43,17.73 87.9,25.49 
	95.14,28.32 92.7,35.7 99.02,40.24 94.81,46.78 99.8,52.75 94.1,58.04 97.45,65.06 90.62,68.77 92.12,76.4 84.57,78.29 84.13,86.05 
	76.35,86.01 73.99,93.42 66.47,91.45 62.34,98.03 55.54,94.25 49.9,99.61 44.26,94.25 37.47,98.03 33.34,91.45 25.81,93.42 
	23.45,86.01 15.67,86.05 15.23,78.29 7.68,76.4 9.18,68.77 2.35,65.06 5.7,58.04 0,52.75 4.99,46.78 0.79,40.24 7.1,35.7 
	4.66,28.32 11.91,25.49 11.38,17.73 19.1,16.8 20.51,9.15 28.22,10.17 31.5,3.12 38.71,6.02 43.63,0 "/>
</svg>
