<svg xmlns="http://www.w3.org/2000/svg" width="1596.06" height="597.88">
  <style>
    .st1{fill:#45ff00}.st2{fill:#fff}.st3{fill:#517045}.st4{fill:#2912d6}.st5{fill:red}.st6,.st9{fill:none;stroke:#fff;stroke-width:2;stroke-linecap:round;stroke-linejoin:round;stroke-miterlimit:10}.st9{stroke-width:3}.st14{fill:#011b7a}.st15{fill:none;stroke:#e5ded8;stroke-width:.25;stroke-miterlimit:10}
  </style>
  <path fill="#ffe600" d="M1491.14 145.23l22.17-29.78-123.62-2.23-297.04 399.59 271.9-422.2-123.57-2.23-258.23 400.81 276-429.34-123.43-5.96-261.58 406.95 259.8-430-122.78-5.92 10.94-17.2L898.45 0l-7.25 11.43-111.31-6.99-23.21 36.68-86.96-6.7-305.19 410.93L630.76 56.38l-123.64-3-17.2 25.15-122.77.53-143 198.06L328.96 81.6 207.28 98.74 0 485.42l82.16-11.57-6.98 9.67 123.68-.54 274.47-380.19-280.39 409.69 119.59 2.89-3.17 4.25 123.04 9.51 101.36-136.49-110.19 173.82 123.22 7.73 7.27-11.43 111.21 6.99L996.55 47.37l-329 544.55 123.4 5.96 9.73-16.03 118.84 5.73 11.43-17.8 123.53 2.25 28.8-44.68 122.2 2.22 179.68-241.67-149.43 238.95 122.83-11.3 237.5-379.99z"/>
  <path d="M1543.27 370.31c20.32 61.79-13.3 128.36-75.09 148.68-61.8 20.32-128.36-13.3-148.69-75.09-20.32-61.8 13.29-128.36 75.09-148.69 61.8-20.32 128.37 13.3 148.69 75.1z" class="st1"/>
  <path d="M1514.26 361.71l-.16-7.39-14.33 5.44 2.15 99.13-7.07-102.73-14.33 5.44 6.7 97.53-7.25-104.45-14.65 4.64 6.87 99-9.16-103.81-14.57 4.62-.31-4.18-14.79 4.26.21 2.78-13.36 3.84.66 8.91-10.55 2.74 2.25 101.93-4.72-95.4-14.41 5.28.31 6.17-13.99 5.99 1.55 48.93-5.69-46.57-12.36 9.47 11.25 92.09 8.34-6.39.08 2.39 14.09-6.03-2.98-93.94 4.97 100.49 13.94-5.12.02 1.06 14.93-3.87-.75-33.85 3.11 42.21 14.79-4.26-.2-2.77 13.35-3.84-9.34-126.87 11.6 131.47 14.65-4.64-.34-3.87 14.11-4.47-.3-4.33 14.32-5.44-.74-10.87 14.17-5.38-1.29-59.95 4.5 57.93 13.03-8.29-7.19-92.11z" class="st2"/>
  <path d="M1366.56 364.37a9.8 9.8 0 01.52 4.01 8.12 8.12 0 01-3.45 5.94 12.38 12.38 0 01-9.57 2.13 3.75 3.75 0 01-1.02-.37 1.68 1.68 0 01-.61-.67 12.98 12.98 0 01-.91-2.56c-.07-.3-.11-.55-.11-.75 0-.2.03-.36.1-.47a.58.58 0 01.3-.23c.18-.06.47-.02.87.1a11.54 11.54 0 003.57.53c.78 0 1.64-.15 2.57-.46.61-.2 1.13-.46 1.56-.78.43-.32.76-.69 1.01-1.09.24-.41.37-.85.41-1.34a3.8 3.8 0 00-.21-1.54c-.2-.62-.53-1.1-.98-1.44a5.2 5.2 0 00-1.58-.79c-.6-.18-1.27-.32-1.99-.42l-2.24-.33c-.77-.12-1.54-.29-2.31-.51a8.17 8.17 0 01-4.06-2.71 8.52 8.52 0 01-1.42-2.78 9.12 9.12 0 01-.48-3.66 7.5 7.5 0 01.97-3.05 7.79 7.79 0 012.15-2.33 11 11 0 014.86-1.97 12.4 12.4 0 011.78-.14c.56 0 1.07.04 1.54.12.46.08.78.17.96.27.17.1.3.19.37.27.08.09.16.2.24.35.08.15.17.35.27.59l.32.91c.13.41.24.75.31 1.04.08.29.12.53.14.73a1 1 0 01-.06.46.5.5 0 01-.29.24c-.14.05-.39.02-.76-.08-.37-.09-.82-.18-1.34-.27a9.43 9.43 0 00-1.75-.12c-.65 0-1.33.12-2.02.35-.55.18-1 .41-1.36.69-.36.28-.63.59-.82.95-.19.35-.29.73-.3 1.14-.01.41.04.82.18 1.22.2.6.52 1.08.97 1.42.45.34.98.61 1.59.78.61.18 1.29.31 2.02.41.74.09 1.49.2 2.26.32.78.12 1.55.29 2.33.51.77.22 1.51.54 2.2.98.69.43 1.32 1 1.89 1.71a8.8 8.8 0 011.38 2.69z" class="st3"/>
  <path d="M1360.37 376.34a12.27 12.27 0 01-4.69.64 8.52 8.52 0 01-1.69-.23 4.37 4.37 0 01-1.1-.4 2.02 2.02 0 01-.73-.79c-.19-.34-.4-.83-.62-1.51-.15-.45-.25-.82-.33-1.13a3.74 3.74 0 01-.12-.83c-.01-.27.04-.48.15-.64.25-.38.67-.52 1.52-.26a10.99 10.99 0 003.48.51c.75 0 1.57-.15 2.47-.44a5.18 5.18 0 001.47-.73c.39-.3.7-.63.92-1 .21-.37.34-.77.37-1.21.03-.46-.04-.92-.2-1.42a2.49 2.49 0 00-.87-1.28 4.78 4.78 0 00-1.48-.74c-.58-.17-1.21-.31-1.94-.41l-2.25-.32c-.78-.12-1.57-.3-2.34-.52a8.06 8.06 0 01-5.69-5.69 9.2 9.2 0 01-.49-3.79 7.73 7.73 0 013.25-5.6 11.48 11.48 0 018.42-2.04c.51.09.85.19 1.06.31.2.11.35.22.45.33.1.12.19.25.29.42a13.06 13.06 0 01.62 1.56c.14.42.24.77.32 1.06.08.31.12.56.14.78.02.26-.01.47-.09.63-.17.35-.49.57-1.42.32a10.87 10.87 0 00-3.01-.39 6.4 6.4 0 00-1.92.33c-.51.17-.94.38-1.26.64-.32.26-.57.54-.74.85-.17.31-.25.63-.27 1-.01.38.04.74.16 1.11.18.55.46.96.86 1.27.41.32.91.57 1.48.73.6.18 1.26.31 1.98.4.74.09 1.49.2 2.27.32.76.12 1.56.29 2.36.52a8.02 8.02 0 015.71 5.59c.49 1.47.66 2.86.53 4.14a8.4 8.4 0 01-1.12 3.48 9.15 9.15 0 01-2.45 2.68 12.65 12.65 0 01-3.46 1.75zm-8.46-4.64c-.06.02-.09.05-.13.09-.02.03-.05.1-.05.29 0 .17.04.41.1.69a12.22 12.22 0 00.88 2.47c.15.27.32.46.49.55.21.12.52.23.94.34.43.11.95.18 1.56.21a11.56 11.56 0 004.45-.61c1.22-.4 2.33-.97 3.28-1.67a7.83 7.83 0 003.31-5.71 9.53 9.53 0 00-.5-3.88 8.35 8.35 0 00-1.34-2.6 7.32 7.32 0 00-3.93-2.58c-.78-.22-1.55-.39-2.29-.5-.77-.12-1.52-.23-2.25-.32a13.4 13.4 0 01-2.08-.42 4.96 4.96 0 01-1.69-.84c-.5-.38-.85-.91-1.07-1.57a4.11 4.11 0 01-.2-1.34c.01-.46.13-.88.34-1.28.21-.38.51-.74.91-1.05.38-.31.87-.55 1.45-.74a7.12 7.12 0 012.12-.37 12.49 12.49 0 013.18.4c.46.12.58.09.58.08.08-.03.1-.06.1-.07.02-.03.05-.11.03-.3a3.62 3.62 0 00-.12-.68c-.07-.28-.18-.61-.31-1.02l-.31-.9a5.03 5.03 0 00-.45-.85c-.03-.03-.11-.1-.3-.21-.08-.05-.3-.14-.85-.23a9.46 9.46 0 00-1.49-.12 10.9 10.9 0 00-6.45 2.04 7.5 7.5 0 00-2.06 2.23c-.5.85-.81 1.83-.92 2.92a8.46 8.46 0 00.46 3.53 7.53 7.53 0 005.27 5.28c.74.22 1.51.38 2.26.5.77.12 1.52.23 2.24.32.76.11 1.43.25 2.04.43.64.2 1.21.48 1.68.84.5.38.87.92 1.09 1.59.19.57.26 1.13.22 1.67a3.34 3.34 0 01-.46 1.49c-.26.44-.63.84-1.09 1.18-.45.34-1.01.62-1.65.83-.96.32-1.86.47-2.67.48a12.34 12.34 0 01-3.67-.54 1.62 1.62 0 00-.65-.05zM1384.53 346.5c.5 1.52.73 2.95.69 4.28a8.4 8.4 0 01-.91 3.6 8.4 8.4 0 01-2.44 2.84 13.5 13.5 0 01-4.04 2.03l-2.06.68 2.86 8.7c.05.14.04.28 0 .42a.84.84 0 01-.32.41c-.17.13-.41.27-.71.42a11.66 11.66 0 01-2.43.8c-.34.06-.61.09-.83.09a.99.99 0 01-.5-.14.7.7 0 01-.24-.34l-8.06-24.51c-.22-.66-.22-1.21-.02-1.64.2-.43.56-.73 1.07-.9l5.82-1.91c.59-.2 1.15-.35 1.69-.48.55-.12 1.21-.23 2-.31a8.28 8.28 0 012.54.16 7.2 7.2 0 014.47 2.95c.58.78 1.05 1.74 1.42 2.85zm-5.12 2.12a5.59 5.59 0 00-1.23-2.21 3.71 3.71 0 00-1.57-1 3.75 3.75 0 00-1.59-.1c-.51.09-1.04.21-1.56.39l-2.13.7 3.04 9.25 2.25-.74c.8-.26 1.44-.61 1.9-1.02.46-.42.79-.89 1-1.44.2-.54.29-1.14.28-1.79a7.64 7.64 0 00-.39-2.04z" class="st3"/>
  <path d="M1376.5 370.63a11 11 0 01-1.27.35c-.35.07-.66.1-.9.09a1.1 1.1 0 01-.67-.21.97.97 0 01-.35-.49l-8.06-24.51c-.24-.74-.24-1.37 0-1.88.24-.51.67-.87 1.26-1.07l5.82-1.91a16.8 16.8 0 013.76-.8 8.5 8.5 0 015.22 1.22 7.63 7.63 0 012.07 2.02c.59.82 1.08 1.81 1.45 2.95.51 1.55.75 3.03.7 4.39a8.63 8.63 0 01-.95 3.74 8.78 8.78 0 01-2.52 2.94 13.76 13.76 0 01-4.13 2.08l-1.76.58 2.76 8.39c.07.2.07.41 0 .62-.06.2-.2.38-.42.56-.19.15-.45.3-.77.46-.32.16-.73.32-1.24.48zm-9.8-27.1c-.42.14-.71.38-.88.73-.17.35-.15.82.04 1.4l8.06 24.51a.3.3 0 00.13.18c.05.04.16.07.31.08.19.01.44-.02.75-.08a11.93 11.93 0 002.35-.77c.28-.13.5-.26.65-.38.12-.09.19-.18.21-.26a.33.33 0 000-.22l-2.96-9 2.37-.78a13.08 13.08 0 003.94-1.98 7.91 7.91 0 003.23-6.2 12.2 12.2 0 00-.67-4.17 10.29 10.29 0 00-1.36-2.78 7.12 7.12 0 00-1.91-1.85 7.6 7.6 0 00-4.81-1.12 17.16 17.16 0 00-3.63.77l-5.82 1.92zm10.01 11.68l-2.55.84-3.24-9.85 2.44-.8a10.7 10.7 0 011.6-.4 4.02 4.02 0 011.72.1c.6.16 1.17.53 1.72 1.08a7.5 7.5 0 011.7 4.46c.02.69-.08 1.33-.3 1.91a3.93 3.93 0 01-1.08 1.57c-.49.45-1.16.81-2.01 1.09zm-2.14.03l1.95-.64a5.04 5.04 0 001.78-.95c.42-.38.73-.83.91-1.31.19-.5.27-1.06.26-1.67a6.6 6.6 0 00-.36-1.94c-.3-.9-.69-1.6-1.16-2.08a3.44 3.44 0 00-1.43-.92 3.58 3.58 0 00-1.45-.09c-.49.08-1 .21-1.5.37l-1.83.6 2.83 8.63zM1409.36 356.95c.13.41.23.75.29 1.04.06.28.08.52.08.71a.85.85 0 01-.12.44.5.5 0 01-.28.22l-12.4 4.08c-.42.14-.82.12-1.2-.06s-.67-.58-.87-1.2l-7.81-23.75c-.2-.62-.2-1.11-.01-1.48.2-.37.51-.62.93-.76l12.32-4.05a.5.5 0 01.34 0c.12.04.24.14.35.29.12.16.24.36.37.63a10.54 10.54 0 01.67 2.04c.05.28.08.52.07.71 0 .19-.04.34-.11.45a.46.46 0 01-.27.22l-8.81 2.9 2.19 6.65 7.46-2.45a.53.53 0 01.35.01c.12.05.24.14.36.28.11.14.23.34.36.61a11.76 11.76 0 01.66 2.02c.05.28.07.5.07.69a.92.92 0 01-.12.43.58.58 0 01-.28.21l-7.46 2.45 2.53 7.69 8.89-2.92a.53.53 0 01.35.01c.12.04.24.14.36.29.12.14.24.35.36.61.12.24.25.58.38.99z" class="st3"/>
  <path d="M1409.43 359.67l-12.4 4.08c-.5.17-.98.14-1.43-.08-.46-.22-.81-.69-1.04-1.38l-7.81-23.75c-.23-.7-.23-1.28.01-1.73.24-.44.61-.75 1.11-.91l12.32-4.05a.86.86 0 01.55 0c.18.07.34.2.5.4.13.17.27.4.4.69a10.6 10.6 0 01.69 2.11c.06.32.09.57.08.79a1.3 1.3 0 01-.15.6.77.77 0 01-.44.35l-8.51 2.8 1.99 6.05 7.16-2.36a.83.83 0 01.56.02c.17.07.34.2.49.38.14.16.27.38.4.67.13.28.26.61.39 1.02.14.43.24.78.29 1.06.06.31.09.56.08.77-.02.25-.07.44-.18.59a.85.85 0 01-.44.33l-7.16 2.35 2.33 7.08 8.59-2.83a.86.86 0 01.57.02c.17.06.33.19.49.38.14.17.27.39.4.68.12.27.26.62.4 1.04.14.42.23.79.3 1.07.06.31.09.57.08.79-.01.25-.07.45-.17.61a.87.87 0 01-.45.36zm-21.36-23.17c-.34.11-.58.31-.74.61-.15.28-.14.7.03 1.22l7.81 23.75c.17.53.41.87.7 1.01.31.14.62.16.96.05l12.4-4.08a.2.2 0 00.11-.09c.03-.04.06-.11.07-.29 0-.16-.02-.37-.07-.63a11.98 11.98 0 00-.65-1.97 3.21 3.21 0 00-.32-.55.65.65 0 00-.22-.19c-.07-.03-.11-.02-.15-.01l-9.19 3.02-2.73-8.29 7.76-2.55a.26.26 0 00.12-.09c.03-.04.06-.12.07-.26.01-.16-.01-.36-.06-.61a8.6 8.6 0 00-.94-2.48.64.64 0 00-.22-.18c-.07-.03-.11-.02-.14-.01l-7.76 2.55-2.39-7.26 9.11-3a.13.13 0 00.09-.07c.02-.04.06-.12.06-.3.01-.16-.01-.37-.07-.63a10.1 10.1 0 00-.65-1.98 3.36 3.36 0 00-.32-.56c-.11-.15-.19-.19-.21-.19-.04-.02-.08-.02-.13 0l-12.33 4.06zM1430.43 347.85a9.71 9.71 0 01.38 1.56c.02.19.02.36 0 .5-.02.15-.07.32-.16.53-.08.21-.29.5-.61.89s-.73.79-1.23 1.21a11.96 11.96 0 01-4.13 2.25c-1.69.56-3.31.77-4.86.64a9.44 9.44 0 01-4.32-1.44 12.53 12.53 0 01-3.6-3.56 22.14 22.14 0 01-2.73-5.73 21.85 21.85 0 01-1.19-6.44c-.03-1.98.26-3.75.86-5.3a10.55 10.55 0 012.7-3.97 11.92 11.92 0 018.3-3.03c.61.02 1.17.1 1.7.22.52.12.9.25 1.13.38.24.13.4.25.51.36.11.11.21.25.31.43a8.65 8.65 0 01.67 1.65c.14.42.24.79.32 1.09.07.3.11.55.1.76 0 .2-.04.36-.1.48a.49.49 0 01-.26.23c-.19.06-.47.02-.85-.13a9.72 9.72 0 00-3.33-.73c-.72-.03-1.53.1-2.42.39-.98.32-1.78.83-2.4 1.53a6.2 6.2 0 00-1.34 2.54c-.27 1-.35 2.13-.25 3.38.1 1.26.4 2.62.88 4.08.53 1.6 1.13 2.94 1.81 4.01a8.94 8.94 0 002.23 2.48c.8.58 1.66.92 2.56 1.03.9.12 1.85.01 2.83-.31a7.41 7.41 0 003.62-2.42c.37-.43.67-.81.89-1.14.23-.32.42-.51.58-.56.13-.04.24-.05.34-.01.1.03.2.12.3.27.11.15.22.37.34.67l.42 1.21z" class="st3"/>
  <path d="M1424.78 355.11c-1.72.57-3.4.79-4.99.66a9.85 9.85 0 01-4.46-1.49 12.94 12.94 0 01-3.69-3.66 22.27 22.27 0 01-2.77-5.81 22.12 22.12 0 01-1.2-6.54c-.03-2.01.26-3.84.88-5.42a10.86 10.86 0 012.78-4.09 12.05 12.05 0 016.56-3.02c.7-.08 1.36-.11 1.98-.09.63.03 1.21.11 1.75.24.56.13.96.27 1.22.42.27.15.46.28.58.41.12.12.24.29.36.49a14.81 14.81 0 011.01 2.82c.08.33.11.61.11.84 0 .26-.04.46-.13.62-.25.46-.73.56-1.51.24a9.07 9.07 0 00-3.24-.7 6.5 6.5 0 00-2.3.37c-.92.3-1.68.79-2.27 1.43a5.87 5.87 0 00-1.27 2.41 9.54 9.54 0 00-.24 3.27c.1 1.23.39 2.58.86 4a17.1 17.1 0 001.78 3.94 8.53 8.53 0 002.14 2.38c.76.54 1.57.88 2.41.98.85.11 1.75.01 2.69-.3a7.1 7.1 0 002.1-1.05 10.23 10.23 0 002.25-2.38c.49-.71.93-.83 1.28-.7.16.05.31.18.46.39.12.17.25.41.38.73a15.99 15.99 0 01.84 2.85c.02.22.02.41 0 .58-.03.18-.09.38-.19.61-.1.24-.31.56-.65.97a12.31 12.31 0 01-3.11 2.51c-.71.45-1.52.8-2.4 1.09zm-8.81-28.28a11.54 11.54 0 00-4.22 2.41 10.08 10.08 0 00-2.62 3.85 13.62 13.62 0 00-.83 5.18c.03 1.94.43 4.08 1.17 6.35a22.01 22.01 0 002.69 5.65 12.16 12.16 0 003.51 3.47 9.18 9.18 0 004.18 1.39c1.5.12 3.09-.09 4.73-.63a12.24 12.24 0 004.03-2.2c.49-.41.89-.8 1.19-1.17.37-.45.51-.68.56-.8.08-.18.12-.34.14-.46.01-.11.02-.26 0-.42a6.75 6.75 0 00-.37-1.49c-.17-.51-.31-.89-.43-1.17a4.16 4.16 0 00-.31-.61c-.09-.13-.14-.15-.14-.15s-.04-.01-.13.02c-.02.01-.16.07-.42.44a10.24 10.24 0 01-2.37 2.52c-.6.46-1.36.85-2.29 1.15a6.67 6.67 0 01-2.96.33 5.94 5.94 0 01-2.71-1.09 9.23 9.23 0 01-2.31-2.56 17.98 17.98 0 01-1.85-4.09 18.24 18.24 0 01-.89-4.15c-.1-1.28-.02-2.46.26-3.49a6.42 6.42 0 011.42-2.67 5.83 5.83 0 012.54-1.62c.92-.3 1.77-.44 2.54-.4a9.7 9.7 0 012 .29c.59.16 1.06.31 1.44.46.41.16.57.14.63.12.03-.01.06-.02.08-.08.03-.04.06-.14.06-.33 0-.17-.03-.4-.09-.68a15.12 15.12 0 00-.95-2.66 2.42 2.42 0 00-.26-.36 1.87 1.87 0 00-.44-.31c-.2-.12-.56-.24-1.05-.35a8.92 8.92 0 00-1.63-.22c-.58-.02-1.21 0-1.87.09-.7.07-1.38.23-2.03.44zM1440.96 348.12c.04.14.04.28 0 .42a.9.9 0 01-.32.41c-.17.13-.41.27-.71.42a10.81 10.81 0 01-2.43.8c-.34.06-.61.09-.83.09a.99.99 0 01-.5-.14.63.63 0 01-.24-.34l-8.46-25.73a.6.6 0 010-.42.96.96 0 01.33-.42c.17-.13.41-.27.71-.42a12.26 12.26 0 012.43-.8c.33-.06.6-.09.81-.08.22.01.38.05.5.14.12.08.2.2.25.34l8.46 25.73z" class="st3"/>
  <path d="M1438.83 350.14c-.49.16-.92.28-1.27.35a4 4 0 01-.9.09 1.17 1.17 0 01-.68-.2.92.92 0 01-.36-.5l-8.46-25.73a.94.94 0 010-.62c.06-.2.2-.38.44-.57a4 4 0 01.77-.46 11.74 11.74 0 012.5-.82c.36-.07.65-.09.89-.08.28.01.5.07.67.2.17.13.3.3.36.5l8.46 25.73c.07.2.07.41 0 .62-.06.2-.2.38-.42.56-.19.15-.44.3-.77.46-.31.14-.73.3-1.23.47zm-9.04-27.5c-.46.15-.85.3-1.15.44-.27.13-.5.27-.66.39a.66.66 0 00-.22.26.28.28 0 000 .22l8.46 25.73c.02.08.07.13.13.18.07.05.18.08.33.08.19 0 .44-.02.75-.08.67-.12 1.78-.49 2.36-.77.28-.13.5-.26.65-.38.12-.09.19-.18.21-.26a.28.28 0 000-.22l-8.46-25.73a.33.33 0 00-.13-.17.57.57 0 00-.33-.08c-.19 0-.44.02-.75.07-.32.05-.72.16-1.19.32zM1466.91 338.14c.32.45.55.82.68 1.11.14.28.16.52.07.71-.09.19-.31.36-.65.52a36.51 36.51 0 01-2.98 1.01c-.37.1-.66.15-.87.15a.8.8 0 01-.48-.13 1.44 1.44 0 01-.34-.38l-3.46-4.93-9.27 3.05.19 5.84c.01.22 0 .4-.04.56a.83.83 0 01-.3.44c-.16.14-.4.28-.73.42a15.38 15.38 0 01-2.7.87c-.35.07-.61.04-.79-.08-.18-.12-.3-.33-.36-.64a7.84 7.84 0 01-.1-1.27l-.34-26.67c0-.27.03-.49.08-.67a1 1 0 01.37-.5c.2-.15.49-.3.88-.45a40.74 40.74 0 013.36-1.1c.45-.12.82-.19 1.09-.2.27 0 .49.06.65.17.16.12.32.3.49.54l15.55 21.63zm-17.9-16.26l-.02.01.32 12.73 7-2.3-7.3-10.44z" class="st3"/>
  <path d="M1465.65 341.31c-.66.22-1.17.38-1.54.48-.4.1-.71.15-.95.16-.28 0-.52-.07-.69-.2a2.3 2.3 0 01-.41-.45l-3.32-4.73-8.81 2.9.17 5.6c.02.24 0 .46-.05.65-.05.23-.19.43-.4.61-.19.16-.47.32-.82.47a17.74 17.74 0 01-2.76.88c-.43.09-.78.04-1.03-.12-.26-.17-.42-.45-.49-.85-.07-.33-.1-.78-.11-1.33l-.34-26.68c0-.3.03-.55.09-.77.07-.25.23-.47.48-.66.23-.17.55-.33.96-.5.39-.15.91-.34 1.57-.55a33 33 0 011.82-.56c.47-.13.86-.2 1.17-.2.34 0 .63.07.85.24.19.14.37.34.56.62l15.57 21.64c.33.48.57.85.71 1.16.17.37.2.7.06.99-.13.27-.39.49-.81.67-.34.15-.83.32-1.48.53zm-16.38-2.3l9.73-3.2 3.6 5.13c.09.14.18.24.27.31.05.05.16.07.3.07.12 0 .37-.03.78-.14a30.7 30.7 0 002.93-.98c.35-.16.46-.3.49-.36.05-.1.02-.25-.07-.44a8.5 8.5 0 00-.65-1.06l-15.57-21.64a2.25 2.25 0 00-.42-.47c-.1-.08-.25-.11-.45-.11-.25 0-.59.07-1.01.18-.45.12-1.05.31-1.79.56-.64.21-1.16.39-1.54.54-.36.14-.62.28-.8.41-.14.11-.23.22-.26.33-.05.15-.07.35-.06.58l.34 26.67c.01.52.04.92.1 1.21.04.22.11.36.22.44.1.07.3.08.55.03a16.42 16.42 0 002.64-.85c.36-.15.55-.28.65-.36a.7.7 0 00.2-.28c.03-.13.04-.29.03-.47l-.21-6.1zm7.55-6.53l-7.82 2.57-.33-13.4.47-.15 7.68 10.98zm-7.2 1.7l6.18-2.03-6.46-9.24.28 11.27zM1484.63 332.03c.14.42.24.78.3 1.08.06.3.1.55.1.76 0 .21-.04.37-.11.49a.57.57 0 01-.29.24l-11.31 3.72c-.42.14-.82.12-1.19-.06-.38-.18-.67-.58-.87-1.2l-8.14-24.74a.6.6 0 010-.42.84.84 0 01.32-.41c.17-.13.4-.27.71-.42.31-.15.71-.3 1.19-.46.5-.16.91-.28 1.25-.34.33-.06.6-.09.82-.09.22.01.38.05.5.14.11.09.2.2.24.34l7.21 21.92 7.77-2.55a.59.59 0 01.37 0c.13.04.25.15.37.3.12.16.24.37.37.65.12.28.25.63.39 1.05z" class="st3"/>
  <path d="M1484.73 334.9l-11.31 3.72c-.5.16-.98.14-1.43-.08-.45-.22-.8-.69-1.03-1.39l-8.14-24.74a.94.94 0 010-.62c.07-.2.21-.38.43-.56.19-.15.45-.3.78-.46.67-.31 1.82-.69 2.51-.83.35-.06.65-.09.88-.08.29.01.51.07.68.2.17.13.3.29.37.5l7.11 21.62 7.46-2.45a.89.89 0 01.58.01c.18.07.34.21.5.41.14.18.28.41.41.71a12.25 12.25 0 01.72 2.19c.07.32.1.59.1.83 0 .27-.05.48-.15.64a.8.8 0 01-.47.38zm-19.29-23.99c-.46.15-.85.3-1.15.44-.29.14-.51.27-.66.39a.67.67 0 00-.21.26.28.28 0 000 .22l8.14 24.74c.17.53.41.87.71 1.01s.61.16.95.05l11.31-3.72a.23.23 0 00.12-.1.8.8 0 00.05-.33 7.83 7.83 0 00-.38-1.74 8.35 8.35 0 00-.39-1.01 2.9 2.9 0 00-.33-.58c-.11-.14-.18-.19-.23-.2a.22.22 0 00-.16 0l-8.07 2.65-7.31-22.22a.25.25 0 00-.13-.17.57.57 0 00-.33-.08c-.19 0-.44.02-.75.08-.3.05-.7.16-1.18.31z" class="st3"/>
  <path d="M1522.85 398.07c.15.55.23.97.25 1.26.02.29-.02.53-.11.72-.1.19-.23.39-.42.61a7.79 7.79 0 01-1.44 1.27c-.3.2-.62.38-.97.54l.71 2.64c.03.13.04.25 0 .36a.72.72 0 01-.25.33c-.14.1-.33.21-.57.31a9.72 9.72 0 01-1.92.52c-.27.04-.48.04-.65.02a.64.64 0 01-.38-.15.63.63 0 01-.17-.31l-.69-2.57a7.06 7.06 0 01-5.51-1.55c-1.5-1.26-2.61-3.23-3.32-5.88a14.5 14.5 0 01-.57-3.92c.01-1.18.18-2.24.52-3.19.34-.95.83-1.77 1.48-2.48a8.16 8.16 0 012.3-1.74l-.71-2.62a.66.66 0 010-.37.67.67 0 01.24-.34c.14-.11.33-.22.57-.32a9.72 9.72 0 011.93-.52c.27-.04.49-.04.65-.01.17.03.29.09.39.17.09.09.15.19.19.32l.68 2.53a7.08 7.08 0 012.85.24c.28.09.52.18.7.28.19.1.32.2.41.29a2.77 2.77 0 01.46.85l.22.73c.06.24.12.49.16.74.04.25.05.48.04.69-.01.21-.06.39-.14.55a.57.57 0 01-.37.31c-.2.05-.45.02-.71-.09-.27-.12-.6-.24-.98-.37a6.57 6.57 0 00-1.33-.29 4.64 4.64 0 00-3.21.91c-.41.33-.73.78-.96 1.33a5.56 5.56 0 00-.35 1.98c0 .77.13 1.66.41 2.69.27.98.58 1.8.95 2.46a4.8 4.8 0 001.27 1.53c.47.36.99.58 1.56.66.56.08 1.17.03 1.82-.14a4.52 4.52 0 001.59-.75c.41-.32.74-.65 1.01-.98.27-.33.49-.63.68-.89.19-.27.36-.42.53-.46.12-.03.23 0 .34.09.1.1.21.24.3.42.09.19.19.42.27.7l.25.89z" class="st1"/>
  <path d="M1519.85 406.83a9.92 9.92 0 01-1.63.4c-.31.04-.58.05-.81.02a1.33 1.33 0 01-.74-.32 1.26 1.26 0 01-.35-.6l-.56-2.06a7.53 7.53 0 01-5.44-1.74c-1.59-1.34-2.78-3.43-3.52-6.2-.4-1.48-.6-2.85-.59-4.08.01-1.25.2-2.39.56-3.4a7.78 7.78 0 011.61-2.69 8.76 8.76 0 012.03-1.63l-.58-2.15a1.35 1.35 0 01-.01-.69c.05-.24.21-.47.45-.67.18-.15.42-.29.73-.42a8.82 8.82 0 012.08-.56c.34-.05.62-.05.86-.01.28.05.51.16.69.33.18.17.3.38.37.62l.55 2.03.48-.01a6.26 6.26 0 012.06.32c.33.1.6.21.82.33.25.13.43.27.57.41a3.36 3.36 0 01.6 1.09c.08.22.15.48.23.77.07.26.13.53.17.8.05.3.06.57.05.83a2.1 2.1 0 01-.21.8c-.15.29-.39.5-.7.61a1.7 1.7 0 01-1.19-.11 6.88 6.88 0 00-2.14-.61 4 4 0 00-1.51.16l-.2.06a2.8 2.8 0 00-1.8 1.64 4.7 4.7 0 00-.3 1.75c0 .71.12 1.55.38 2.52.25.92.55 1.71.89 2.32.33.58.7 1.03 1.1 1.33.39.29.8.47 1.27.54.48.07 1 .03 1.57-.13a3.9 3.9 0 001.36-.63c.37-.29.67-.59.91-.89.26-.32.48-.61.67-.87.26-.37.52-.59.82-.69a1 1 0 01.96.21c.17.16.32.36.45.62.1.21.21.47.31.78l.27.94c.17.62.25 1.06.27 1.39.02.4-.04.75-.18 1.03a3.4 3.4 0 01-.51.74 8.78 8.78 0 01-1.56 1.37 8.1 8.1 0 01-.58.35l.58 2.15c.06.24.07.48 0 .7-.07.24-.23.46-.47.65a2.9 2.9 0 01-.71.39 3 3 0 01-.43.16zm-8.02-25.19l-.35.13a1.5 1.5 0 00-.41.22l.81 3.18-.45.23c-.82.42-1.54.97-2.13 1.61a6.51 6.51 0 00-1.35 2.26 8.92 8.92 0 00-.49 2.99c-.01 1.11.17 2.38.54 3.75.68 2.52 1.73 4.39 3.12 5.56a6.32 6.32 0 005.04 1.41l.53-.06.83 3.08c.11.02.27.02.52-.01a8.1 8.1 0 001.77-.48c.24-.1.36-.18.42-.22l-.82-3.17.48-.22a6.87 6.87 0 001.61-1.06c.21-.2.41-.39.59-.59.15-.17.26-.33.33-.47.03-.05.07-.17.05-.41a5.83 5.83 0 00-.23-1.13c-.09-.32-.17-.62-.26-.89a4.86 4.86 0 00-.24-.61l-.03-.05a6.72 6.72 0 01-1.89 2.09 5 5 0 01-1.81.86c-.73.2-1.43.25-2.07.16a3.96 3.96 0 01-1.84-.78 5.52 5.52 0 01-1.43-1.72 11.2 11.2 0 01-1.01-2.61 11.08 11.08 0 01-.43-2.85c.01-.84.14-1.59.39-2.21.26-.65.65-1.18 1.14-1.58a4.57 4.57 0 011.69-.85c.74-.2 1.41-.27 1.99-.19.54.07 1.03.17 1.45.32.4.13.75.27 1.03.39.2.08.28.07.31.07a2.27 2.27 0 000-.85l-.14-.67c-.07-.27-.14-.5-.21-.7-.06-.16-.11-.3-.17-.4a.91.91 0 00-.16-.23c-.01-.01-.07-.07-.25-.17a3.96 3.96 0 00-1.41-.42 6.69 6.69 0 00-1.75-.03l-.54.07-.83-3.05c-.13-.05-.26-.06-.53-.03-.25.04-.55.1-.91.2-.17.03-.34.08-.5.13zM1381.6 461.38c-2.1.79-3.42 1.83-4.04 3.15-.62 1.34-.5 3.1.37 5.38.82 2.17 1.87 3.51 3.2 4.1 1.32.58 2.98.49 5.06-.3 2.08-.79 3.4-1.82 4.01-3.14.62-1.34.5-3.09-.36-5.35-.83-2.19-1.88-3.54-3.21-4.13-1.32-.59-2.96-.5-5.03.29zM1419.05 448.96a2.9 2.9 0 00-1.56-1.03c-1.13-.25-2.33.17-3.4 1.69-.29.41-.68.91-1.17 1.48-.45.53-1.05 1.09-1.77 1.67a9.68 9.68 0 01-2.64 1.42 8.28 8.28 0 01-3.32.59c-1-.04-1.93-.33-2.83-.86a9.44 9.44 0 01-2.71-2.58 20.14 20.14 0 01-2.46-4.75 19.7 19.7 0 01-1.23-4.91c-.15-1.44-.06-2.74.25-3.87.3-1.09.78-1.99 1.48-2.77a6.71 6.71 0 012.7-1.78 9.2 9.2 0 012.87-.65 12.88 12.88 0 014.26.55c1.85.55 3.25.05 3.95-1.21.25-.45.37-.99.38-1.6 0-.46-.07-.97-.23-1.55-.13-.47-.3-1-.54-1.62a17.9 17.9 0 00-.6-1.43c-.2-.43-.4-.79-.6-1.1a4.26 4.26 0 00-2.07-1.72 8.88 8.88 0 00-2.19-.56 16.2 16.2 0 00-2.84-.15 20.43 20.43 0 00-6.43 1.29 21.02 21.02 0 00-6.94 4.21 17.22 17.22 0 00-4.37 6.38 20.13 20.13 0 00-1.3 8.05c.09 2.88.75 5.99 1.98 9.24a29.32 29.32 0 004.4 8.01 18.28 18.28 0 005.99 4.98 16.08 16.08 0 007.22 1.7c2.5.01 5.13-.5 7.81-1.51a22.65 22.65 0 006.59-3.84c.82-.7 1.48-1.36 2.01-2.01.6-.73.96-1.27 1.17-1.75a4.53 4.53 0 00.37-2.46 9.32 9.32 0 00-.25-1.18 22 22 0 00-1.19-3.11 8.2 8.2 0 00-.79-1.26zM1445.38 410.75a15.55 15.55 0 00-7.42-1.56c-2.57.07-5.35.67-8.26 1.77a23.36 23.36 0 00-7.66 4.54 17.6 17.6 0 00-4.52 6.54 19.14 19.14 0 00-1.19 8c.15 2.8.81 5.78 1.98 8.86a32.95 32.95 0 004.43 8.33c1.75 2.28 3.76 4 5.98 5.11a15.6 15.6 0 007.41 1.59c2.57-.06 5.39-.66 8.39-1.8a23.37 23.37 0 007.63-4.51 17.39 17.39 0 004.53-6.55 19.38 19.38 0 001.17-8.06 30.4 30.4 0 00-2.04-9.01 31.47 31.47 0 00-4.42-8.21 17.83 17.83 0 00-6.01-5.04zm-4.35 31.53c-1.5.57-2.81.8-3.9.69a5.3 5.3 0 01-2.78-1.08 10.18 10.18 0 01-2.51-2.89 28.48 28.48 0 01-3.53-9.35 10 10 0 01.05-3.79c.24-1.1.73-2.07 1.47-2.95a7.8 7.8 0 013.29-2.13 8.61 8.61 0 013.86-.66 5.8 5.8 0 012.84 1.1 9.97 9.97 0 012.49 2.83 27.12 27.12 0 012.22 4.64c.6 1.59 1.03 3.16 1.28 4.66.23 1.38.22 2.68-.04 3.86a6.65 6.65 0 01-1.45 2.95 7.66 7.66 0 01-3.29 2.12zM1499.28 388.52a4.44 4.44 0 00-3.56-1.68 6 6 0 00-2.03.42l-4.91 1.86a9.1 9.1 0 00-2.18 1.14 5.45 5.45 0 00-1.68 1.9 6.94 6.94 0 00-.72 2.36c-.1.75-.12 1.62-.06 2.59l.02 19.09-12.4-14.44a11.87 11.87 0 00-1.79-1.95 6.2 6.2 0 00-4.99-1.4c-.82.11-1.7.35-2.7.73l-4.77 1.8a4.9 4.9 0 00-2.83 2.55 5.04 5.04 0 00.02 3.98l12.09 31.99a2.89 2.89 0 002.95 1.88c.44-.01.96-.09 1.57-.24.55-.13 1.18-.33 1.93-.62.77-.29 1.39-.56 1.88-.82.54-.29.97-.56 1.31-.84.59-.48.96-1.04 1.11-1.65.14-.58.1-1.18-.11-1.74l-6.88-18.19 13.53 16.3c.35.46.83.82 1.38 1.03.47.18.99.26 1.58.25a6.74 6.74 0 001.65-.26 29.18 29.18 0 003.55-1.3 6.94 6.94 0 001.45-.85c.49-.39.85-.83 1.09-1.32.26-.53.37-1.11.34-1.64l-.41-21.74 7.01 18.55c.22.59.62 1.08 1.15 1.42.51.32 1.12.48 1.8.46a7.5 7.5 0 001.58-.23c.55-.13 1.18-.34 1.93-.62.77-.29 1.39-.56 1.89-.83.56-.29.99-.57 1.33-.86a3 3 0 001.08-1.63c.14-.58.1-1.18-.11-1.74l-12.09-31.99a7.7 7.7 0 00-1-1.72z" class="st1"/>
  <path d="M267.79 382.84v115.09h9.38l-3.52 13.49 16.87 5.9 31.74-19.4V382.2l-.05-1.77c-.01-.15-.28-15.67 8.32-24.85 4.95-5.28 12.92-8.19 23.71-8.69 10.66.49 18.57 3.34 23.52 8.5 7.38 7.69 8.63 20.55 8.5 25.15l-.04.46v116.94h8.35l-1.13 5.9 13.87 12.89 33.38-16.21V382.84c.29-7.28.16-39.8-22.98-64.5-10.37-11.07-29.03-24.12-60.03-25.82v-.19c-1.16 0-2.3.02-3.43.05-1.13-.03-2.27-.05-3.43-.05v.19c-30.99 1.7-49.65 14.75-60.02 25.82-23.17 24.71-23.3 57.22-23.01 64.5z" class="st4"/>
  <path d="M382.19 348.15c-10.37-11.07-29.03-24.12-60.02-25.82v-.19c-1.16 0-2.3.02-3.43.05-1.13-.03-2.27-.05-3.43-.05v.19c-12.46.68-22.89 3.22-31.63 6.7v-15.56h-51.76V505h.38v9.8h54.46V412.01l-.05-1.77c-.01-.15-.28-15.67 8.32-24.85 4.95-5.28 12.92-8.19 23.71-8.69 10.66.49 18.57 3.34 23.52 8.5 7.38 7.69 8.63 20.55 8.5 25.15l-.04.46v104h54.46V412.65c.28-7.28.15-39.79-22.99-64.5z" class="st5"/>
  <path d="M382.19 348.15c-10.37-11.07-29.03-24.12-60.02-25.82v-.19c-1.16 0-2.3.02-3.43.05-1.13-.03-2.27-.05-3.43-.05v.19c-12.46.68-22.89 3.22-31.63 6.7v-15.56h-51.76V505h.38v9.8h54.46V412.01l-.05-1.77c-.01-.15-.28-15.67 8.32-24.85 4.95-5.28 12.92-8.19 23.71-8.69 10.66.49 18.57 3.34 23.52 8.5 7.38 7.69 8.63 20.55 8.5 25.15l-.04.46v104h54.46V412.65c.28-7.28.15-39.79-22.99-64.5z" class="st5"/>
  <path d="M407.24 516.86h-58.59l.05-106.65c.11-4.23-1.1-16.48-7.93-23.59-4.54-4.73-11.95-7.38-22.03-7.86-10.19.49-17.66 3.19-22.21 8.04-7.94 8.47-7.77 23.22-7.77 23.36l.06 1.78v104.92h-58.59v-9.8h-.38V311.41h55.89v14.64a102.84 102.84 0 0127.5-5.65v-.31h2.06c1.18 0 2.34.02 3.48.05 1.03-.03 2.19-.05 3.37-.05h2.06v.31c30.73 2.18 49.27 15.46 59.47 26.34 23.88 25.49 23.8 59.44 23.54 65.99l.02 104.13zm-54.46-4.12h50.34V412.65c.25-6.34.33-38.8-22.43-63.09-9.89-10.56-28.1-23.49-58.63-25.17l-1.95-.17-1.31.03-1.42-.03v.06l-1.95.11c-11.18.61-21.6 2.82-30.98 6.56l-2.83 1.13v-16.54h-47.64v187.4h.38v9.8h50.34V412.01l-.05-1.71c-.01-.07-.38-16.44 8.88-26.32 5.32-5.68 13.77-8.82 25.12-9.34l.1-.01.09.01c11.21.52 19.6 3.59 24.91 9.13 7.56 7.88 9.24 20.87 9.07 26.64l-.04.5v101.83z" class="st4"/>
  <path d="M229.11 312.18l30.38-21.3h52.66v13.54l-27.17 21.99-1.3-12.94zM617.08 406.92V395.36c.29-7.28.16-39.8-22.98-64.5-10.37-11.07-29.03-24.12-60.02-25.82v-.19c-1.16 0-2.3.02-3.43.05-1.12-.03-2.27-.05-3.43-.05v.19c-30.99 1.7-49.65 14.75-60.02 25.82-23.14 24.7-23.27 57.22-22.99 64.5v9.13-.15 9.13c-.29 7.28-.16 39.8 22.99 64.5 10.37 11.07 29.03 24.12 60.02 25.82v.19c1.16 0 2.3-.02 3.43-.05 1.13.03 2.27.05 3.43.05v-.19c30.99-1.7 49.65-14.75 60.02-25.82 23.14-24.7 23.27-57.22 22.98-64.5v-6.55zm-62.91 34c-4.95 5.15-12.85 8-23.52 8.5-10.79-.5-18.76-3.41-23.71-8.7-8.6-9.18-8.33-24.7-8.32-24.85l.05-1.77v-19.38l-.05-1.77c-.01-.15-.28-15.67 8.32-24.85 4.95-5.28 12.92-8.19 23.71-8.69 10.66.49 18.57 3.34 23.52 8.5 7.38 7.69 8.63 20.55 8.5 25.15l-.05.46v10.98-.15 10.98l.05.46c.13 4.57-1.12 17.44-8.5 25.13z" class="st4"/>
  <path d="M584.19 421.2V412.23c.29-7.28.16-39.8-22.98-64.5-10.37-11.07-29.03-24.12-60.03-25.82v-.19c-1.16 0-2.3.02-3.43.05-1.13-.03-2.27-.05-3.43-.05v.19c-30.99 1.7-49.65 14.75-60.02 25.82-23.14 24.7-23.27 57.22-22.98 64.5v16.81c-.29 7.28-.16 39.8 22.98 64.5 10.37 11.07 29.03 24.12 60.02 25.82v.19c1.16 0 2.3-.02 3.43-.05 1.13.03 2.27.05 3.43.05v-.19c30.99-1.7 49.65-14.75 60.02-25.82 23.14-24.7 23.27-57.22 22.99-64.5v-7.84zm-62.73 35.1c-4.95 5.28-12.92 8.19-23.71 8.69-10.66-.49-18.57-3.34-23.52-8.5-7.38-7.69-8.63-20.55-8.5-25.15l.04-.46v-19.32l-.06-1.77c-.01-.15-.28-15.67 8.32-24.85 4.95-5.28 12.92-8.19 23.71-8.69 10.66.49 18.57 3.34 23.52 8.5 7.38 7.69 8.63 20.55 8.5 25.15l-.05.46v19.32l.06 1.77c.02.16.3 15.67-8.31 24.85z" class="st5"/>
  <path d="M503.24 521.61h-2.06c-1.18 0-2.34-.02-3.48-.05-1.03.03-2.19.05-3.37.05h-2.06v-.31c-30.73-2.18-49.27-15.46-59.47-26.34-23.88-25.49-23.8-59.44-23.54-65.99v-16.74c-.02-.39-.04-.96-.04-1.63-.13-9.03 1.18-40.37 23.58-64.28 10.2-10.88 28.74-24.16 59.47-26.34v-.31h2.06c1.18 0 2.34.02 3.48.05 1.03-.03 2.19-.05 3.37-.05h2.06v.31c30.73 2.18 49.27 15.46 59.47 26.34 22.4 23.91 23.71 55.25 23.58 64.29l-.04 1.7v16.74c.26 6.47.34 40.42-23.54 65.91-10.19 10.88-28.73 24.16-59.46 26.34v.31zm-5.54-4.17l1.42.03v-.06l1.95-.11c30.54-1.67 48.74-14.61 58.63-25.17 22.76-24.3 22.68-56.75 22.43-63.01v-16.9a42 42 0 00.04-1.68c.12-8.65-1.12-38.63-22.47-61.41-9.89-10.56-28.1-23.49-58.63-25.17l-1.95-.17-1.31.03-1.42-.03v.06l-1.95.11c-30.54 1.67-48.74 14.61-58.63 25.17-21.34 22.78-22.59 52.76-22.47 61.41l.04 1.6v16.9c-.25 6.34-.33 38.8 22.42 63.09 9.89 10.56 28.09 23.49 58.63 25.17l1.95.17 1.32-.03zm.05-50.38h-.1c-11.21-.52-19.59-3.59-24.91-9.13-7.57-7.88-9.24-20.87-9.07-26.64l.04-.5-.04-20.82-.01-.95c.03-1.6.23-5.8 1.41-10.63.13-.55.27-1.05.41-1.55l.09-.34.11-.39.1-.32.05-.15c.36-1.14.74-2.18 1.14-3.17l.08-.21c.21-.49.43-.97.65-1.44l.28-.59a38.07 38.07 0 011.78-3.13c.22-.34.45-.67.69-1l.61-.83c.34-.44.7-.86 1.07-1.27l.13-.15a12.3 12.3 0 011.42-1.4l.52-.47c.19-.18.38-.36.59-.53a21.2 21.2 0 011.72-1.24l.21-.16c.17-.13.35-.26.54-.38.67-.42 1.36-.79 2.07-1.16l.19-.11.49-.26c.78-.38 1.61-.71 2.38-1.01l.18-.08.45-.18c.75-.28 1.59-.54 2.71-.85l.15-.05c.13-.04.27-.09.41-.12a50.4 50.4 0 013.1-.69l.4-.09c1.15-.21 2.38-.38 3.66-.53l.16-.02a71 71 0 014.03-.31l.1-.01.1.01c1.38.06 2.73.17 4.03.31l.19.03c1.29.15 2.47.32 3.59.52l.31.07c1.33.26 2.32.48 3.22.72l.4.12.15.05c.82.23 1.77.51 2.71.85l.44.18.18.08a34.06 34.06 0 012.88 1.27l.19.11c.71.37 1.4.73 2.07 1.15.18.11.36.24.53.37l.22.16c.66.45 1.2.83 1.71 1.24.21.17.4.35.6.54l.5.46c.38.34.75.68 1.09 1.04l.33.37.13.15a25.66 25.66 0 014.17 6.24l.27.57c.23.49.46.97.66 1.46l.06.17c.42 1.02.79 2.06 1.16 3.21l.06.17.11.32.11.38.14.49.36 1.33.04.2a50.47 50.47 0 011.38 10.48l-.01.97-.05 1.61.05 19.81c.01.07.38 16.44-8.88 26.32-5.32 5.67-13.77 8.82-25.12 9.34l-.07-.01zm-29.95-35.58c-.11 4.22 1.1 16.48 7.92 23.59 4.55 4.73 11.96 7.38 22.03 7.86 10.19-.49 17.66-3.19 22.21-8.04 7.93-8.47 7.77-23.22 7.76-23.36l-.05-1.78v-19.48l.05-.49.01-.73a47.02 47.02 0 00-1.63-10.95l-.37-1.24a34.8 34.8 0 00-1.02-2.82l-.07-.19c-.18-.44-.38-.86-.58-1.29l-.24-.51-.58-1.1a16.55 16.55 0 00-.96-1.6 25.4 25.4 0 00-.58-.85l-.53-.73c-.28-.36-.58-.7-.88-1.04l-.2-.23-.17-.2c-.27-.29-.57-.55-.86-.81l-.26-.23-.34-.31-.36-.33a18.8 18.8 0 00-1.33-.96 10.95 10.95 0 01-.73-.52c-.54-.34-1.12-.64-1.77-.98l-.35-.19c-.07-.04-.15-.09-.23-.12-.67-.32-1.4-.62-2.08-.88l-.36-.15-.2-.08c-.81-.29-1.67-.55-2.4-.75l-.34-.1-.16-.05c-.81-.22-1.71-.42-2.83-.63l-.31-.07c-1.11-.21-2.2-.36-3.42-.5l-.16-.02a59.71 59.71 0 00-3.68-.29c-1.26.06-2.5.16-3.68.29l-.15.02c-1.18.13-2.31.29-3.35.48l-.38.08c-1.13.22-2.03.42-2.82.63l-.18.05-.33.1c-1.02.28-1.76.52-2.42.76l-.2.09-.34.14a25.96 25.96 0 00-2.31 1.01l-.34.19c-.65.34-1.24.65-1.77.98l-.29.2-.34.25c-.5.34-.99.67-1.43 1.03l-.35.32-.35.32-.25.23c-.29.26-.58.52-.85.8a3.6 3.6 0 01-.19.21l-.19.22c-.31.35-.61.69-.89 1.05l-.5.68a15.96 15.96 0 00-1.18 1.81l-.36.64-.61 1.14-.25.52-.58 1.28-.06.17c-.37.9-.71 1.83-1.03 2.86l-.3 1.01-.38 1.41a45.92 45.92 0 00-1.3 9.78v.7l.05.59-.05 21.11zM589.01 315.28l30.71-18.33h58.21v124.21s-.69 32.33 22.46 32.08c0 0-33.92 23.37-52.25-9.17 0 0-2.75-8.25-2.75-20.17V315.73l-56.38-.45zM705.43 439.94l32.08-18.79h57.75s0 77.92-83.87 89.38c0 0 41.86-14.41 51.54-66.42l.25-1.42-57.75-2.75z" class="st4"/>
  <path d="M707.25 441.4c-1.23 3.77-3.12 7.67-6.08 10.83-4.95 5.28-12.92 8.19-23.71 8.69-10.66-.49-18.57-3.34-23.52-8.5-7.38-7.69-8.63-20.55-8.5-25.15l.05-.46V317.17h-54.46v107.8c-.29 7.28-.16 39.8 22.98 64.5 10.37 11.07 29.03 24.12 60.03 25.82v.19c1.16 0 2.3-.02 3.43-.05 1.13.03 2.27.05 3.43.05v-.19c30.99-1.7 49.65-14.75 60.02-25.82 14.7-15.69 20.11-34.54 22.03-48.06h-55.7z" class="st5"/>
  <path d="M682.95 517.53h-2.06c-1.18 0-2.34-.02-3.48-.05-1.03.03-2.19.05-3.37.05h-2.06v-.31c-30.73-2.18-49.27-15.46-59.47-26.34-23.88-25.49-23.8-59.44-23.54-65.99V315.11h58.59l-.05 112.3c-.11 4.22 1.1 16.48 7.92 23.59 4.55 4.73 11.96 7.38 22.03 7.86 10.19-.49 17.67-3.19 22.21-8.04 2.38-2.54 4.28-5.93 5.63-10.06l.46-1.42h59.57l-.33 2.35c-1.91 13.49-7.38 32.98-22.57 49.18-10.2 10.88-28.74 24.16-59.47 26.34v.32zm-5.54-4.17l1.42.03v-.06l1.95-.11c30.54-1.67 48.74-14.61 58.63-25.17 13.59-14.51 19.02-31.84 21.13-44.59h-51.82a29.75 29.75 0 01-6.04 10.18c-5.32 5.67-13.77 8.82-25.12 9.34l-.1.01-.1-.01c-11.21-.52-19.59-3.59-24.91-9.13-7.56-7.88-9.24-20.87-9.07-26.64l.04-.5V319.23h-50.34v105.73c-.25 6.34-.33 38.8 22.43 63.09 9.89 10.56 28.1 23.5 58.63 25.17l1.95.17c.45 0 .88-.01 1.32-.03zM765.01 315.28l30.71-18.33h58.21v124.21s-.23 32.55 22.46 32.08c0 0-33.91 23.37-52.25-9.17 0 0-2.75-8.25-2.75-20.17V315.73l-56.38-.45zM881.43 439.94l32.08-18.79h57.75s0 77.92-83.88 89.38c0 0 41.87-14.41 51.54-66.42l.25-1.42-57.74-2.75z" class="st4"/>
  <path d="M883.25 441.4c-1.23 3.77-3.12 7.67-6.08 10.83-4.95 5.28-12.92 8.19-23.71 8.69-10.66-.49-18.57-3.34-23.52-8.5-7.38-7.69-8.63-20.55-8.5-25.15l.05-.46V317.17h-54.46v107.8c-.29 7.28-.16 39.8 22.98 64.5 10.37 11.07 29.03 24.12 60.03 25.82v.19c1.16 0 2.3-.02 3.43-.05 1.13.03 2.27.05 3.43.05v-.19c30.99-1.7 49.65-14.75 60.02-25.82 14.7-15.69 20.11-34.54 22.03-48.06h-55.7z" class="st5"/>
  <path d="M858.95 517.53h-2.06c-1.18 0-2.34-.02-3.49-.05-1.03.03-2.19.05-3.37.05h-2.06v-.31c-30.73-2.18-49.27-15.46-59.47-26.34-23.88-25.49-23.8-59.44-23.54-65.99V315.11h58.59l-.05 112.3c-.11 4.22 1.1 16.48 7.92 23.59 4.55 4.73 11.96 7.38 22.03 7.86 10.19-.49 17.67-3.19 22.21-8.04 2.38-2.54 4.28-5.93 5.63-10.06l.46-1.42h59.56l-.33 2.35c-1.91 13.49-7.38 32.98-22.57 49.18-10.2 10.88-28.73 24.16-59.46 26.34v.32zm-5.54-4.17l1.42.03v-.06l1.95-.11c30.53-1.67 48.74-14.61 58.63-25.17 13.59-14.51 19.01-31.84 21.13-44.59h-51.82a29.75 29.75 0 01-6.04 10.18c-5.32 5.67-13.77 8.82-25.12 9.34l-.09.01-.1-.01c-11.21-.52-19.59-3.59-24.91-9.13-7.56-7.88-9.24-20.87-9.07-26.64l.04-.5V319.23h-50.34v105.73c-.25 6.34-.33 38.8 22.43 63.09 9.89 10.56 28.1 23.5 58.63 25.17l1.95.17c.44 0 .87-.01 1.31-.03zM941.24 316.43l30.71-18.33h170.5v56.38l-30.71 18.79-1.38-53.17zM998.07 387.93v-16.04l63.71.46-26.12 16.04z" class="st4"/>
  <path d="M1037.49 443.39l31.63-19.25v-52.71l-8.71.46-20.17 9.17-4.58 7.33zM1031.53 442.93s-1.38 17.87 15.58 15.58c0 0-33.46 16.04-48.58-16.5l33 .92zM1058.57 441.1l31.17-18.79h57.75s8.25 81.58-97.17 94.42c0 0 60.96-19.71 64.17-72.42l-55.92-3.21z" class="st4"/>
  <path d="M1059.61 442.78c-1.23 3.77-3.12 7.67-6.08 10.83-4.95 5.28-12.92 8.19-23.71 8.69-10.66-.49-18.57-3.34-23.52-8.5-3.27-3.41-5.34-7.84-6.61-12.11h36.71v-53.06h-38.55v-16.82h112.74v-53.06H997.84v-.21h-54.46v107.8c-.29 7.28-.16 39.8 22.98 64.5 10.37 11.07 29.03 24.12 60.03 25.82v.19c1.16 0 2.3-.02 3.43-.05 1.13.03 2.27.05 3.43.05v-.19c30.99-1.7 49.65-14.75 60.02-25.82 14.7-15.69 20.11-34.54 22.03-48.06h-55.69z" class="st5"/>
  <path d="M1059.61 442.78c-1.23 3.77-3.12 7.67-6.08 10.83-4.95 5.28-12.92 8.19-23.71 8.69-10.66-.49-18.57-3.34-23.52-8.5-3.27-3.41-5.34-7.84-6.61-12.11h36.71v-53.06h-38.55v-16.82h112.74v-53.06l-167.2-.21v107.8c-.29 7.28-.16 39.8 22.98 64.5 10.37 11.07 29.03 24.12 60.03 25.82v.19c1.16 0 2.3-.02 3.43-.05 1.13.03 2.27.05 3.43.05v-.19c30.99-1.7 49.65-14.75 60.02-25.82 14.7-15.69 20.11-34.54 22.03-48.06h-55.7z" class="st5"/>
  <path d="M1035.31 518.91h-2.06c-1.18 0-2.34-.02-3.48-.05-1.03.03-2.19.05-3.37.05h-2.06v-.31c-30.73-2.18-49.27-15.46-59.47-26.34-23.88-25.49-23.8-59.44-23.54-65.99V316.49l171.33.21v57.18H999.91v12.7h38.55v57.18h-35.9a25.43 25.43 0 005.23 8.62c4.55 4.73 11.96 7.38 22.03 7.86 10.19-.49 17.67-3.19 22.21-8.04 2.38-2.54 4.27-5.93 5.62-10.06l.46-1.42h59.57l-.33 2.35c-1.92 13.49-7.38 32.98-22.57 49.18-10.2 10.88-28.74 24.16-59.47 26.34v.32zm-5.55-4.17l1.42.03v-.06l1.95-.11c30.53-1.67 48.74-14.61 58.63-25.17 13.59-14.51 19.01-31.84 21.13-44.59h-51.82a29.75 29.75 0 01-6.04 10.18c-5.32 5.67-13.77 8.82-25.12 9.34l-.09.01-.1-.01c-11.21-.52-19.59-3.59-24.91-9.13-3.12-3.25-5.5-7.6-7.1-12.95l-.79-2.65h37.42V390.7h-38.55v-20.95h112.74v-48.93l-163.08-.2v105.73c-.25 6.34-.33 38.8 22.43 63.09 9.89 10.56 28.1 23.5 58.63 25.17l1.95.17 1.3-.04zM1162.5 386.1v115.09h9.38l-3.52 13.5 16.87 4.53 31.73-18.02V385.46l-.05-1.77c-.01-.15-.28-15.67 8.32-24.85 4.95-5.28 12.92-8.2 23.71-8.69 10.66.49 18.57 3.34 23.51 8.5 7.38 7.69 8.63 20.55 8.5 25.15l-.05.46V501.2h8.35l-1.13 5.9 14.12 13.87 33.12-17.18V386.1c.29-7.28.16-39.8-22.98-64.5-10.37-11.07-29.03-24.12-60.03-25.82v-.19c-1.16 0-2.3.02-3.43.05-1.13-.03-2.27-.05-3.43-.05v.19c-30.99 1.7-49.65 14.75-60.02 25.82-23.13 24.71-23.26 57.22-22.97 64.5z" class="st4"/>
  <path d="M1276.91 351.41c-10.37-11.07-29.03-24.12-60.03-25.82v-.19c-1.16 0-2.3.02-3.43.05-1.13-.03-2.27-.05-3.43-.05v.19c-12.46.68-22.89 3.22-31.63 6.7v-15.56h-51.76v191.52h.38v9.8h54.46V415.27l-.05-1.77c-.01-.15-.29-15.67 8.32-24.85 4.95-5.28 12.92-8.2 23.71-8.69 10.66.49 18.57 3.34 23.52 8.5 7.38 7.69 8.63 20.55 8.5 25.15l-.04.46v104h54.46V415.91c.29-7.28.16-39.8-22.98-64.5z" class="st5"/>
  <path d="M1276.91 351.41c-10.37-11.07-29.03-24.12-60.03-25.82v-.19c-1.16 0-2.3.02-3.43.05-1.13-.03-2.27-.05-3.43-.05v.19c-12.46.68-22.89 3.22-31.63 6.7v-15.56h-51.76v191.52h.38v9.8h54.46V415.27l-.05-1.77c-.01-.15-.29-15.67 8.32-24.85 4.95-5.28 12.92-8.2 23.71-8.69 10.66.49 18.57 3.34 23.52 8.5 7.38 7.69 8.63 20.55 8.5 25.15l-.04.46v104h54.46V415.91c.29-7.28.16-39.8-22.98-64.5z" class="st5"/>
  <path d="M1301.95 520.12h-58.59l.05-106.72c.12-4.02-1.07-16.37-7.93-23.52-4.54-4.73-11.96-7.38-22.03-7.86-10.19.49-17.66 3.19-22.21 8.04-7.94 8.47-7.77 23.22-7.76 23.36l.05 1.78v104.92h-58.59v-9.8h-.38V314.67h55.89v14.64a102.45 102.45 0 0127.5-5.65v-.31h2.06c1.18 0 2.33.02 3.48.05 1.04-.03 2.2-.05 3.37-.05h2.06v.31c30.73 2.18 49.27 15.46 59.47 26.34 23.88 25.49 23.8 59.44 23.54 65.99l.02 104.13zm-54.46-4.12h50.34V415.91c.25-6.34.33-38.8-22.42-63.09-9.89-10.56-28.1-23.5-58.63-25.17l-1.95-.17-1.31.03-1.42-.03v.06l-1.95.11c-11.18.61-21.6 2.82-30.98 6.56l-2.83 1.13V318.8h-47.64v187.4h.38v9.8h50.34V415.27l-.05-1.71c-.01-.07-.39-16.44 8.88-26.32 5.32-5.68 13.77-8.82 25.12-9.34l.09-.01.1.01c11.21.52 19.59 3.59 24.91 9.13 7.57 7.88 9.24 20.87 9.07 26.64l-.04.49V516z" class="st4"/>
  <path d="M1123.82 315.44l30.38-21.3h52.67v13.54l-27.18 22-1.29-12.95zM223.47 180.69v115.09h9.38l-3.52 13.49 16.87 5.74 31.73-16.65V180.05l-.05-1.77c-.01-.15-.28-15.66 8.32-24.85 4.95-5.28 12.92-8.19 23.71-8.69 10.66.49 18.57 3.34 23.52 8.49 7.38 7.69 8.63 20.55 8.5 25.15l-.05.46v116.94h8.35l-1.13 5.9 16.87 15.24 30.37-18.56V180.69c.29-7.28.16-39.8-22.98-64.5-10.37-11.07-29.03-24.12-60.03-25.82v-.19c-1.16 0-2.3.02-3.43.05-1.12-.03-2.27-.05-3.43-.05v.19c-30.99 1.7-49.65 14.75-60.02 25.82-23.14 24.7-23.27 57.22-22.98 64.5z" class="st4"/>
  <path d="M340.46 133.06c-10.37-11.07-29.03-24.12-60.03-25.82v-.19c-1.16 0-2.3.02-3.43.05-1.13-.03-2.27-.05-3.43-.05v.19c-30.99 1.7-49.65 14.75-60.02 25.82-23.14 24.7-23.27 57.22-22.98 64.5v115.09h54.46v-30.66h63.95v30.66h54.46V197.56c.29-7.28.16-39.8-22.98-64.5zm-95.42 104.93v-41.07l-.06-1.77c-.01-.15-.28-15.67 8.32-24.85 4.95-5.28 12.92-8.19 23.71-8.69 10.66.49 18.57 3.34 23.52 8.5 7.38 7.69 8.63 20.55 8.5 25.15l-.04.46V238h-63.95z" class="st5"/>
  <path d="M365.51 314.71h-58.59v-31.96H247.1v31.96h-58.59V197.56c-.26-6.47-.34-40.41 23.54-65.91 10.19-10.88 28.73-24.16 59.47-26.34V105h2.06c1.18 0 2.34.02 3.48.05 1.03-.03 2.2-.05 3.37-.05h2.06v.31c30.73 2.18 49.27 15.46 59.47 26.34 23.88 25.49 23.8 59.44 23.54 65.99l.01 117.07zm-54.47-4.13h50.34V197.56c.25-6.34.33-38.8-22.42-63.09-9.89-10.56-28.09-23.49-58.63-25.17l-1.95-.17-1.31.03-1.42-.03v.06l-1.95.11c-30.54 1.67-48.74 14.61-58.63 25.17-22.76 24.3-22.68 56.75-22.43 63.01v113.11h50.34v-31.96h68.07v31.95z" class="st4"/>
  <path d="M354.74 305.3c-.76 0-1.38-.62-1.38-1.38V198.6c.23-5.82.31-35.71-20.66-58.09-9.12-9.73-25.89-21.66-54.01-23.2a1.34 1.34 0 01-.59-.17c-.82 0-1.63.02-2.44.04l-2.51-.04a1.38 1.38 0 01-2.04-1.21v-.17c0-.76.61-1.38 1.38-1.38 1.07 0 2.13.01 3.17.04.97-.03 2.03-.04 3.1-.04.27 0 .52.08.73.21 28.63 1.74 45.81 14 55.21 24.02 21.72 23.18 21.64 54.07 21.4 60.02v105.28c.02.78-.6 1.39-1.36 1.39zM236.75 306.68c-.76 0-1.38-.62-1.38-1.38v-33.37c0-.76.62-1.38 1.38-1.38h72.27a1.38 1.38 0 010 2.76h-70.9v32c0 .75-.61 1.37-1.37 1.37z" class="st2"/>
  <path d="M311.04 238.75h-68.07l-.06-43.55c-.01-.09-.42-16.4 8.88-26.32 5.32-5.68 13.77-8.82 25.12-9.34l.1-.01.1.01c11.21.52 19.59 3.59 24.91 9.13 7.57 7.88 9.24 20.87 9.07 26.64l-.04.5v42.94zm-63.94-4.12h59.82l.05-39.52c.11-4.22-1.1-16.48-7.92-23.59-4.54-4.73-11.96-7.38-22.03-7.86-10.19.49-17.67 3.19-22.21 8.04-7.92 8.45-7.77 23.22-7.77 23.37l.06 1.78v37.78z" class="st4"/>
  <path d="M236.64 240.82c-.76 0-1.38-.62-1.38-1.38v-43.02l-.07-2.12c-.01-.15-.43-19.61 10.52-31.29 6.27-6.7 16.32-10.41 29.86-11.04 13.5.62 23.46 4.25 29.74 10.78a1.37 1.37 0 01-1.98 1.9c-5.77-6.01-15.11-9.35-27.75-9.94-12.68.59-22.09 4.01-27.86 10.17-10.03 10.71-9.78 29.13-9.78 29.31l.07 2.17v43.06c0 .78-.61 1.4-1.37 1.4z" class="st2"/>
  <path d="M413.09 181.83v115.09h9.38l-3.52 13.49 15.49 4.53 33.11-19.4V181.19l-.05-1.77c-.01-.15-.28-15.66 8.32-24.85 4.95-5.28 12.92-8.19 23.71-8.69 10.66.49 18.57 3.34 23.52 8.5 7.38 7.69 8.63 20.55 8.5 25.15l-.05.46v116.94h8.35l-1.13 5.9 16.87 15.24 30.38-18.56V181.83c.29-7.28.16-39.8-22.98-64.5-10.37-11.07-29.03-24.12-60.02-25.82v-.19c-1.16 0-2.3.02-3.43.05-1.12-.03-2.27-.05-3.43-.05v.19c-30.99 1.7-49.65 14.75-60.02 25.82-23.15 24.7-23.28 57.22-23 64.5z" class="st4"/>
  <path d="M527.5 147.14c-10.37-11.07-29.03-24.12-60.03-25.82v-.19c-1.16 0-2.3.02-3.43.05-1.13-.03-2.27-.05-3.43-.05v.19c-12.46.68-22.89 3.22-31.63 6.7v-15.56h-51.76v191.52h.38v9.8h54.46V211l-.05-1.77c-.01-.15-.28-15.66 8.32-24.85 4.95-5.28 12.92-8.19 23.71-8.69 10.66.49 18.57 3.34 23.52 8.5 7.38 7.69 8.63 20.55 8.5 25.15l-.04.46v104h54.46V211.64c.29-7.28.16-39.8-22.98-64.5z" class="st5"/>
  <path d="M527.5 147.14c-10.37-11.07-29.03-24.12-60.03-25.82v-.19c-1.16 0-2.3.02-3.43.05-1.13-.03-2.27-.05-3.43-.05v.19c-12.46.68-22.89 3.22-31.63 6.7v-15.56h-51.76v191.52h.38v9.8h54.46V211l-.05-1.77c-.01-.15-.28-15.66 8.32-24.85 4.95-5.28 12.92-8.19 23.71-8.69 10.66.49 18.57 3.34 23.52 8.5 7.38 7.69 8.63 20.55 8.5 25.15l-.04.46v104h54.46V211.64c.29-7.28.16-39.8-22.98-64.5z" class="st5"/>
  <path d="M552.55 315.85h-58.59l.05-106.65c.11-4.22-1.1-16.48-7.93-23.59-4.54-4.73-11.96-7.38-22.03-7.86-10.19.49-17.67 3.19-22.21 8.04-7.93 8.47-7.77 23.22-7.76 23.36l.06 1.78v104.92h-58.59v-9.8h-.38V110.4h55.89v14.64a102.45 102.45 0 0127.5-5.65v-.32h2.06c1.18 0 2.34.02 3.48.05 1.04-.03 2.2-.05 3.37-.05h2.06v.31c30.74 2.18 49.27 15.46 59.47 26.34 23.88 25.49 23.8 59.44 23.54 65.99l.01 104.14zm-54.46-4.13h50.34V211.64c.25-6.34.33-38.8-22.42-63.09-9.89-10.56-28.09-23.49-58.63-25.17l-1.95-.17-1.31.03-1.42-.03v.06l-1.95.11c-11.18.61-21.61 2.82-30.98 6.56l-2.83 1.13v-16.55H379.3v187.4h.38v9.8h50.34V211l-.05-1.71c-.01-.07-.39-16.43 8.88-26.32 5.32-5.67 13.77-8.82 25.12-9.34h.19c11.21.52 19.59 3.59 24.91 9.13 7.57 7.88 9.24 20.87 9.07 26.64l-.04.49v101.83z" class="st4"/>
  <path d="M543.16 306.64c-.76 0-1.38-.61-1.38-1.38v-93.5c.23-5.82.3-35.72-20.66-58.1-9.12-9.73-25.89-21.66-54.02-23.2a1.34 1.34 0 01-.59-.17l-2.44.04c-.86-.02-1.69-.04-2.51-.04-.18.1-.38.16-.59.17a90.14 90.14 0 00-28.52 6.04c-.7.28-1.5-.06-1.79-.77-.28-.7.06-1.5.77-1.79a92.53 92.53 0 0128.72-6.19c.21-.14.46-.21.74-.21 1.07 0 2.13.02 3.18.04.97-.03 2.03-.04 3.1-.04.27 0 .52.08.74.21 28.64 1.74 45.82 14 55.21 24.03 21.72 23.18 21.64 54.08 21.41 60.04v93.45c0 .76-.61 1.37-1.37 1.37z" class="st2"/>
  <path d="M374.42 111.17l30.37-21.31h52.67v13.54l-27.17 22-1.3-12.94z" class="st4"/>
  <path d="M675.95 230.22c-.04 2.98-.7 16.07-8.32 24.2-4.95 5.28-12.92 8.2-23.71 8.7-10.66-.49-18.57-3.34-23.52-8.5-7.38-7.69-8.63-20.55-8.5-25.15l.04-.46v-42.16h53.21v-53.06h-53.21v-19.14h-54.46v112.5c-.29 7.28-.16 39.8 22.98 64.5 10.37 11.07 29.03 24.12 60.03 25.82v.19c1.16 0 2.3-.02 3.43-.05 1.13.03 2.27.05 3.43.05v-.19c30.99-1.7 49.65-14.74 60.02-25.82 20.74-22.14 23-50.54 23.03-61.44h-54.45z" class="st5"/>
  <path d="M649.41 319.73h-2.06c-1.18 0-2.34-.02-3.48-.05-1.04.03-2.2.05-3.37.05h-2.06v-.32c-30.73-2.18-49.27-15.46-59.47-26.34-23.88-25.49-23.8-59.44-23.54-65.99V112.6h58.59v19.14h53.21v57.18h-53.21l-.05 40.68c-.11 4.22 1.1 16.48 7.92 23.59 4.55 4.73 11.96 7.38 22.03 7.86 10.19-.49 17.67-3.19 22.21-8.04 7.19-7.67 7.73-20.36 7.76-22.83l.03-2.03h58.56l-.01 2.07c-.04 11.37-2.41 40.24-23.59 62.85-10.19 10.88-28.73 24.16-59.47 26.34v.32zm-5.54-4.17l1.42.03v-.06l1.95-.11c30.54-1.67 48.74-14.61 58.63-25.17 19-20.28 22.12-45.96 22.44-57.97h-50.38c-.33 4.95-1.84 16.14-8.79 23.55-5.32 5.67-13.77 8.82-25.12 9.35l-.09.01-.1-.01c-11.21-.52-19.59-3.59-24.91-9.13-7.57-7.88-9.24-20.87-9.07-26.64l.04-.5V184.8h53.21v-48.93h-53.21v-19.14h-50.34v110.44c-.25 6.34-.34 38.8 22.42 63.09 9.89 10.56 28.09 23.49 58.63 25.17l1.95.17 1.32-.04z" class="st4"/>
  <path d="M587.7 94.36h54.31v20.62h53.63v57.07l-28.88 16.5-2.75-55-54.31.68v-18.56h-54.31zM644.07 187.86V240.1s4.12 26.81 26.12 10.31c0 0-27.5 30.94-55.69-3.44 0 0-3.44-15.12-3.44-26.12l.69-33.69 32.32.7zM673.97 228.46l31.78-18.25 44.14.33s2.75 53.62-40.56 83.19l-33.69 16.5s48.12-28.88 44.69-79.06l-46.36-2.71zM765.75 93.55l54.78.12v99.69h27.5v19.25h-58.44V112.23l-54.31-.66zM846.41 112.22l29.5-19.23h58.06v200.74l-31.63 19.25V112.92zM821.91 295.11v-28.88h-32.32l.69 48.13z" class="st4"/>
  <path d="M848.28 113.76v98.13h-58.24v-98.13h-53.06v197.56h53.06v-46.38h58.24v46.38h53.05V113.76z" class="st5"/>
  <path d="M903.39 313.38h-57.18v-46.37H792.1v46.37h-57.18V111.69h57.18v98.13h54.11v-98.13h57.18v201.69zm-53.05-4.12h48.93V115.82h-48.93v98.13h-62.36v-98.13h-48.93v193.44h48.93v-46.37h62.36v46.37z" class="st4"/>
  <g>
    <path d="M1122.06 201.42v-11.93c.3-7.51.17-41.08-23.72-66.57-10.71-11.43-29.97-24.89-61.95-26.65v-.2c-1.2 0-2.38.02-3.54.05a136.7 136.7 0 00-3.54-.05v.2c-31.99 1.75-51.25 15.22-61.95 26.65-23.89 25.5-24.02 59.06-23.73 66.57v9.42-.16 9.42c-.3 7.52-.16 41.08 23.73 66.57 10.7 11.43 29.96 24.9 61.95 26.65v.2c1.2 0 2.38-.02 3.54-.05 1.16.03 2.34.05 3.54.05v-.2c31.99-1.75 51.25-15.22 61.95-26.65 23.88-25.49 24.02-59.06 23.72-66.57v-6.75zm-64.93 35.09c-5.11 5.32-13.27 8.26-24.27 8.77-11.13-.52-19.37-3.52-24.48-8.97-8.87-9.47-8.6-25.49-8.59-25.64l.06-1.83v-20l-.06-1.83c-.01-.15-.28-16.17 8.59-25.64 5.11-5.45 13.34-8.46 24.48-8.98 11 .51 19.16 3.45 24.27 8.77 7.62 7.93 8.91 21.21 8.77 25.96l-.05.47v11.34-.16 11.33l.05.47c.14 4.73-1.16 18.01-8.77 25.94z" class="st4"/>
    <path d="M1088.11 216.16v-9.27c.3-7.51.17-41.08-23.72-66.57-10.71-11.43-29.96-24.9-61.96-26.65v-.19c-1.19 0-2.37.02-3.54.05a136.7 136.7 0 00-3.54-.05v.19c-31.99 1.75-51.25 15.22-61.95 26.65-23.89 25.49-24.02 59.06-23.72 66.57V224.26c-.3 7.51-.16 41.08 23.72 66.58 10.71 11.42 29.96 24.89 61.95 26.65v.19c1.2 0 2.37-.02 3.54-.05 1.17.03 2.34.05 3.54.05v-.19c31.99-1.75 51.25-15.22 61.95-26.65 23.89-25.5 24.02-59.06 23.73-66.58v-8.1zm-64.74 36.24c-5.11 5.45-13.34 8.46-24.48 8.97-11-.51-19.16-3.45-24.27-8.77-7.62-7.93-8.91-21.21-8.77-25.96l.05-.47V206.23l-.06-1.83c-.01-.15-.29-16.17 8.59-25.65 5.11-5.45 13.33-8.46 24.47-8.97 11 .51 19.16 3.45 24.27 8.77 7.62 7.93 8.91 21.21 8.77 25.96l-.05.47V224.92l.06 1.83c.02.15.3 16.17-8.58 25.65z" class="st5"/>
    <path d="M1004.5 319.73h-2.06c-1.21 0-2.41-.02-3.59-.05-1.07.03-2.26.05-3.48.05h-2.06v-.32c-31.74-2.24-50.87-15.95-61.4-27.17-24.64-26.3-24.55-61.31-24.28-68.07l-.01-17.48c-.01-.43-.03-.92-.03-1.48-.13-9.31 1.22-41.64 24.32-66.29 10.52-11.23 29.66-24.94 61.4-27.18v-.32h2.06c1.21 0 2.41.02 3.59.05 1.07-.03 2.27-.05 3.48-.05h2.06v.32c31.75 2.24 50.88 15.95 61.4 27.18 23.09 24.65 24.45 56.98 24.32 66.31l-.05 1.76v17.27c.27 6.67.35 41.69-24.28 67.98-10.52 11.23-29.65 24.93-61.39 27.17v.32zm-5.66-4.17l1.53.03v-.07l1.95-.11c31.54-1.73 50.34-15.09 60.56-26 23.52-25.1 23.43-58.62 23.17-65.08v-17.44c.02-.54.04-1.1.04-1.74.13-8.93-1.17-39.9-23.21-63.42-10.22-10.91-29.02-24.27-60.57-26l-1.95-.17-1.42.03-1.53-.03v.07l-1.95.11c-31.54 1.73-50.34 15.09-60.56 26-22.04 23.53-23.34 54.5-23.21 63.43 0 .53.02 1 .03 1.39l.01.28v17.42c-.26 6.55-.35 40.07 23.17 65.17 10.22 10.9 29.02 24.27 60.56 26l1.95.17 1.43-.04zm.05-52.13h-.1c-11.55-.53-20.19-3.7-25.66-9.4-7.79-8.11-9.52-21.5-9.34-27.45l.05-.52-.05-21.51v-.97c.03-1.63.23-5.94 1.45-10.94.13-.53.26-1 .39-1.47l.11-.38.14-.51.15-.46c.38-1.21.77-2.28 1.18-3.28l.12-.29c.17-.42.4-.9.62-1.38l.29-.62a32.51 32.51 0 013.21-5.13c.34-.44.71-.87 1.1-1.3l.12-.14a12.51 12.51 0 011.5-1.5l.5-.46.59-.54c.55-.45 1.13-.84 1.71-1.24l.28-.2.54-.38c.72-.46 1.48-.86 2.14-1.2l.2-.11.5-.27c.82-.4 1.7-.75 2.46-1.04l.18-.08.47-.19c.96-.35 2-.65 2.79-.88l.16-.05.42-.13a45.96 45.96 0 013.61-.8 52.75 52.75 0 013.98-.57c1.24-.14 2.64-.24 4.09-.31l.1-.01.1.01c1.45.07 2.85.18 4.16.32l.18.02c1.35.15 2.57.33 3.72.54l.32.07c1.32.25 2.37.49 3.31.74l.4.12.18.06c.85.24 1.84.53 2.79.88l.45.18.19.08a30.25 30.25 0 012.93 1.3l.22.12c.74.38 1.45.76 2.14 1.19.2.12.38.25.55.39l.23.17c.67.46 1.24.85 1.75 1.27.21.17.41.35.6.54l.5.45c.39.35.79.71 1.15 1.09l.32.36.15.17a31.14 31.14 0 011.75 2.19c.24.34.48.67.71 1.02a39.33 39.33 0 011.84 3.23l.28.58c.24.51.47 1.01.68 1.51l.09.23c.42 1.03.82 2.13 1.17 3.26l.05.15.12.36.22.77.39 1.47.03.12a52.65 52.65 0 011.44 10.9l-.01 1.02-.05.49.06 21.6c.01.1.4 16.93-9.14 27.12-5.48 5.85-14.19 9.08-25.89 9.62h-.08zm-30.98-36.65c-.11 4.37 1.14 17.05 8.2 24.39 4.7 4.9 12.37 7.64 22.78 8.13 10.54-.5 18.27-3.3 22.97-8.32 8.19-8.74 8.04-24.02 8.03-24.17l-.06-1.83v-20.11l.06-.58v-.68a48.46 48.46 0 00-1.33-10l-.03-.15-.35-1.28-.04-.14a2.96 2.96 0 01-.09-.32l-.21-.68a37.44 37.44 0 00-1.06-2.94l-.11-.29c-.15-.36-.36-.79-.56-1.23l-.25-.52c-.19-.39-.4-.77-.61-1.15l-.39-.69a20.6 20.6 0 00-1.2-1.84l-.55-.75c-.28-.37-.6-.73-.91-1.08l-.38-.44c-.29-.3-.61-.59-.93-.88l-.22-.2-.35-.32-.38-.35c-.42-.35-.89-.66-1.36-.98l-.11-.08-.35-.25-.31-.22a29.74 29.74 0 00-2.19-1.22l-.24-.13a29.88 29.88 0 00-2.49-1.05l-.21-.09c-.84-.31-1.73-.57-2.5-.79l-.35-.11-.18-.06c-.83-.22-1.79-.43-2.9-.64l-.3-.06a45.39 45.39 0 00-3.56-.52l-.16-.02c-1.2-.13-2.48-.23-3.81-.29a54.1 54.1 0 00-7.42.82l-.38.08c-1.15.22-2.1.43-2.93.65l-.16.05a34.11 34.11 0 00-2.85.89l-.22.09-.36.15c-.71.27-1.46.57-2.14.91l-.26.14-.34.19a23.94 23.94 0 00-2.14 1.24l-.34.24c-.55.38-1.04.71-1.5 1.08l-.36.33-.36.33-.24.21c-.31.28-.62.55-.9.85l-.22.25-.18.21a18.33 18.33 0 00-2.07 2.7 18.85 18.85 0 00-1.01 1.67c-.21.38-.42.76-.61 1.15l-.24.5c-.22.48-.42.91-.6 1.34l-.12.28c-.33.81-.68 1.78-1.02 2.86l-.15.46-.09.34-.12.44c-.12.42-.24.84-.34 1.25a48.26 48.26 0 00-1.35 10.11v.73l.05.6-.04 21.79z" class="st4"/>
  </g>
  <g>
    <path d="M1131.55 184.42V299.5h9.38l-3.52 13.5 16.87 5.9 31.73-19.4V183.77l-.05-1.77c-.01-.15-.28-15.66 8.32-24.85 4.95-5.28 12.92-8.19 23.71-8.7 10.66.49 18.57 3.34 23.51 8.5 7.38 7.69 8.63 20.55 8.5 25.15l-.05.46V299.5h8.35l-1.14 5.91 14.81 12.49 31.75-18.56.69-114.92c.29-7.28.16-39.8-22.98-64.5-10.37-11.07-29.03-24.12-60.03-25.82v-.19c-1.16 0-2.3.02-3.43.05-1.12-.03-2.27-.05-3.43-.05v.19c-30.99 1.7-49.65 14.74-60.02 25.82-23.12 24.7-23.26 57.22-22.97 64.5z" class="st4"/>
    <path d="M1245.96 149.73c-10.37-11.07-29.03-24.12-60.03-25.82v-.19c-1.16 0-2.3.02-3.43.05-1.13-.03-2.27-.05-3.43-.05v.19c-12.46.68-22.89 3.22-31.63 6.7v-15.56h-51.76v191.52h.38v9.8h54.46V213.58l-.06-1.77c-.01-.15-.28-15.67 8.32-24.85 4.95-5.28 12.92-8.19 23.71-8.7 10.66.49 18.57 3.34 23.52 8.5 7.38 7.69 8.63 20.55 8.5 25.15l-.05.46v104h54.46V214.23c.31-7.29.18-39.8-22.96-64.5z" class="st5"/>
    <path d="M1245.96 149.73c-10.37-11.07-29.03-24.12-60.03-25.82v-.19c-1.16 0-2.3.02-3.43.05-1.13-.03-2.27-.05-3.43-.05v.19c-12.46.68-22.89 3.22-31.63 6.7v-15.56h-51.76v191.52h.38v9.8h54.46V213.58l-.06-1.77c-.01-.15-.28-15.67 8.32-24.85 4.95-5.28 12.92-8.19 23.71-8.7 10.66.49 18.57 3.34 23.52 8.5 7.38 7.69 8.63 20.55 8.5 25.15l-.05.46v104h54.46V214.23c.31-7.29.18-39.8-22.96-64.5z" class="st5"/>
    <path d="M1271 318.44h-58.59l.05-106.65c.11-4.23-1.1-16.48-7.93-23.59-4.54-4.73-11.96-7.38-22.03-7.86-10.2.49-17.67 3.19-22.21 8.04-7.92 8.45-7.77 23.22-7.77 23.37l.05 1.78v104.92h-58.59v-9.8h-.38V112.99h55.89v14.64a102.45 102.45 0 0127.5-5.65v-.31h2.06c1.18 0 2.34.02 3.48.05 1.04-.03 2.2-.05 3.37-.05h2.06v.31c30.73 2.18 49.27 15.46 59.47 26.34 23.88 25.49 23.8 59.44 23.54 65.99l.03 104.13zm-54.46-4.13h50.34V214.23c.25-6.34.33-38.8-22.43-63.09-9.89-10.56-28.09-23.49-58.63-25.17l-1.95-.17-1.31.03-1.42-.03v.06l-1.95.11c-11.18.61-21.6 2.82-30.98 6.56l-2.83 1.13v-16.54h-47.64v187.4h.38v9.8h50.34V213.58l-.05-1.71c-.01-.09-.41-16.41 8.88-26.32 5.32-5.67 13.77-8.82 25.12-9.35h.19c11.21.52 19.59 3.59 24.91 9.13 7.57 7.88 9.24 20.87 9.07 26.64l-.04.5v101.84z" class="st4"/>
    <path d="M1093.88 113.76l30.37-21.31h51.67v13.54l-27.18 22-1.29-12.94z" class="st4"/>
  </g>
  <g>
    <path d="M1435.95 136.15v-19.33h-54.46v19.98l.06 1.77c.01.15.28 15.67-8.32 24.85-4.95 5.28-12.92 8.2-23.71 8.7-10.66-.49-18.57-3.34-23.52-8.5-7.38-7.69-8.63-20.55-8.5-25.15l.04-.46v-21.19h-54.46v19.33c-.29 7.28-.16 39.8 22.98 64.5 7.63 8.14 19.75 17.35 37.95 22.33v89.83h51v-89.83c18.2-4.98 30.32-14.19 37.95-22.33 23.15-24.71 23.28-57.22 22.99-64.5z" class="st5"/>
    <path fill="none" stroke="#2912d6" stroke-miterlimit="10" stroke-width="4" d="M1435.95 136.15v-19.33h-54.46v19.98l.06 1.77c.01.15.28 15.67-8.32 24.85-4.95 5.28-12.92 8.2-23.71 8.7-10.66-.49-18.57-3.34-23.52-8.5-7.38-7.69-8.63-20.55-8.5-25.15l.04-.46v-21.19h-54.46v19.33c-.29 7.28-.16 39.8 22.98 64.5 7.63 8.14 19.75 17.35 37.95 22.33v89.83h51v-89.83c18.2-4.98 30.32-14.19 37.95-22.33 23.15-24.71 23.28-57.22 22.99-64.5z"/>
    <path d="M1263.08 116.81l30-19.93h54.67v43.33s-2.67 29.33 20.67 26.67c0 0-31.33 20-50-16.67l-.87-33.41h-54.47zM1378.41 115.55l32-18.67h57.33s.67 42.67-4.67 58c0 0-8 38.67-62.67 58 0 0 34-20.67 34.67-74l.87-22.07-57.53-1.26z" class="st4"/>
    <path d="M1407.08 297.22v-89s-20.13 11.51-32.07 14.75l.73 92.25 31.34-18z" class="st4"/>
  </g>
  <path d="M424.08 306.22v-104M603.74 186.22v46.67s0 31.67 29.67 36.67c0 0 12.67 2.33 22.33-1.67M1310.33 126.78v16.67s0 31.67 29.67 36.67c0 0 12.67 2.33 22.33-1.67M383.41 118.89h39.34v10.33M597.91 324.89h39.33v106.33s.5 36.67 39.5 36.67c0 0 10.67 0 15.33-2.67" class="st9"/>
  <path d="M1261.16 309.64c-.76 0-1.38-.61-1.38-1.38v-93.5c.23-5.82.3-35.72-20.67-58.1-9.12-9.73-25.89-21.66-54.02-23.2a1.34 1.34 0 01-.59-.17l-2.44.04c-.86-.02-1.69-.04-2.51-.04-.18.1-.38.16-.59.17a90.14 90.14 0 00-28.52 6.04c-.7.28-1.5-.06-1.79-.77-.28-.7.06-1.5.77-1.79a92.53 92.53 0 0128.72-6.19c.21-.14.46-.21.74-.21 1.07 0 2.13.02 3.18.04.97-.03 2.03-.04 3.1-.04.27 0 .52.08.74.21 28.64 1.74 45.82 14 55.21 24.03 21.72 23.18 21.64 54.08 21.41 60.04v93.45c.01.76-.6 1.37-1.36 1.37z" class="st2"/>
  <path d="M1142.08 309.22v-104M1101.41 121.89h39.34v10.33M1270.99 122.89h39.34v10.33" class="st9"/>
  <path d="M1292.16 511.64c-.76 0-1.38-.61-1.38-1.38v-93.5c.23-5.82.3-35.72-20.67-58.1-9.12-9.73-25.89-21.66-54.02-23.2a1.34 1.34 0 01-.59-.17c-.82 0-1.63.02-2.44.04-.86-.02-1.69-.04-2.51-.04-.18.1-.38.16-.59.17a89.87 89.87 0 00-28.52 6.04 1.38 1.38 0 11-1.02-2.56 92.53 92.53 0 0128.72-6.19c.21-.14.46-.21.74-.21 1.07 0 2.13.02 3.18.04.97-.03 2.03-.04 3.1-.04.27 0 .52.08.74.21 28.64 1.74 45.82 14 55.21 24.03 21.72 23.18 21.64 54.08 21.41 60.04v93.45c.01.76-.6 1.37-1.36 1.37z" class="st2"/>
  <path d="M1173.08 511.22v-104M1132.41 323.89h39.34v10.33" class="st9"/>
  <path d="M397.16 508.64c-.76 0-1.38-.61-1.38-1.38v-93.5c.23-5.82.3-35.72-20.67-58.1-9.12-9.73-25.89-21.66-54.02-23.2a1.34 1.34 0 01-.59-.17c-.82 0-1.63.02-2.44.04-.86-.02-1.69-.04-2.51-.04-.18.1-.38.16-.59.17a89.87 89.87 0 00-28.52 6.04 1.38 1.38 0 11-1.02-2.56 92.53 92.53 0 0128.72-6.19c.21-.14.46-.21.74-.21 1.07 0 2.13.02 3.18.04.97-.03 2.03-.04 3.1-.04.27 0 .52.08.74.21 28.64 1.74 45.82 14 55.21 24.03 21.72 23.18 21.64 54.08 21.41 60.04v93.45c.01.76-.6 1.37-1.36 1.37z" class="st2"/>
  <path d="M278.08 508.22v-104M237.41 320.89h39.34v10.33M565.08 121.89h39.33v10.33M743.41 120.89h39.34v98.33h66.33M782.75 263.89v41.33M854.08 120.89h39.33v183.33M681.41 237.22h34.33s1.33 27-24.34 54M1392.23 124.8h34.33s3.6 35.58-10.34 54M616.08 141.22h41.33v38.33M1028.08 434.55v-38.33h-38.33v-26M951.08 326.89h151.33v38.33M774.58 324.89h39.33v106.33s.5 36.67 39.5 36.67c0 0 10.67 0 15.33-2.67M887.75 448.88h42.33c0-1-3 17.33-19 35.67M711.08 448.88h42.33c0-1-3 17.33-19 35.67M1063.75 449.88h42.33c0-1-3 17.33-19 35.67M990.41 440.22s2 32.67 40 31c0 0 7.33-.33 11.33-1.67M480.58 330.72s49-7 74 23.5c0 0 31.5 32.5 18 102 0 0-3 13.5-10 22M459.58 394.72s-2 4.5-2 13v28s1.5 36.5 35.5 36.5c0 0 9.5 1 15.5-1.5M984.58 122.72s49-5 74 25.5c0 0 31.5 32.5 18 102 0 0-3 13.5-10 22M960.58 191.22s-2 4.5-2 13v28s1.5 36.5 35.5 36.5c0 0 9.5 1 15.5-1.5" class="st9"/>
  <g>
    <path fill="#08ffff" d="M1052.79 163.52l-.24-.06.39-1.49-.04-.01.06-.24.04.01.39-1.49.24.06-.39 1.49 6.65 1.73 3.32-12.78-20.19-5.25a2.6 2.6 0 01-5.02-1.3l-21.25-5.53-3.33 12.78 6.94 1.8-.06.24-6.94-1.8-2.52 9.67 21.25 5.53a2.6 2.6 0 015.02 1.31l20.19 5.25 2.52-9.67-6.65-1.73-.38 1.48zm-32.42-8.43l-.24-.06.84-3.23.24.06-.84 3.23z"/>
    <path fill="#f9f5ed" d="M1014.46 147.52l1.13-4.33 46.46 12.08-1.13 4.34z"/>
    <g opacity=".7">
      <path d="M1031.22 159.88a1.4 1.4 0 01-.28.59c-.13.17-.29.3-.48.4-.19.1-.41.16-.66.19-.25.03-.52.01-.81-.04l-.31.91-.03.05a.22.22 0 01-.05.03h-.09l-.14-.02-.15-.05-.09-.05-.04-.05.01-.06.31-.9a3.17 3.17 0 01-.87-.47.46.46 0 01-.12-.13.5.5 0 01-.04-.13 1.04 1.04 0 01.13-.46c.02-.03.04-.04.06-.05h.07c.04.01.09.04.14.1l.24.2a2.51 2.51 0 00.95.44c.4.09.73.09.98-.03.25-.11.4-.3.46-.58a.75.75 0 00-.02-.45 1.03 1.03 0 00-.24-.36 3 3 0 00-.38-.31l-.45-.29-.45-.32a1.67 1.67 0 01-.36-.39c-.1-.14-.17-.31-.21-.49-.04-.18-.03-.39.03-.63.04-.19.12-.36.22-.51.1-.15.24-.27.4-.37.16-.09.35-.16.57-.19.22-.03.46-.02.73.02l.29-.85.03-.04a.22.22 0 01.05-.03h.09l.14.03.15.05a.2.2 0 01.09.05l.03.05v.06l-.29.83c.08.03.17.06.26.11l.24.13c.08.04.14.09.2.14l.12.12a.3.3 0 01.04.08l.01.08-.01.09-.02.12-.04.14-.04.09-.05.04h-.05a.51.51 0 01-.14-.09l-.23-.18a2.39 2.39 0 00-.77-.36 2.5 2.5 0 00-.5-.06c-.14.01-.27.03-.37.08a.59.59 0 00-.24.2.86.86 0 00-.13.29c-.04.17-.04.32.02.46s.13.25.24.36c.11.11.24.21.39.31l.46.29c.16.1.31.21.45.32.15.11.27.24.37.38.1.14.17.31.21.49.04.17.03.38-.03.62zM1035.59 160.88c-.06.25-.16.47-.29.66-.14.18-.3.33-.5.44-.2.11-.43.17-.69.2a2.84 2.84 0 01-1.36-.24 3.87 3.87 0 01-.69-.41.73.73 0 01-.13-.13l-.04-.07-.01-.08v-.11l.03-.15c.02-.1.05-.17.08-.21.03-.04.06-.05.1-.04l.14.1.26.22.39.25c.15.08.33.15.53.19.19.04.37.06.53.05a.94.94 0 00.72-.38c.08-.11.13-.24.17-.38a.82.82 0 000-.44.91.91 0 00-.2-.39c-.1-.12-.23-.23-.4-.32a2.27 2.27 0 00-.59-.21l-.54-.13-.06-.03-.05-.06-.02-.1.02-.15.04-.13a.55.55 0 01.06-.08l.06-.03c.02 0 .05-.01.07 0l.48.11c.19.04.36.06.52.04a1.02 1.02 0 00.75-.39c.08-.11.15-.25.18-.41a.98.98 0 00.02-.34.8.8 0 00-.1-.31.94.94 0 00-.24-.25 1.32 1.32 0 00-.85-.19 2.3 2.3 0 00-.41.08c-.12.03-.22.06-.31.1-.08.03-.14.05-.17.04a.08.08 0 01-.05-.02.22.22 0 01-.03-.05.14.14 0 010-.09l.03-.15.03-.11.04-.08a.27.27 0 01.05-.06.43.43 0 01.07-.06l.19-.08a2.14 2.14 0 01.79-.11c.17 0 .34.03.52.07.26.06.48.14.65.25.18.11.32.24.42.39.1.15.17.32.19.5a1.65 1.65 0 01-.21 1.05 1.26 1.26 0 01-.68.57 1.5 1.5 0 01-.48.07v.01a1.53 1.53 0 01.83.64c.09.14.15.29.17.46.02.13.01.3-.03.48zM1037.43 162.48c-.05.2-.11.33-.2.38-.08.05-.21.06-.39.01-.17-.04-.28-.1-.33-.18-.05-.08-.05-.22-.01-.42.05-.2.11-.33.2-.38.08-.05.21-.06.39-.02.17.04.28.1.33.18.05.09.06.23.01.43zM1042 163.7l-.04.13-.05.09a.12.12 0 01-.07.05h-.08l-3.06-.71a.3.3 0 01-.1-.04.13.13 0 01-.06-.07c-.02-.03-.03-.06-.02-.11l.02-.16.04-.15a.37.37 0 01.05-.11l.08-.09.11-.09 1.37-.88c.32-.2.58-.39.78-.56.2-.17.37-.34.49-.49a1.9 1.9 0 00.4-.82.92.92 0 00-.09-.69.77.77 0 00-.25-.26 1.15 1.15 0 00-.39-.17c-.18-.04-.35-.06-.5-.04a3.86 3.86 0 00-.9.21.05.05 0 01-.05-.03.49.49 0 01-.03-.07v-.11l.03-.16.03-.11a.69.69 0 01.03-.08l.04-.06c.02-.02.04-.04.09-.06l.21-.08a2.3 2.3 0 01.8-.11c.16 0 .33.02.49.06.27.06.49.15.68.28.18.12.33.26.43.42.1.16.17.34.19.53.03.19.01.38-.03.58-.04.18-.1.35-.17.52-.07.17-.18.34-.33.52-.15.18-.35.37-.6.58-.25.21-.57.43-.96.69l-1.09.71 2.41.56.06.03.04.07a.3.3 0 01.01.1c.01.08 0 .12-.01.18zM1047.11 162.06l-.21.72a3.72 3.72 0 01-.73 1.24 2.1 2.1 0 01-.56.42c-.21.11-.45.18-.71.2a2.43 2.43 0 01-1.22-.18l-.3-.13c-.09-.04-.16-.09-.22-.13a.44.44 0 01-.12-.11.21.21 0 01-.04-.12c0-.05 0-.11.02-.18l.04-.15.04-.08a.05.05 0 01.05-.03h.06l.12.06.2.12c.08.05.18.09.29.14.11.05.24.09.39.12a1.46 1.46 0 001.34-.32c.17-.15.31-.34.43-.56.12-.22.21-.46.28-.73-.17.05-.37.09-.6.11-.23.02-.48 0-.75-.07a2 2 0 01-.75-.31 1.25 1.25 0 01-.57-1.04c-.01-.21.01-.44.07-.67.06-.25.15-.47.27-.67.12-.2.28-.37.47-.51.19-.13.41-.22.67-.27.26-.05.55-.03.88.04.23.05.43.13.59.23.16.1.3.22.41.36.11.14.19.3.24.48.06.17.09.37.1.58.01.21 0 .43-.03.67l-.15.77zm-.74-.25c.08-.37.13-.68.14-.94.01-.26-.02-.48-.07-.66s-.15-.31-.27-.41c-.12-.1-.27-.17-.45-.21a1.06 1.06 0 00-.5-.01.9.9 0 00-.39.2 1.34 1.34 0 00-.44.77c-.04.17-.06.33-.05.48a.82.82 0 00.35.69c.12.08.27.15.46.19.21.05.43.07.64.05.22-.03.41-.08.58-.15z"/>
    </g>
  </g>
  <g>
    <path fill="#f9f6f2" d="M543.88 475.31c-3.57-2.8-5.13-5.8-5.82-7.98l-.5-3.15h-.03l-62.63 10.06h-.03l.51 3.15c.03 2.29-.51 5.63-3.03 9.4 0 0-.59 1.45-.28 2.43.02 1.05 1.03 2.25 1.03 2.25 3.58 2.85 5.15 5.9 5.84 8.12l.51 3.2h.01l62.68-10.07h.01l-.51-3.2c-.04-2.32.5-5.71 3-9.54 0 0 .59-1.46.28-2.47-.02-1.01-1.04-2.2-1.04-2.2z"/>
    <path d="M475.12 474.21h-.03l.5 3.15c.03 2.29-.51 5.62-3.03 9.4 0 0-.59 1.44-.28 2.43.01 1.05 1.03 2.26 1.03 2.26 3.58 2.85 5.15 5.9 5.84 8.12l.51 3.2h.01l1.16-.19-4.59-28.56-1.12.19zM542.12 492.74h.03l-.51-3.15c-.03-2.29.51-5.63 3.03-9.4 0 0 .6-1.45.28-2.43-.01-1.05-1.03-2.25-1.03-2.25-3.58-2.85-5.15-5.9-5.84-8.12l-.51-3.2h-.01l-1.16.19 4.59 28.56 1.13-.2z" class="st14"/>
    <path d="M487.68 476.18l37.96-6.1M516.73 487.96l.65 2.92M516.64 487.98l.65 2.92M487.61 474.67l.48 2.96" class="st15"/>
    <path d="M521.96 476.73a.35.35 0 00-.18-.05.72.72 0 00-.25.01l-.46.08-.03 1.17.38-.07c.15-.03.28-.07.38-.13.1-.06.17-.13.23-.21a.64.64 0 00.1-.26.61.61 0 000-.27.34.34 0 00-.06-.15.19.19 0 00-.11-.12zM517.9 477.45l-.6 1.84 1.12-.19-.52-1.65zM504.51 479.86a.82.82 0 00-.33-.14 1.7 1.7 0 00-.5.01l-.42.07-.09 2.8.43-.07c.21-.04.39-.09.53-.17a1.4 1.4 0 00.58-.64 1.96 1.96 0 00.17-.84 1.84 1.84 0 00-.15-.76.56.56 0 00-.22-.26zM494.45 481.33l-.15-.01-.18.02-.36.06-.04 1.4.37-.07a1 1 0 00.29-.09.62.62 0 00.2-.15c.06-.06.1-.12.13-.19s.06-.14.07-.21a.78.78 0 00.03-.22c0-.07 0-.14-.02-.2a.45.45 0 00-.11-.24c-.04-.05-.13-.08-.23-.1z" class="st14"/>
    <path d="M531.58 473l-49.45 7.94 2.44 6.28 49.46-7.94-2.45-6.28zm-39.47 8.44v.22l-.02.11-.03.09c-.01.02-.03.04-.05.04-.03 0-.07 0-.11-.02a1.37 1.37 0 00-.69-.09.66.66 0 00-.27.1.5.5 0 00-.25.34c-.01.07-.02.13 0 .19.01.07.04.14.09.19.04.05.1.09.17.13l.24.1.26.1.27.12a1 1 0 01.44.41c.05.1.09.21.11.33a1.23 1.23 0 01-.28 1.05 1.82 1.82 0 01-1.12.6 2.53 2.53 0 01-.69 0 4.2 4.2 0 01-.24-.06.52.52 0 01-.15-.07c-.04-.03-.06-.07-.07-.13l-.01-.08V485l.01-.12.02-.11a.46.46 0 01.03-.09c.01-.02.03-.04.05-.04.03-.01.08 0 .13.03l.2.08c.08.03.17.05.27.06.11.02.23.01.36-.01a.87.87 0 00.52-.26.53.53 0 00.11-.21.65.65 0 00.01-.24.31.31 0 00-.09-.19c-.05-.05-.1-.1-.17-.13a1.6 1.6 0 00-.23-.1l-.26-.1-.26-.12a1.12 1.12 0 01-.43-.41 1.18 1.18 0 01-.08-.87c.05-.17.12-.32.24-.45.11-.14.25-.25.43-.34.17-.09.37-.16.58-.2.1-.02.2-.03.3-.02l.26.01a1.08 1.08 0 01.33.1l.06.05.02.08c-.01-.02-.01 0-.01.04zm3.56.38c0 .13-.03.26-.06.39-.04.13-.09.26-.17.38-.07.12-.17.24-.29.34-.12.1-.26.2-.42.28-.17.08-.37.14-.6.18l-.42.07-.04 1.32-.02.06c-.01.02-.04.04-.07.05-.03.02-.08.03-.13.04l-.2.04-.19.02h-.12c-.03-.01-.05-.01-.06-.03a.08.08 0 01-.02-.05l.11-3.7c0-.1.03-.18.08-.24s.12-.09.21-.11l.87-.15.29-.04.25-.01c.13 0 .25.02.36.06a1 1 0 01.29.15c.08.07.15.15.21.24a1.5 1.5 0 01.14.71zm2.99-1.7V480.35l-.02.12c-.01.04-.02.07-.04.09-.02.03-.04.04-.06.04l-1.42.24-.03 1.01 1.21-.21c.03-.01.05 0 .07.02.01.02.03.04.03.08l.01.07.01.1-.01.12-.02.12-.04.09c-.01.03-.04.04-.06.04l-1.2.2-.04 1.16 1.43-.25c.03 0 .05 0 .07.02.01.02.03.05.03.09l.01.07v.11l-.01.12-.02.12c-.01.04-.02.07-.04.09-.02.02-.04.04-.06.04l-2 .34h-.09c-.03 0-.05-.01-.08-.03a.18.18 0 01-.05-.07.37.37 0 01-.02-.12l.1-3.58c0-.09.03-.16.08-.21a.31.31 0 01.18-.09l1.98-.34c.05-.01.09.02.1.1v.07zm3.07-.52V479.83l-.02.12c0 .04-.02.07-.04.1-.02.02-.04.04-.06.04l-1.42.24-.03 1 1.2-.2c.03-.01.05 0 .07.02.01.02.03.04.03.08l.01.07V481.53l-.02.11c-.01.04-.02.07-.04.09-.02.03-.04.04-.06.04l-1.2.2-.04 1.16 1.44-.25c.03 0 .04 0 .06.02.02.02.03.05.03.09l.01.07V483.29l-.02.12-.04.09c-.02.02-.04.04-.07.04l-2 .34h-.09c-.03 0-.05-.01-.08-.04a.18.18 0 01-.05-.07.37.37 0 01-.02-.12l.11-3.58c0-.09.03-.17.08-.22a.32.32 0 01.17-.09l1.98-.34c.05-.01.09.03.1.1l.01.08zm3.99 1.02c.01.14.01.28-.01.43-.01.15-.04.3-.07.45a2.32 2.32 0 01-.42.85 2.18 2.18 0 01-.89.64c-.2.08-.43.14-.71.19l-1.01.17h-.1a.11.11 0 01-.08-.03.18.18 0 01-.05-.07.37.37 0 01-.02-.12l.1-3.58c0-.09.03-.17.08-.21a.31.31 0 01.18-.09l.96-.16c.32-.05.58-.07.81-.04.22.03.41.09.58.19.16.1.3.23.4.39.1.17.17.37.21.61l.04.38zm3.31-2.31l-.08.18-1.16 2.43-.04 1.45-.02.06c-.01.02-.04.04-.07.05-.03.02-.08.03-.13.04l-.2.04a2.6 2.6 0 00-.19.03h-.12c-.03 0-.05-.01-.06-.03l-.02-.05.04-1.45-1.02-2.06-.07-.17c-.01-.04-.01-.08.01-.1.02-.03.06-.05.12-.06l.26-.06.2-.03h.12a.1.1 0 01.07.03l.04.07.43.91.14.31.12.31h.01l.13-.36.14-.35.47-1.08.04-.07a.18.18 0 01.07-.05.34.34 0 01.12-.04l.22-.05.27-.03c.06 0 .11 0 .13.03.04.03.04.06.03.1zm6.43 2.81a.12.12 0 01-.05.05.34.34 0 01-.12.04l-.19.04a2.6 2.6 0 00-.19.03h-.12a.16.16 0 01-.06-.03l-.02-.05.1-3.35h-.01l-1.25 3.54a.24.24 0 01-.13.13 1.3 1.3 0 01-.58.09c-.06-.01-.1-.04-.11-.07l-1.02-3.16-.1 3.35-.02.06a.1.1 0 01-.06.05.34.34 0 01-.12.04l-.19.04-.19.03-.12-.01c-.03-.01-.05-.01-.06-.03-.01-.02-.02-.04-.01-.06l.1-3.66.03-.15c.01-.05.04-.09.06-.12a.25.25 0 01.1-.08.28.28 0 01.13-.04l.51-.08c.09-.02.17-.02.23-.02.07 0 .12.02.17.05.05.03.09.08.12.13l.08.21.79 2.3h.02l.96-2.6c.03-.09.05-.16.09-.23.03-.07.07-.12.11-.17.04-.05.1-.08.16-.11l.21-.07.57-.1h.13a.2.2 0 01.1.05c.03.02.05.06.06.1l.02.14-.1 3.67-.03.05zm4.16-.68a.26.26 0 01-.13.06 1.2 1.2 0 01-.26.05 2.6 2.6 0 00-.19.03.24.24 0 01-.12 0c-.03 0-.05-.01-.06-.03l-.03-.06-.24-.78-1.49.25-.28.85-.04.08a.43.43 0 01-.07.06l-.14.05-.22.05-.22.03c-.05 0-.09-.01-.11-.03-.02-.02-.03-.05-.02-.1.01-.04.02-.11.05-.18l1.33-3.86a.2.2 0 01.05-.09c.02-.02.04-.05.08-.06a.53.53 0 01.15-.05l.25-.05.29-.04.17-.01c.04 0 .07.02.09.04.02.02.03.05.04.09l1.12 3.44.04.17c0 .02-.01.06-.04.09zm3.36-3.34a1.23 1.23 0 01-.36.75c-.11.11-.24.21-.41.3.11.02.2.09.29.19.09.1.17.25.24.45l.3.78.04.12.02.09-.01.05c-.01.02-.03.03-.07.05l-.14.05-.23.04a2.6 2.6 0 00-.21.03l-.13-.01c-.03 0-.05-.02-.06-.03l-.03-.06-.3-.85c-.03-.1-.07-.19-.11-.26a.86.86 0 00-.14-.18.5.5 0 00-.18-.09.88.88 0 00-.23 0l-.25.04-.05 1.57-.02.06c-.01.02-.04.04-.07.05l-.13.05-.2.04-.19.02h-.12c-.03 0-.05-.01-.06-.03l-.02-.06.11-3.74c0-.09.03-.16.07-.21a.31.31 0 01.19-.09l1.07-.18c.19-.03.36-.04.51-.04.16.01.3.04.41.1.12.05.22.13.29.23.08.1.12.22.15.37a.9.9 0 01.03.4zm3.36-1.67v.11l-.01.13-.02.12c-.01.04-.02.07-.04.09-.02.03-.04.04-.06.05l-1 .17-.1 3.31-.02.06c-.01.02-.04.04-.07.05l-.12.05-.2.04-.19.02h-.12c-.03 0-.05-.02-.06-.03a.08.08 0 01-.02-.05l.09-3.31-.99.17c-.03.01-.05 0-.07-.02-.02-.02-.03-.05-.03-.09l-.01-.07v-.11l.01-.13.02-.12c.01-.04.02-.07.04-.09.02-.03.04-.04.06-.04l2.8-.48c.02 0 .04 0 .06.02l.04.09.01.06z" class="st14"/>
    <g opacity=".3">
      <path d="M508.52 492.1a1.91 1.91 0 01-.15.89 1.8 1.8 0 01-.68.78c-.16.11-.35.2-.57.27-.21.07-.46.12-.74.15-.15.01-.29.02-.42.01a2.1 2.1 0 01-.69-.12 1.1 1.1 0 01-.27-.12.18.18 0 01-.1-.09l-.04-.12v-.07-.1l.01-.11.02-.11.04-.08.06-.04c.03 0 .08.02.15.06l.28.12c.12.05.25.08.4.12.16.03.33.04.52.02.25-.02.45-.08.63-.17a1.24 1.24 0 00.7-1.19.75.75 0 00-.31-.57.95.95 0 00-.38-.15 1.86 1.86 0 00-.54-.02l-.61.05a.18.18 0 01-.11-.03c-.03-.02-.04-.06-.05-.12v-.08l.01-.1.02-.1.04-.09.06-.07a.11.11 0 01.08-.03l.49-.04c.22-.02.41-.07.59-.15.18-.08.32-.19.44-.31a1.2 1.2 0 00.34-.93.66.66 0 00-.22-.47c-.13-.11-.33-.15-.61-.13-.17.01-.32.05-.47.12a2.98 2.98 0 00-.7.4c-.08.06-.14.09-.18.09-.03 0-.05-.01-.06-.03-.02-.02-.03-.06-.03-.1v-.1l.02-.14.04-.15a.35.35 0 01.07-.12l.18-.14.33-.19a2.88 2.88 0 01.95-.27 2 2 0 01.61.03 1.05 1.05 0 01.87 1.02 1.57 1.57 0 01-.29 1.08c-.11.15-.24.29-.4.4-.16.12-.33.2-.53.26v.01c.19 0 .36.03.5.09a.99.99 0 01.56.57c.1.15.13.28.14.41zM511.44 493v.14l-.02.17-.04.17c-.02.05-.04.1-.07.13a.28.28 0 01-.14.09 1.1 1.1 0 01-.44.05c-.05-.01-.1-.02-.13-.05a.55.55 0 01-.07-.09.28.28 0 01-.03-.13v-.16l.02-.17.04-.16a.54.54 0 01.07-.13.25.25 0 01.13-.09.73.73 0 01.25-.05.74.74 0 01.21 0c.05.01.09.03.12.05.03.02.05.06.07.09.02.05.03.09.03.14zM517.03 492.72v.07l-.01.1-.02.1a.3.3 0 01-.04.1c-.01.03-.04.05-.06.07a.11.11 0 01-.08.03l-3.13.27-.1-.01a.16.16 0 01-.06-.03c-.02-.01-.03-.03-.04-.06l-.02-.07v-.11l.02-.16a.68.68 0 01.19-.35l1.35-1.41a8.81 8.81 0 00.91-1.13 2.7 2.7 0 00.36-.8c.03-.11.04-.2.05-.29v-.23a.63.63 0 00-.05-.22.57.57 0 00-.13-.21.6.6 0 00-.24-.16 1.26 1.26 0 00-.85.08 2.98 2.98 0 00-.69.39c-.08.06-.13.09-.17.09-.03 0-.05-.01-.07-.04a.34.34 0 01-.04-.12v-.08l.01-.09.01-.1.03-.09.04-.09a.22.22 0 01.05-.08 2.45 2.45 0 01.51-.32 2.77 2.77 0 01.94-.27c.28-.03.52-.01.71.06.19.06.34.15.46.26.12.11.2.23.26.37.05.14.09.27.1.39l.01.37a2.2 2.2 0 01-.25.87c-.08.16-.18.34-.31.53a8.87 8.87 0 01-1.17 1.38l-1.01 1.03 2.42-.21c.05 0 .08.01.11.05v.12zM519.18 489.56a2.93 2.93 0 01.13-1.05c.06-.18.14-.35.24-.52a1.86 1.86 0 01.95-.78 2.3 2.3 0 011.42-.11c.19.06.35.16.48.29.13.12.23.28.3.47.07.19.11.39.13.62l.02.45c.01.18 0 .39-.02.61-.01.23-.05.46-.09.72a5.2 5.2 0 01-.53 1.46 2.68 2.68 0 01-1.18 1.08c-.26.12-.57.2-.92.23l-.28.01a2.11 2.11 0 01-.49-.06l-.19-.04a.35.35 0 01-.15-.08c-.03-.03-.04-.07-.05-.12v-.07-.1l.02-.1.03-.09a.16.16 0 01.04-.07l.06-.03c.03 0 .08 0 .13.02l.21.05a2.4 2.4 0 00.68.04 1.79 1.79 0 001.3-.71c.15-.2.27-.42.36-.67.09-.25.16-.52.21-.8a3.03 3.03 0 01-1.3.46 1.9 1.9 0 01-.65-.04 1.01 1.01 0 01-.74-.59c-.06-.15-.1-.31-.12-.48zm.76-.16c.01.11.03.21.07.29.04.09.09.16.17.22.07.06.16.1.27.13.11.02.24.03.39.02l.33-.05a3 3 0 00.89-.42l.04-.56-.01-.44c-.03-.36-.12-.61-.28-.75-.15-.14-.37-.2-.63-.18a1.19 1.19 0 00-.75.34 1.73 1.73 0 00-.4.68c-.04.13-.07.25-.08.38-.02.1-.02.22-.01.34z"/>
    </g>
    <text font-family="Calibri-BoldItalic" font-size="11.29" opacity=".36" transform="rotate(-12.55 2504.26 -2008.4)">
      $
    </text>
  </g>
  <path d="M1365.7 224.89v81.33" class="st9"/>
</svg>