<!-- Generator: Adobe Illustrator 23.0.1, SVG Export Plug-In  -->
<svg version="1.1" xmlns="http://www.w3.org/2000/svg" xmlns:xlink="http://www.w3.org/1999/xlink" x="0px" y="0px" width="86.59px"
	 height="84.29px" viewBox="0 0 86.59 84.29" style="enable-background:new 0 0 86.59 84.29;" xml:space="preserve">
<style type="text/css">
	.st0{fill:#FF00BD;}
	.st1{fill:#F9F5ED;}
	.st2{opacity:0.4;}
	.st3{opacity:0.45;}
</style>
<defs>
</defs>
<path class="st0" d="M74.33,1.34H68.9c-0.21-0.34-0.52-0.57-0.9-0.57c-0.37,0-0.69,0.23-0.9,0.57h-6.65
	c-0.16-0.56-0.57-0.96-1.07-0.96c-0.63,0-1.15,0.64-1.15,1.44c0,0.02,0.01,0.04,0.01,0.06l-0.78,2.52H29.12l-0.94-3.07h-0.03
	C28.1,0.59,27.62,0,27.01,0c-0.61,0-1.09,0.59-1.13,1.34h-4.31C21.41,0.79,21,0.38,20.5,0.38s-0.91,0.4-1.07,0.96h-7.17L0,15.13
	v55.94l13.03,12.26h4.87c0.16,0.56,0.57,0.96,1.07,0.96c0.5,0,0.91-0.4,1.07-0.96h4.48c0.2,0.23,0.47,0.38,0.77,0.38
	c0.3,0,0.56-0.15,0.77-0.38h2.12l0.94-3.07h28.35l0.94,3.07h7.49c0.2,0.23,0.47,0.38,0.77,0.38s0.56-0.15,0.77-0.38h6.13
	l13.03-13.79V15.13L74.33,1.34z"/>
<g>
	<path class="st1" d="M53.46,17.48c-0.08-0.02-0.18-0.04-0.29-0.05c-0.11-0.01-0.25-0.02-0.44-0.02l-0.74,0L52,19.72l0.84,0
		c0.23,0,0.44-0.03,0.62-0.09c0.18-0.06,0.32-0.14,0.44-0.24c0.12-0.1,0.21-0.23,0.26-0.37c0.06-0.14,0.09-0.3,0.09-0.48
		c0-0.27-0.06-0.49-0.18-0.68C53.94,17.69,53.74,17.56,53.46,17.48z"/>
	<path class="st1" d="M46.81,17.65c-0.15-0.09-0.3-0.14-0.46-0.16c-0.16-0.02-0.33-0.03-0.5-0.03l-0.7,0l0.01,2.76l0.74,0
		c0.26,0,0.48-0.04,0.66-0.11c0.18-0.07,0.32-0.17,0.44-0.3c0.11-0.13,0.2-0.28,0.26-0.46c0.06-0.18,0.09-0.37,0.09-0.58
		c0-0.28-0.05-0.52-0.15-0.7C47.08,17.87,46.96,17.74,46.81,17.65z"/>
	<polygon class="st1" points="24,17.79 22.86,21.25 25.17,21.24 24.01,17.79 	"/>
	<path class="st1" d="M82.4,10.42L3.98,10.65L0,15.13v14.69l86.59-0.25V15.13L82.4,10.42z M19.75,23.07
		c-0.16,0.32-0.37,0.59-0.64,0.81c-0.27,0.22-0.59,0.38-0.95,0.49c-0.37,0.11-0.75,0.17-1.17,0.17c-0.28,0-0.54-0.02-0.78-0.07
		c-0.24-0.04-0.45-0.1-0.64-0.16c-0.18-0.06-0.34-0.13-0.46-0.2c-0.12-0.07-0.21-0.13-0.27-0.19c-0.05-0.05-0.09-0.13-0.12-0.24
		c-0.02-0.1-0.03-0.25-0.03-0.44c0-0.13,0-0.24,0.01-0.33c0.01-0.09,0.02-0.16,0.04-0.21c0.02-0.05,0.04-0.09,0.07-0.12
		c0.03-0.02,0.07-0.03,0.11-0.03c0.06,0,0.14,0.03,0.25,0.1c0.11,0.07,0.25,0.14,0.41,0.23c0.17,0.08,0.37,0.16,0.6,0.23
		c0.23,0.07,0.5,0.1,0.81,0.1c0.2,0,0.38-0.03,0.54-0.07c0.16-0.05,0.29-0.12,0.41-0.21c0.11-0.09,0.2-0.2,0.25-0.33
		c0.06-0.13,0.09-0.27,0.09-0.43c0-0.18-0.05-0.34-0.15-0.47c-0.1-0.13-0.23-0.25-0.39-0.35c-0.16-0.1-0.35-0.2-0.55-0.29
		c-0.21-0.09-0.42-0.18-0.63-0.28c-0.22-0.1-0.43-0.21-0.64-0.34c-0.21-0.13-0.39-0.28-0.55-0.46c-0.16-0.18-0.29-0.39-0.4-0.63
		c-0.1-0.24-0.15-0.53-0.15-0.87c0-0.39,0.07-0.73,0.21-1.03c0.14-0.29,0.34-0.54,0.58-0.74c0.24-0.2,0.53-0.34,0.87-0.44
		c0.33-0.1,0.68-0.15,1.06-0.15c0.19,0,0.38,0.01,0.58,0.04c0.19,0.03,0.37,0.07,0.54,0.12c0.17,0.05,0.32,0.1,0.45,0.17
		c0.13,0.06,0.22,0.11,0.26,0.16c0.04,0.04,0.07,0.08,0.09,0.11c0.02,0.03,0.03,0.07,0.04,0.12c0.01,0.05,0.02,0.11,0.02,0.18
		c0,0.07,0.01,0.16,0.01,0.27c0,0.12,0,0.22-0.01,0.31c0,0.08-0.01,0.15-0.03,0.21c-0.02,0.05-0.04,0.09-0.06,0.12
		c-0.03,0.03-0.06,0.04-0.11,0.04c-0.05,0-0.12-0.03-0.22-0.09c-0.1-0.06-0.22-0.12-0.37-0.19c-0.15-0.07-0.32-0.13-0.51-0.19
		c-0.19-0.06-0.4-0.08-0.63-0.08c-0.18,0-0.34,0.02-0.47,0.07c-0.13,0.04-0.25,0.1-0.34,0.18c-0.09,0.08-0.15,0.17-0.2,0.28
		c-0.04,0.11-0.07,0.22-0.06,0.35c0,0.18,0.05,0.34,0.15,0.47c0.1,0.13,0.23,0.25,0.4,0.35c0.17,0.1,0.35,0.2,0.56,0.29
		c0.21,0.09,0.42,0.18,0.64,0.28c0.22,0.1,0.43,0.21,0.64,0.34c0.21,0.13,0.4,0.28,0.56,0.46c0.16,0.18,0.3,0.39,0.4,0.63
		c0.1,0.24,0.15,0.52,0.15,0.85C19.99,22.37,19.91,22.75,19.75,23.07z M27.8,24.3c-0.05,0.04-0.13,0.07-0.25,0.08
		c-0.12,0.01-0.28,0.02-0.48,0.02c-0.21,0-0.38,0-0.5-0.01c-0.12-0.01-0.21-0.02-0.27-0.04c-0.06-0.02-0.11-0.04-0.13-0.08
		c-0.03-0.03-0.05-0.08-0.06-0.13l-0.55-1.63l-3.05,0.01l-0.51,1.59c-0.02,0.06-0.04,0.11-0.07,0.15c-0.03,0.04-0.07,0.07-0.13,0.1
		c-0.06,0.02-0.15,0.04-0.26,0.05c-0.11,0.01-0.26,0.01-0.44,0.01c-0.19,0-0.34,0-0.45-0.02c-0.11-0.01-0.19-0.04-0.23-0.09
		c-0.04-0.05-0.06-0.12-0.04-0.21c0.01-0.09,0.04-0.21,0.09-0.35l2.48-7.22c0.03-0.07,0.06-0.13,0.09-0.17
		c0.03-0.04,0.09-0.08,0.16-0.1c0.07-0.02,0.18-0.04,0.31-0.05c0.13-0.01,0.3-0.01,0.51-0.01c0.25,0,0.44,0,0.59,0.01
		c0.15,0.01,0.26,0.02,0.34,0.04c0.08,0.02,0.14,0.06,0.18,0.1c0.04,0.05,0.07,0.11,0.09,0.19l2.54,7.2
		c0.05,0.15,0.08,0.27,0.09,0.36C27.87,24.19,27.85,24.26,27.8,24.3z M33.34,23.97c-0.01,0.09-0.03,0.16-0.05,0.21
		c-0.02,0.06-0.05,0.1-0.08,0.12c-0.03,0.03-0.07,0.04-0.11,0.04l-3.72,0.01c-0.14,0-0.25-0.04-0.35-0.12
		c-0.1-0.08-0.14-0.21-0.14-0.4l-0.02-7.38c0-0.04,0.01-0.08,0.04-0.11c0.03-0.03,0.07-0.06,0.13-0.08
		c0.06-0.02,0.15-0.04,0.25-0.05c0.11-0.02,0.24-0.02,0.4-0.02c0.16,0,0.3,0,0.4,0.02c0.1,0.01,0.19,0.03,0.25,0.05
		c0.06,0.02,0.11,0.05,0.13,0.08c0.03,0.03,0.04,0.07,0.04,0.11l0.02,6.54l2.56-0.01c0.04,0,0.08,0.01,0.11,0.03
		c0.03,0.02,0.06,0.06,0.08,0.11c0.02,0.05,0.04,0.12,0.05,0.21c0.01,0.09,0.01,0.19,0.01,0.32C33.36,23.78,33.36,23.88,33.34,23.97
		z M39.13,23.98c-0.01,0.08-0.03,0.15-0.05,0.2c-0.02,0.05-0.05,0.09-0.08,0.11c-0.03,0.02-0.07,0.04-0.1,0.04l-4.08,0.01
		c-0.14,0-0.25-0.04-0.35-0.12c-0.1-0.08-0.14-0.21-0.14-0.4l-0.02-7.09c0-0.18,0.04-0.32,0.14-0.4c0.09-0.08,0.21-0.12,0.35-0.12
		l4.06-0.01c0.04,0,0.07,0.01,0.1,0.03c0.03,0.02,0.05,0.06,0.07,0.11c0.02,0.05,0.04,0.12,0.05,0.2c0.01,0.08,0.02,0.19,0.02,0.31
		c0,0.12,0,0.22-0.01,0.3c-0.01,0.08-0.03,0.15-0.05,0.2c-0.02,0.05-0.05,0.09-0.07,0.11c-0.03,0.03-0.06,0.04-0.1,0.04l-2.9,0.01
		l0.01,1.99l2.46-0.01c0.04,0,0.07,0.01,0.1,0.03c0.03,0.02,0.06,0.06,0.08,0.11c0.02,0.05,0.04,0.11,0.05,0.19
		c0.01,0.08,0.02,0.18,0.02,0.3c0,0.12,0,0.22-0.01,0.3c-0.01,0.08-0.03,0.14-0.05,0.19c-0.02,0.05-0.04,0.08-0.08,0.1
		c-0.03,0.02-0.07,0.03-0.1,0.03l-2.46,0.01l0.01,2.29l2.93-0.01c0.04,0,0.07,0.01,0.1,0.03c0.03,0.02,0.06,0.06,0.08,0.11
		c0.02,0.05,0.04,0.12,0.05,0.2c0.01,0.08,0.02,0.18,0.02,0.3C39.15,23.8,39.14,23.9,39.13,23.98z M48.85,19.85
		c-0.14,0.35-0.35,0.65-0.62,0.89c-0.27,0.24-0.6,0.43-1,0.55c-0.4,0.13-0.86,0.19-1.4,0.19l-0.68,0l0.01,2.6
		c0,0.04-0.01,0.08-0.04,0.11c-0.03,0.03-0.07,0.06-0.13,0.08c-0.06,0.02-0.15,0.04-0.25,0.05c-0.1,0.01-0.24,0.02-0.4,0.02
		c-0.16,0-0.29-0.01-0.4-0.02c-0.11-0.01-0.19-0.03-0.25-0.05c-0.06-0.02-0.11-0.05-0.13-0.08c-0.03-0.03-0.04-0.07-0.04-0.11
		l-0.02-7.32c0-0.2,0.05-0.34,0.15-0.44c0.1-0.1,0.24-0.15,0.41-0.15l1.92,0c0.19,0,0.38,0.01,0.55,0.02
		c0.17,0.01,0.38,0.05,0.63,0.09c0.24,0.05,0.49,0.14,0.74,0.26c0.25,0.13,0.46,0.29,0.64,0.49c0.18,0.2,0.31,0.43,0.4,0.7
		c0.09,0.27,0.14,0.56,0.14,0.89C49.07,19.09,48.99,19.5,48.85,19.85z M56.36,24.18c-0.02,0.03-0.06,0.06-0.12,0.08
		c-0.06,0.02-0.16,0.04-0.28,0.05c-0.12,0.01-0.29,0.01-0.5,0.01c-0.18,0-0.32,0-0.42-0.01c-0.1-0.01-0.19-0.02-0.25-0.05
		c-0.06-0.02-0.1-0.05-0.13-0.09c-0.02-0.04-0.05-0.08-0.06-0.13l-0.73-1.81c-0.09-0.21-0.18-0.39-0.26-0.55
		c-0.09-0.16-0.18-0.29-0.28-0.4c-0.1-0.11-0.22-0.19-0.36-0.24c-0.13-0.05-0.29-0.08-0.47-0.08l-0.51,0l0.01,3.1
		c0,0.04-0.01,0.08-0.04,0.11c-0.03,0.03-0.07,0.06-0.13,0.08c-0.06,0.02-0.15,0.04-0.25,0.05c-0.1,0.01-0.24,0.02-0.4,0.02
		c-0.16,0-0.29,0-0.4-0.02c-0.11-0.01-0.19-0.03-0.25-0.05c-0.06-0.02-0.11-0.05-0.13-0.08c-0.03-0.03-0.04-0.07-0.04-0.11
		l-0.02-7.38c0-0.18,0.04-0.32,0.14-0.4c0.09-0.08,0.21-0.12,0.35-0.12l2.1-0.01c0.21,0,0.39,0,0.53,0.01
		c0.14,0.01,0.26,0.02,0.38,0.03c0.33,0.04,0.62,0.12,0.88,0.24c0.26,0.11,0.48,0.26,0.67,0.44c0.18,0.18,0.32,0.4,0.42,0.65
		c0.1,0.25,0.15,0.53,0.15,0.86c0,0.27-0.03,0.52-0.1,0.75c-0.07,0.22-0.17,0.42-0.3,0.6c-0.13,0.18-0.3,0.33-0.49,0.46
		c-0.2,0.13-0.42,0.23-0.67,0.32c0.12,0.06,0.24,0.13,0.34,0.21c0.11,0.08,0.21,0.19,0.3,0.31c0.1,0.12,0.18,0.25,0.27,0.41
		c0.08,0.15,0.17,0.33,0.25,0.52l0.69,1.6c0.06,0.16,0.11,0.28,0.13,0.35c0.02,0.07,0.03,0.13,0.03,0.17
		C56.39,24.11,56.38,24.15,56.36,24.18z M59.22,24.15c-0.03,0.03-0.07,0.06-0.13,0.08c-0.06,0.02-0.15,0.04-0.25,0.05
		c-0.1,0.01-0.24,0.02-0.4,0.02c-0.16,0-0.29-0.01-0.4-0.02c-0.11-0.01-0.19-0.03-0.25-0.05c-0.06-0.02-0.11-0.05-0.13-0.08
		c-0.03-0.03-0.04-0.07-0.04-0.11l-0.02-7.68c0-0.04,0.01-0.08,0.04-0.11c0.03-0.03,0.07-0.06,0.14-0.08
		c0.07-0.02,0.15-0.04,0.25-0.05c0.1-0.01,0.24-0.02,0.4-0.02c0.16,0,0.3,0,0.4,0.02c0.1,0.01,0.19,0.03,0.25,0.05
		c0.06,0.02,0.11,0.05,0.13,0.08c0.03,0.03,0.04,0.07,0.04,0.11l0.02,7.68C59.26,24.08,59.25,24.12,59.22,24.15z M66.64,23.28
		c-0.01,0.07-0.02,0.14-0.03,0.19c-0.01,0.05-0.03,0.1-0.05,0.14c-0.02,0.04-0.06,0.08-0.1,0.13c-0.04,0.05-0.13,0.11-0.27,0.19
		c-0.13,0.08-0.29,0.15-0.48,0.22c-0.19,0.07-0.41,0.13-0.65,0.18c-0.25,0.05-0.51,0.07-0.79,0.07c-0.56,0-1.06-0.08-1.51-0.25
		c-0.45-0.17-0.83-0.43-1.15-0.76c-0.32-0.34-0.56-0.77-0.73-1.28c-0.17-0.51-0.25-1.11-0.26-1.79c0-0.69,0.09-1.31,0.27-1.84
		c0.18-0.54,0.44-0.99,0.77-1.35c0.33-0.36,0.72-0.64,1.19-0.83c0.46-0.19,0.97-0.29,1.53-0.29c0.23,0,0.44,0.02,0.66,0.06
		c0.21,0.04,0.4,0.09,0.58,0.15c0.18,0.06,0.34,0.13,0.48,0.21c0.14,0.08,0.24,0.15,0.3,0.2c0.06,0.06,0.1,0.1,0.12,0.14
		c0.02,0.04,0.04,0.09,0.05,0.15c0.01,0.06,0.02,0.13,0.03,0.21c0.01,0.08,0.01,0.18,0.01,0.3c0,0.13,0,0.23-0.01,0.32
		c-0.01,0.09-0.02,0.16-0.04,0.21c-0.02,0.05-0.05,0.09-0.07,0.12c-0.03,0.03-0.06,0.04-0.1,0.04c-0.06,0-0.14-0.04-0.24-0.11
		c-0.1-0.07-0.22-0.15-0.37-0.25c-0.15-0.09-0.34-0.17-0.55-0.24c-0.21-0.07-0.46-0.11-0.76-0.11c-0.32,0-0.61,0.07-0.86,0.2
		c-0.25,0.13-0.47,0.32-0.65,0.57c-0.18,0.25-0.31,0.54-0.4,0.89c-0.09,0.35-0.14,0.74-0.13,1.18c0,0.48,0.05,0.89,0.15,1.24
		c0.1,0.35,0.24,0.64,0.42,0.86c0.18,0.23,0.4,0.39,0.66,0.5c0.26,0.11,0.55,0.17,0.87,0.17c0.29,0,0.55-0.04,0.76-0.11
		c0.21-0.07,0.4-0.15,0.55-0.23c0.15-0.08,0.28-0.16,0.37-0.23c0.1-0.07,0.18-0.1,0.23-0.1c0.04,0,0.07,0.01,0.1,0.03
		c0.03,0.02,0.05,0.05,0.06,0.1c0.02,0.05,0.03,0.12,0.04,0.21c0.01,0.09,0.01,0.21,0.01,0.36C66.65,23.12,66.65,23.21,66.64,23.28z
		 M72.64,23.88c-0.01,0.08-0.03,0.15-0.05,0.2c-0.02,0.05-0.05,0.09-0.08,0.11c-0.03,0.02-0.07,0.03-0.1,0.03l-4.08,0.01
		c-0.14,0-0.25-0.04-0.35-0.12c-0.1-0.08-0.14-0.21-0.14-0.4l-0.02-7.09c0-0.18,0.04-0.32,0.14-0.4s0.21-0.12,0.35-0.12l4.06-0.01
		c0.04,0,0.07,0.01,0.1,0.03c0.03,0.02,0.05,0.06,0.07,0.11c0.02,0.05,0.04,0.12,0.05,0.2c0.01,0.08,0.02,0.19,0.02,0.31
		c0,0.12,0,0.22-0.01,0.3c-0.01,0.08-0.03,0.15-0.05,0.2c-0.02,0.05-0.05,0.09-0.07,0.11c-0.03,0.02-0.06,0.03-0.1,0.03l-2.9,0.01
		l0.01,1.99l2.46-0.01c0.04,0,0.07,0.01,0.1,0.03c0.03,0.02,0.06,0.06,0.08,0.11c0.02,0.05,0.04,0.11,0.05,0.19
		c0.01,0.08,0.02,0.18,0.02,0.3c0,0.12,0,0.22-0.01,0.3c-0.01,0.08-0.03,0.14-0.05,0.19c-0.02,0.05-0.04,0.08-0.08,0.1
		c-0.03,0.02-0.07,0.03-0.1,0.03l-2.46,0.01l0.01,2.29l2.93-0.01c0.04,0,0.07,0.01,0.1,0.03c0.03,0.02,0.06,0.06,0.08,0.11
		c0.02,0.05,0.04,0.12,0.05,0.2c0.01,0.08,0.02,0.18,0.02,0.3C72.65,23.7,72.65,23.8,72.64,23.88z"/>
	<path class="st1" d="M54.16,19.03c-0.06,0.14-0.15,0.27-0.26,0.37c-0.12,0.1-0.26,0.18-0.44,0.24c-0.18,0.06-0.38,0.08-0.62,0.09
		l-0.84,0l-0.01-2.31l0.74,0c0.19,0,0.34,0,0.44,0.02c0.11,0.01,0.2,0.03,0.29,0.05c0.28,0.07,0.48,0.21,0.6,0.39
		c0.12,0.18,0.18,0.41,0.18,0.68C54.25,18.73,54.22,18.88,54.16,19.03z"/>
</g>
<g class="st2">
	<path d="M10.32,38.77l5.01-0.15l0.03,1.01l-3.81,0.11l0.09,3.09l3.52-0.11l0.03,0.99l-3.52,0.11l0.13,4.21l-1.2,0.04L10.32,38.77z"
		/>
	<path d="M18.83,39.53L16,39.62l-0.03-1.02l6.88-0.21l0.03,1.02l-2.84,0.09l0.25,8.27l-1.21,0.04L18.83,39.53z"/>
	<path d="M26.13,39.75l-0.03,0l-1.53,0.89l-0.26-0.92l1.93-1.11l1.03-0.03l0.27,8.96l-1.17,0.04L26.13,39.75z"/>
	<path d="M43.45,43.15l0.02,0.83l-12.96,0.39l-0.02-0.83L43.45,43.15z"/>
	<path d="M48.35,46.92l-0.07-2.44l-4.17,0.12l-0.03-0.8l3.83-5.84l1.31-0.04l0.17,5.57l1.25-0.04l0.03,0.95l-1.26,0.04l0.07,2.44
		L48.35,46.92z M48.24,43.53l-0.09-2.99c-0.01-0.47-0.01-0.94,0-1.41l-0.04,0c-0.26,0.53-0.47,0.92-0.71,1.35l-2.1,3.11l0,0.03
		L48.24,43.53z"/>
	<path d="M56.78,38.72l-3.42,0.1l-0.28,2.31c0.21-0.03,0.4-0.07,0.73-0.08c0.69-0.02,1.38,0.11,1.95,0.42
		c0.72,0.38,1.32,1.13,1.35,2.26c0.05,1.75-1.3,3.1-3.24,3.16c-0.98,0.03-1.82-0.22-2.25-0.48l0.28-0.93
		c0.38,0.21,1.12,0.46,1.93,0.44c1.14-0.03,2.1-0.81,2.07-2.01c-0.05-1.16-0.85-1.96-2.64-1.91c-0.51,0.01-0.91,0.08-1.24,0.13
		l0.45-4.32l4.29-0.13L56.78,38.72z"/>
	<path d="M64.56,41.85c0.09,3.05-0.99,4.76-2.98,4.82c-1.75,0.05-2.99-1.55-3.1-4.52c-0.09-3.01,1.16-4.7,2.98-4.76
		C63.35,37.35,64.48,39,64.56,41.85z M59.7,42.14c0.07,2.33,0.83,3.63,1.93,3.6c1.24-0.04,1.79-1.5,1.72-3.79
		c-0.07-2.21-0.68-3.64-1.93-3.6C60.36,38.38,59.62,39.7,59.7,42.14z"/>
	<path d="M66.49,45.52c0.26,0.02,0.57-0.02,0.98-0.07c0.7-0.12,1.35-0.43,1.85-0.92c0.57-0.56,0.98-1.35,1.11-2.42h-0.04
		c-0.48,0.62-1.18,1-2.08,1.03c-1.61,0.05-2.69-1.13-2.73-2.66c-0.05-1.7,1.13-3.22,2.97-3.28c1.83-0.06,3.01,1.4,3.08,3.69
		c0.06,1.97-0.56,3.37-1.42,4.25c-0.67,0.7-1.61,1.14-2.57,1.28c-0.44,0.08-0.82,0.11-1.12,0.1L66.49,45.52z M66.78,40.35
		c0.03,1.12,0.73,1.88,1.78,1.85c0.81-0.02,1.44-0.44,1.74-0.99c0.07-0.11,0.1-0.25,0.1-0.44c-0.05-1.53-0.65-2.69-1.92-2.65
		C67.44,38.15,66.74,39.08,66.78,40.35z"/>
	<path d="M75.28,38.27h-0.03l-1.53,0.89l-0.26-0.92l1.93-1.11l1.03-0.03l0.27,8.96l-1.17,0.04L75.28,38.27z"/>
</g>
<g class="st3">
	<path d="M22.1,73.69l-0.06-2.2c-1.26,0.01-2.58-0.34-3.35-0.87l0.48-1.47c0.8,0.5,1.94,0.88,3.16,0.85
		c1.54-0.04,2.56-0.96,2.53-2.2c-0.03-1.2-0.9-1.91-2.53-2.52c-2.24-0.81-3.64-1.77-3.69-3.67c-0.05-1.8,1.2-3.21,3.19-3.59
		l-0.06-2.19l1.35-0.04l0.06,2.11c1.31,0.01,2.21,0.33,2.85,0.69l-0.51,1.45c-0.46-0.25-1.37-0.7-2.76-0.67
		c-1.67,0.04-2.28,1.06-2.26,1.93c0.03,1.13,0.85,1.68,2.76,2.41c2.26,0.85,3.42,1.95,3.48,3.89c0.04,1.72-1.11,3.36-3.34,3.79
		l0.06,2.26L22.1,73.69z"/>
	<path d="M34.17,70.36c-0.02-0.8,0.51-1.38,1.27-1.4c0.76-0.02,1.3,0.53,1.32,1.34c0.02,0.78-0.46,1.38-1.27,1.41
		C34.73,71.72,34.19,71.14,34.17,70.36z"/>
	<path d="M41.25,69.96c0.41,0.03,0.89-0.02,1.54-0.11c1.11-0.18,2.14-0.66,2.92-1.45c0.91-0.87,1.55-2.13,1.77-3.81l-0.06,0
		c-0.76,0.98-1.87,1.57-3.29,1.61c-2.54,0.07-4.23-1.8-4.29-4.21c-0.07-2.67,1.8-5.07,4.69-5.15c2.89-0.08,4.74,2.22,4.83,5.83
		c0.08,3.11-0.9,5.31-2.26,6.69c-1.06,1.1-2.54,1.79-4.06,2c-0.69,0.13-1.3,0.16-1.76,0.15L41.25,69.96z M41.73,61.81
		c0.05,1.76,1.15,2.97,2.8,2.93c1.28-0.03,2.27-0.69,2.74-1.55c0.1-0.18,0.16-0.4,0.16-0.7c-0.06-2.41-1.01-4.24-3.01-4.18
		C42.79,58.34,41.68,59.81,41.73,61.81z"/>
	<path d="M54.04,69.62c0.41,0.03,0.89-0.02,1.54-0.11c1.11-0.18,2.14-0.66,2.92-1.45c0.91-0.87,1.56-2.13,1.77-3.81l-0.07,0
		c-0.76,0.98-1.87,1.57-3.29,1.61c-2.54,0.07-4.23-1.8-4.29-4.21c-0.07-2.67,1.8-5.07,4.69-5.15c2.89-0.08,4.74,2.22,4.83,5.83
		c0.08,3.11-0.9,5.31-2.26,6.69c-1.06,1.09-2.54,1.79-4.06,2c-0.69,0.13-1.3,0.17-1.76,0.16L54.04,69.62z M54.52,61.46
		c0.05,1.76,1.14,2.97,2.8,2.93c1.28-0.03,2.27-0.69,2.74-1.55c0.1-0.18,0.16-0.4,0.15-0.7c-0.06-2.41-1-4.24-3.01-4.18
		C55.58,58,54.46,59.46,54.52,61.46z"/>
</g>
</svg>
