<!-- Generator: Adobe Illustrator 23.0.1, SVG Export Plug-In  -->
<svg version="1.1" xmlns="http://www.w3.org/2000/svg" xmlns:xlink="http://www.w3.org/1999/xlink" x="0px" y="0px"
	 width="129.72px" height="118.88px" viewBox="0 0 129.72 118.88" style="enable-background:new 0 0 129.72 118.88;"
	 xml:space="preserve">
<style type="text/css">
	.st0{fill:#F9F5ED;}
	.st1{fill:#08FFFF;}
	.st2{fill:#00E2DC;}
	.st3{opacity:0.47;}
	.st4{opacity:0.36;}
	.st5{opacity:0.3;}
	.st6{fill:#B5ABA0;}
	.st7{opacity:0.6;}
</style>
<defs>
</defs>
<polygon class="st0" points="103.02,118.88 9.14,89.85 0.58,77.61 24.58,0 129.72,32.51 "/>
<polygon class="st1" points="103.02,118.88 4.44,88.4 0,79.49 9.48,48.82 114.63,81.33 "/>
<polygon class="st2" points="0,79.49 4.65,88.29 9.41,83.42 "/>
<g class="st3">
	<path d="M43.91,85.96c0.43,0.54,1.53,1.53,2.88,1.98c2.5,0.84,3.81-0.49,4.19-1.69c0.65-2.02-0.87-3.49-2.75-4.13l-1.08-0.37
		l0.49-1.46l1.08,0.37c1.42,0.48,3.46,0.35,4.03-1.36c0.39-1.15,0-2.41-1.79-3.02c-1.15-0.39-2.43-0.25-3.2-0.02l-0.03-1.59
		c0.94-0.3,2.58-0.36,4.13,0.16c2.83,0.95,3.55,3.06,2.96,4.81c-0.5,1.48-1.81,2.45-3.79,2.49l-0.01,0.04
		c1.65,0.95,2.64,2.76,1.97,4.77c-0.77,2.3-3.24,3.71-6.7,2.55c-1.62-0.54-2.86-1.53-3.41-2.23L43.91,85.96z"/>
	<path d="M54.59,90.75c0.28-0.82,1.02-1.21,1.8-0.95c0.77,0.26,1.11,1.01,0.84,1.83c-0.27,0.8-0.98,1.22-1.8,0.95
		C54.65,92.33,54.32,91.55,54.59,90.75z"/>
	<path d="M58.63,93.39l0.4-1.2l2.03-0.97c4.85-2.26,7.13-3.56,7.88-5.72c0.49-1.46,0.24-3.05-1.91-3.77
		c-1.31-0.44-2.61-0.14-3.46,0.19l-0.16-1.58c1.28-0.51,2.9-0.65,4.56-0.09c3.1,1.04,3.69,3.6,3,5.66
		c-0.89,2.66-3.54,4.16-7.55,6.06l-1.51,0.67l-0.01,0.04l6.46,2.17l-0.54,1.62L58.63,93.39z"/>
	<path d="M71.58,96.22c0.41,0.19,0.91,0.31,1.59,0.46c1.18,0.23,2.4,0.12,3.48-0.38c1.24-0.54,2.35-1.57,3.19-3.19l-0.07-0.02
		c-1.12,0.71-2.47,0.89-3.91,0.41c-2.59-0.87-3.59-3.38-2.77-5.83c0.92-2.72,3.69-4.45,6.63-3.46c2.94,0.99,3.95,3.99,2.72,7.66
		c-1.06,3.17-2.87,5.02-4.75,5.92c-1.47,0.71-3.22,0.86-4.83,0.52c-0.74-0.13-1.37-0.31-1.83-0.49L71.58,96.22z M75.07,88.18
		c-0.6,1.79,0.06,3.42,1.74,3.98c1.31,0.44,2.54,0.14,3.34-0.55c0.17-0.14,0.31-0.34,0.42-0.65c0.83-2.46,0.55-4.64-1.49-5.33
		C77.41,85.08,75.75,86.14,75.07,88.18z"/>
</g>
<g class="st4">
	<path d="M27.7,87.05l0.87-2.83c-1.62-0.53-3.14-1.55-3.9-2.56L25.92,80c0.8,0.98,2.09,1.96,3.66,2.45
		c1.99,0.62,3.69-0.12,4.18-1.71c0.48-1.54-0.32-2.83-2.13-4.31c-2.51-2-3.87-3.83-3.12-6.27c0.72-2.32,2.92-3.58,5.62-3.2L35,64.13
		l1.74,0.54l-0.84,2.71c1.66,0.58,2.67,1.38,3.34,2.11l-1.27,1.63c-0.48-0.52-1.44-1.49-3.23-2.04c-2.16-0.67-3.37,0.37-3.71,1.49
		c-0.45,1.46,0.36,2.5,2.48,4.26c2.52,2.07,3.52,3.97,2.75,6.46c-0.68,2.21-2.86,3.81-5.89,3.39l-0.9,2.91L27.7,87.05z"/>
</g>
<g class="st5">
	<polygon class="st6" points="52.81,21.58 40.39,31.47 35.72,16.3 34.78,16.59 39.56,32.13 26.84,42.27 27.45,43.03 39.87,33.14 
		44.54,48.32 45.48,48.03 40.7,32.48 53.42,22.35 	"/>
	<polygon class="st6" points="108.81,39.48 108.2,38.71 95.78,48.6 91.11,33.43 90.17,33.71 94.95,49.26 82.23,59.39 82.84,60.16 
		95.26,50.27 99.93,65.44 100.87,65.16 96.09,49.61 	"/>
</g>
<g class="st7">
	<path d="M26.99,45.72l1.6,0.49l-0.04,0.11c-0.05,0.17-0.14,0.35-0.28,0.53c-0.13,0.18-0.3,0.36-0.49,0.53
		c-0.16,0.14-0.35,0.25-0.58,0.34c-0.23,0.09-0.49,0.15-0.78,0.19c-0.47,0.06-1.02-0.01-1.64-0.2c-1.24-0.38-2.09-1.11-2.55-2.18
		c-0.48-1.13-0.46-2.53,0.04-4.19c0.5-1.65,1.27-2.81,2.3-3.49c0.98-0.64,2.1-0.77,3.35-0.39c0.31,0.09,0.59,0.21,0.85,0.33
		s0.48,0.27,0.67,0.44c0.2,0.17,0.36,0.35,0.48,0.55c0.13,0.2,0.22,0.42,0.28,0.66l0,0c0.13,0.53,0.15,0.96,0.04,1.3l-0.03,0.11
		l-1.6-0.49l0.03-0.11c0.08-0.26,0.09-0.49,0.04-0.7c-0.07-0.3-0.18-0.5-0.31-0.61l0,0c-0.21-0.18-0.46-0.32-0.76-0.41
		c-0.75-0.23-1.46-0.03-2.12,0.59c-0.63,0.6-1.14,1.51-1.51,2.74c-0.38,1.24-0.47,2.28-0.28,3.13c0.2,0.89,0.67,1.44,1.42,1.67
		c0.49,0.15,0.9,0.13,1.24-0.06c0.27-0.16,0.46-0.42,0.57-0.79L26.99,45.72z"/>
	<path d="M32.27,50.01c-1.23-0.38-2.06-1.12-2.49-2.22c-0.45-1.16-0.44-2.54,0.05-4.13c0.24-0.79,0.55-1.48,0.94-2.05
		c0.38-0.58,0.83-1.04,1.33-1.39c0.24-0.16,0.49-0.28,0.75-0.38c0.26-0.1,0.54-0.17,0.82-0.21s0.57-0.05,0.86-0.03
		c0.29,0.02,0.59,0.08,0.88,0.17c0.6,0.18,1.11,0.47,1.53,0.85s0.74,0.84,0.96,1.38c0.21,0.58,0.32,1.22,0.32,1.91
		s-0.12,1.43-0.36,2.21c-0.24,0.79-0.55,1.47-0.94,2.05c-0.38,0.58-0.83,1.04-1.34,1.4c-0.48,0.32-1,0.52-1.56,0.6
		C33.45,50.25,32.87,50.2,32.27,50.01z M32.59,48.95c0.66,0.2,1.32,0,1.98-0.6c0.64-0.58,1.16-1.51,1.54-2.77
		c0.39-1.26,0.48-2.31,0.27-3.16c-0.21-0.87-0.65-1.41-1.31-1.61c-0.66-0.2-1.31,0-1.98,0.6c-0.64,0.58-1.15,1.51-1.54,2.77
		c-0.39,1.26-0.48,2.32-0.27,3.16C31.5,48.22,31.94,48.75,32.59,48.95z"/>
	<path d="M38.87,51.71l-1.68-0.52l2.96-9.67l2.99,0.92c0.37,0.11,0.68,0.24,0.94,0.38s0.46,0.29,0.6,0.45
		c0.16,0.19,0.3,0.39,0.41,0.6c0.11,0.21,0.18,0.41,0.21,0.61c0.04,0.26,0.05,0.51,0.04,0.74c-0.01,0.23-0.05,0.46-0.12,0.68
		c-0.11,0.35-0.29,0.68-0.55,0.98c-0.26,0.31-0.56,0.58-0.91,0.8c-0.14,0.08-0.32,0.15-0.54,0.21c-0.22,0.07-0.48,0.12-0.78,0.16
		c0.09,0.1,0.16,0.19,0.21,0.26s0.09,0.12,0.11,0.16c0.1,0.22,0.18,0.43,0.23,0.63c0.04,0.14,0.07,0.27,0.09,0.39
		c0.03,0.12,0.05,0.25,0.07,0.36l0.55,3.35l-1.81-0.55l-0.46-2.92c-0.06-0.38-0.13-0.72-0.24-1.04c-0.1-0.32-0.22-0.61-0.36-0.86
		l-0.72-0.22L38.87,51.71z M40.45,46.55l0.85,0.26c0.38,0.12,0.71,0.13,1,0.05c0.19-0.05,0.41-0.22,0.68-0.52
		c0.21-0.22,0.37-0.52,0.48-0.9c0.1-0.32,0.14-0.61,0.11-0.87c-0.02-0.26-0.11-0.48-0.25-0.66c-0.16-0.22-0.46-0.39-0.89-0.53
		L41.5,43.1L40.45,46.55z"/>
	<path d="M44.21,53.35l2.96-9.67l1.62,0.5l1.86,7.74l2.01-6.56l1.6,0.49l-2.96,9.67l-1.61-0.49l-1.86-7.79l-2.02,6.6L44.21,53.35z"
		/>
	<path d="M52.43,55.86l2.96-9.67l5.51,1.69l-0.35,1.15l-3.82-1.17l-0.9,2.93l3.34,1.02l-0.32,1.05l-3.34-1.02l-1.04,3.39l4.13,1.26
		l-0.35,1.15L52.43,55.86z"/>
	<path d="M60.79,58.42l-1.68-0.52l2.96-9.67l2.99,0.92c0.37,0.11,0.68,0.24,0.94,0.38s0.46,0.29,0.6,0.45
		c0.16,0.19,0.3,0.39,0.41,0.6c0.11,0.21,0.18,0.41,0.21,0.61c0.04,0.26,0.05,0.51,0.04,0.74c-0.01,0.23-0.05,0.46-0.12,0.68
		c-0.11,0.35-0.29,0.68-0.55,0.98c-0.26,0.31-0.56,0.58-0.92,0.8c-0.13,0.08-0.31,0.15-0.54,0.21c-0.22,0.07-0.48,0.12-0.78,0.16
		c0.09,0.1,0.16,0.19,0.21,0.26c0.05,0.07,0.09,0.12,0.11,0.16c0.1,0.22,0.18,0.43,0.23,0.62c0.03,0.14,0.07,0.27,0.09,0.39
		c0.03,0.12,0.05,0.25,0.07,0.36l0.55,3.35l-1.81-0.55l-0.45-2.92c-0.06-0.38-0.13-0.72-0.24-1.04c-0.1-0.32-0.22-0.61-0.36-0.86
		l-0.72-0.22L60.79,58.42z M62.37,53.25l0.85,0.26c0.38,0.12,0.71,0.13,1,0.05c0.19-0.05,0.41-0.22,0.68-0.52
		c0.21-0.22,0.37-0.52,0.48-0.9c0.1-0.32,0.14-0.61,0.11-0.87c-0.02-0.26-0.11-0.48-0.25-0.66c-0.16-0.22-0.46-0.39-0.89-0.53
		l-0.93-0.28L62.37,53.25z"/>
	<path d="M70.45,58.92l1.69,0.52l-0.03,0.11c-0.09,0.28-0.12,0.52-0.11,0.71s0.06,0.35,0.16,0.47c0.14,0.15,0.31,0.28,0.5,0.4
		c0.19,0.12,0.41,0.21,0.65,0.29c0.19,0.06,0.39,0.08,0.6,0.05s0.41-0.09,0.62-0.19l0,0c0.35-0.18,0.62-0.54,0.78-1.09
		c0.14-0.45,0.13-0.81-0.03-1.09c-0.12-0.19-0.27-0.39-0.45-0.59c-0.18-0.2-0.37-0.4-0.57-0.58l0,0l-0.4-0.34
		c-0.31-0.26-0.56-0.5-0.76-0.72s-0.35-0.4-0.45-0.56c-0.27-0.46-0.43-0.85-0.48-1.17c-0.05-0.43-0.02-0.83,0.09-1.21
		c0.21-0.69,0.66-1.23,1.35-1.63c0.64-0.36,1.52-0.37,2.63-0.03c0.51,0.16,0.93,0.34,1.25,0.54c0.32,0.21,0.55,0.43,0.69,0.68
		c0.14,0.27,0.24,0.54,0.28,0.8c0.04,0.26,0.03,0.5-0.04,0.73l-0.04,0.11l-1.69-0.52l0.04-0.11c0.02-0.08,0.04-0.16,0.04-0.25
		s-0.01-0.17-0.03-0.25c-0.02-0.08-0.05-0.15-0.1-0.22s-0.11-0.13-0.18-0.18c-0.21-0.14-0.43-0.25-0.65-0.31
		c-0.44-0.14-0.84-0.09-1.19,0.12c-0.29,0.18-0.5,0.48-0.63,0.91c-0.08,0.27-0.1,0.54-0.06,0.8c0.04,0.26,0.13,0.48,0.26,0.67
		c0.11,0.13,0.24,0.28,0.39,0.44s0.33,0.33,0.53,0.5l0.46,0.42c0.39,0.36,0.72,0.7,0.96,1.02c0.25,0.32,0.41,0.6,0.48,0.84
		c0.17,0.6,0.18,1.14,0.03,1.62c-0.07,0.23-0.17,0.45-0.31,0.67c-0.14,0.22-0.31,0.43-0.51,0.64c-0.16,0.16-0.36,0.31-0.6,0.43
		c-0.24,0.12-0.51,0.21-0.8,0.28c-0.24,0.05-0.52,0.06-0.84,0.03c-0.32-0.03-0.67-0.1-1.05-0.22c-0.71-0.22-1.28-0.49-1.7-0.83
		c-0.43-0.33-0.7-0.73-0.83-1.18c-0.06-0.25-0.09-0.5-0.09-0.74c0-0.24,0.04-0.47,0.1-0.69L70.45,58.92z"/>
	<path d="M79.6,64.18l2.63-8.61l-2.99-0.91l0.32-1.06l7.62,2.33l-0.33,1.06l-2.94-0.9l-2.63,8.61L79.6,64.18z"/>
	<path d="M88.58,67.24c-1.23-0.38-2.06-1.12-2.49-2.22c-0.45-1.16-0.44-2.54,0.05-4.13c0.24-0.79,0.55-1.48,0.94-2.05
		c0.38-0.58,0.83-1.04,1.33-1.39c0.24-0.15,0.49-0.28,0.75-0.38c0.26-0.1,0.53-0.17,0.81-0.21c0.28-0.04,0.57-0.05,0.86-0.03
		c0.29,0.02,0.59,0.08,0.88,0.17c0.6,0.18,1.11,0.47,1.53,0.85s0.74,0.84,0.96,1.38c0.21,0.58,0.32,1.22,0.32,1.92
		c0,0.7-0.12,1.43-0.36,2.21c-0.24,0.79-0.55,1.47-0.94,2.05s-0.83,1.04-1.34,1.4c-0.48,0.32-1,0.52-1.56,0.6
		S89.18,67.43,88.58,67.24z M88.9,66.18c0.66,0.2,1.32,0,1.98-0.6c0.64-0.58,1.15-1.51,1.54-2.77c0.39-1.26,0.48-2.31,0.27-3.16
		c-0.21-0.87-0.65-1.41-1.31-1.61c-0.66-0.2-1.32,0-1.98,0.6c-0.64,0.58-1.15,1.51-1.54,2.77c-0.39,1.26-0.48,2.32-0.27,3.16
		C87.81,65.45,88.25,65.98,88.9,66.18z"/>
	<path d="M95.18,68.94l-1.68-0.52l2.96-9.67l2.99,0.91c0.37,0.11,0.68,0.24,0.94,0.38s0.46,0.29,0.6,0.44
		c0.16,0.19,0.3,0.39,0.41,0.6s0.18,0.41,0.22,0.61c0.04,0.26,0.05,0.51,0.04,0.74c-0.01,0.23-0.05,0.46-0.11,0.68
		c-0.11,0.35-0.29,0.68-0.55,0.99c-0.26,0.31-0.56,0.57-0.91,0.8c-0.14,0.08-0.32,0.15-0.54,0.21c-0.22,0.06-0.48,0.12-0.78,0.16
		c0.09,0.1,0.16,0.19,0.21,0.26c0.05,0.07,0.09,0.12,0.11,0.16c0.1,0.22,0.18,0.43,0.23,0.63c0.04,0.14,0.07,0.27,0.09,0.39
		c0.03,0.12,0.05,0.25,0.07,0.36l0.55,3.35l-1.81-0.55l-0.46-2.92c-0.06-0.38-0.13-0.72-0.24-1.04c-0.1-0.32-0.22-0.6-0.36-0.86
		l-0.72-0.22L95.18,68.94z M96.76,63.77l0.85,0.26c0.38,0.12,0.71,0.13,1,0.05c0.19-0.05,0.41-0.22,0.68-0.52
		c0.21-0.22,0.37-0.52,0.48-0.89c0.1-0.32,0.13-0.61,0.11-0.87c-0.02-0.26-0.11-0.48-0.25-0.66c-0.16-0.22-0.46-0.39-0.89-0.53
		l-0.93-0.28L96.76,63.77z"/>
	<path d="M100.52,70.58l2.96-9.67l5.51,1.69l-0.35,1.15l-3.82-1.17l-0.89,2.93l3.34,1.02l-0.32,1.05l-3.34-1.02l-1.04,3.39
		l4.13,1.26l-0.35,1.15L100.52,70.58z"/>
</g>
</svg>
