<!-- Generator: Adobe Illustrator 23.0.1, SVG Export Plug-In  -->
<svg version="1.1" xmlns="http://www.w3.org/2000/svg" xmlns:xlink="http://www.w3.org/1999/xlink" x="0px" y="0px"
	 width="233.19px" height="233.19px" viewBox="0 0 233.19 233.19" style="enable-background:new 0 0 233.19 233.19;"
	 xml:space="preserve">
<style type="text/css">
	.st0{fill:#FF0000;}
	.st1{fill:#FFFFFF;}
</style>
<defs>
</defs>
<g>
	<path class="st0" d="M231.71,98.22c10.15,63.58-33.17,123.34-96.75,133.49C71.38,241.86,11.62,198.54,1.47,134.97
		C-8.67,71.38,34.64,11.62,98.22,1.47C161.8-8.67,221.57,34.64,231.71,98.22z"/>
</g>
<g>
	<polygon class="st1" points="199.09,82.85 200.1,75.61 185.23,78.67 171.76,175.88 181,74.38 166.13,77.44 157.35,173.81 
		166.69,70.6 151.64,72.83 142.79,170.65 150.16,67.77 135.19,69.99 135.55,65.86 120.43,67.7 120.19,70.44 106.54,72.1 
		105.78,80.91 95.04,81.92 81.22,181.88 91.6,87.92 76.7,90.81 76.03,96.89 61.41,100.54 55.24,148.6 57,102.2 43.43,109.51 
		39.94,201.27 49.1,196.34 48.8,198.69 63.52,195.01 75.38,102.75 64.44,201.72 78.86,198.92 78.71,199.95 93.91,198.52 
		98.5,165.32 94.9,207.05 110.03,205.22 110.26,202.48 123.91,200.82 134.73,75.39 125.4,205.68 140.44,203.44 140.72,199.61 
		155.21,197.46 155.6,193.18 170.46,190.12 171.43,179.38 186.13,176.35 194.29,117.56 189.59,174.87 203.62,168.83 211.08,77.68 	
		"/>
</g>
<g>
	<g>
		<path class="st0" d="M59.9,171.3c0.53,3.31,0.3,5.63-0.67,6.95c-0.98,1.32-2.95,2.22-5.95,2.7c-2.99,0.48-5.14,0.25-6.46-0.69
			c-1.32-0.94-2.23-2.98-2.73-6.11c-0.53-3.34-0.31-5.68,0.66-7c0.97-1.32,2.97-2.23,6-2.71c2.95-0.47,5.09-0.24,6.41,0.7
			C58.48,166.08,59.39,168.13,59.9,171.3z"/>
	</g>
	<g>
		<path class="st0" d="M111.49,151.95c0.5,3.13,0.4,6.01-0.29,8.65c-0.7,2.63-1.97,4.96-3.82,6.99c-1.84,2.03-4.27,3.73-7.26,5.1
			c-2.99,1.37-6.54,2.39-10.63,3.04c-3.92,0.63-7.42,0.78-10.5,0.47c-3.08-0.31-5.74-1.07-7.97-2.26c-2.24-1.2-4.03-2.83-5.38-4.89
			c-1.36-2.06-2.26-4.54-2.72-7.43c-0.31-1.96-0.31-3.84,0-5.67c0.31-1.82,0.93-3.56,1.85-5.22c0.92-1.66,2.14-3.28,3.66-4.86
			c1.52-1.58,3.3-3.13,5.36-4.66c-1.98-0.71-3.78-1.52-5.43-2.45c-1.64-0.92-3.1-1.98-4.34-3.19c-1.25-1.2-2.27-2.58-3.07-4.14
			c-0.8-1.55-1.35-3.29-1.65-5.21c-0.44-2.78-0.36-5.37,0.26-7.79c0.61-2.42,1.77-4.61,3.44-6.57c1.68-1.96,3.9-3.63,6.68-4.98
			c2.78-1.35,6.09-2.34,9.93-2.95c3.8-0.61,7.14-0.72,9.99-0.34c2.86,0.39,5.27,1.18,7.26,2.4c1.98,1.22,3.56,2.8,4.73,4.75
			c1.17,1.95,1.96,4.18,2.36,6.71c0.27,1.68,0.25,3.35-0.05,5.02c-0.3,1.68-0.83,3.3-1.6,4.88c-0.77,1.58-1.79,3.12-3.04,4.62
			c-1.26,1.5-2.73,2.91-4.42,4.24c2.35,0.79,4.49,1.69,6.4,2.7c1.91,1.01,3.58,2.16,4.99,3.45c1.41,1.29,2.56,2.72,3.45,4.29
			C110.58,148.23,111.18,149.99,111.49,151.95z M97.76,155.13c-0.21-1.31-0.62-2.48-1.24-3.49c-0.62-1.02-1.48-1.93-2.58-2.74
			c-1.1-0.81-2.43-1.54-3.99-2.21c-1.57-0.66-3.37-1.3-5.4-1.93c-1.5,1.15-2.8,2.27-3.9,3.36c-1.1,1.09-1.99,2.19-2.65,3.3
			c-0.66,1.11-1.11,2.24-1.35,3.39c-0.24,1.15-0.25,2.35-0.06,3.6c0.44,2.78,1.68,4.75,3.71,5.92c2.03,1.17,4.82,1.48,8.39,0.91
			c3.49-0.56,5.97-1.72,7.46-3.49C97.65,159.97,98.18,157.77,97.76,155.13z M90.65,120.89c-0.2-1.25-0.55-2.34-1.07-3.28
			c-0.52-0.94-1.21-1.7-2.08-2.27c-0.88-0.57-1.9-0.95-3.08-1.12c-1.17-0.18-2.53-0.14-4.06,0.1c-2.99,0.48-5.11,1.52-6.35,3.12
			c-1.24,1.61-1.67,3.62-1.28,6.04c0.18,1.14,0.53,2.16,1.06,3.06c0.53,0.9,1.25,1.72,2.17,2.45c0.92,0.73,2.07,1.4,3.45,2.02
			c1.38,0.62,2.99,1.26,4.85,1.91c2.35-1.94,4.1-3.9,5.22-5.87C90.6,125.08,90.99,123.02,90.65,120.89z"/>
	</g>
	<g>
		<path class="st0" d="M157.48,124.95c0.45,2.82,0.77,5.75,0.97,8.8c0.19,3.06,0.12,6.09-0.22,9.1c-0.34,3.01-1.01,5.93-2,8.75
			c-0.99,2.83-2.44,5.39-4.36,7.68c-1.91,2.3-4.38,4.27-7.38,5.91c-3,1.65-6.68,2.82-11.02,3.51c-1.53,0.24-3.07,0.38-4.62,0.4
			c-1.55,0.03-2.97-0.02-4.27-0.14c-1.3-0.12-2.41-0.29-3.34-0.51c-0.93-0.22-1.62-0.48-2.07-0.79c-0.45-0.31-0.82-0.81-1.11-1.49
			c-0.29-0.68-0.54-1.67-0.74-2.95c-0.19-1.18-0.31-2.12-0.37-2.84c-0.06-0.72-0.04-1.29,0.05-1.71c0.1-0.42,0.25-0.7,0.47-0.87
			c0.21-0.16,0.47-0.27,0.8-0.32c0.43-0.07,1.05-0.04,1.87,0.08c0.82,0.13,1.82,0.26,3,0.4c1.17,0.14,2.49,0.22,3.95,0.25
			c1.46,0.02,3.07-0.1,4.81-0.38c2.99-0.48,5.43-1.41,7.33-2.81c1.89-1.4,3.34-3.1,4.33-5.12c0.99-2.02,1.6-4.27,1.82-6.76
			c0.22-2.48,0.16-5.04-0.19-7.69c-1.48,1.29-3.3,2.51-5.5,3.64c-2.19,1.14-4.78,1.94-7.77,2.42c-3.67,0.59-6.86,0.6-9.57,0.05
			c-2.72-0.55-5.02-1.61-6.91-3.17c-1.89-1.56-3.41-3.58-4.56-6.06c-1.14-2.48-1.98-5.36-2.5-8.63c-0.55-3.45-0.54-6.71,0.03-9.78
			c0.57-3.06,1.7-5.82,3.39-8.26c1.69-2.44,3.96-4.49,6.79-6.15c2.84-1.66,6.25-2.8,10.24-3.44c3.21-0.51,6.07-0.59,8.59-0.22
			c2.52,0.37,4.76,1.1,6.7,2.21c1.95,1.12,3.66,2.57,5.13,4.36c1.47,1.79,2.73,3.85,3.77,6.16c1.05,2.32,1.93,4.86,2.64,7.63
			C156.4,118.98,157,121.89,157.48,124.95z M143.24,125.25c-0.61-3.8-1.33-6.96-2.17-9.45c-0.84-2.5-1.81-4.44-2.9-5.84
			c-1.1-1.39-2.34-2.31-3.73-2.75c-1.38-0.43-2.93-0.52-4.64-0.24c-1.67,0.27-3.06,0.79-4.18,1.57c-1.12,0.78-1.99,1.77-2.62,2.96
			c-0.63,1.2-1.03,2.56-1.18,4.08c-0.16,1.53-0.1,3.16,0.18,4.9c0.3,1.89,0.73,3.52,1.3,4.91c0.57,1.39,1.29,2.5,2.17,3.32
			c0.88,0.83,1.94,1.38,3.19,1.65c1.25,0.27,2.71,0.28,4.38,0.01c2.06-0.33,3.96-0.95,5.7-1.87
			C140.48,127.6,141.99,126.52,143.24,125.25z"/>
	</g>
</g>
<g>
	<g>
		<path class="st0" d="M194.1,124.87c0.12,1.15,0.15,2.01,0.09,2.6c-0.06,0.59-0.21,1.06-0.46,1.4c-0.25,0.35-0.59,0.71-1.04,1.08
			c-0.45,0.37-0.95,0.73-1.48,1.09c-0.55,0.35-1.15,0.68-1.8,0.98c-0.66,0.3-1.36,0.55-2.12,0.77l0.58,5.52
			c0.03,0.27-0.01,0.5-0.11,0.72c-0.1,0.21-0.3,0.4-0.61,0.57c-0.3,0.16-0.72,0.31-1.25,0.43c-0.53,0.12-1.19,0.22-1.99,0.31
			c-0.8,0.08-1.47,0.12-2.01,0.11c-0.54-0.01-0.98-0.06-1.31-0.16c-0.33-0.1-0.57-0.24-0.71-0.43c-0.14-0.19-0.22-0.41-0.25-0.68
			l-0.56-5.35c-4.42-0.24-7.93-1.87-10.51-4.88c-2.6-3.01-4.18-7.29-4.76-12.84c-0.32-2.99-0.27-5.66,0.13-8.02
			c0.4-2.36,1.09-4.43,2.07-6.22c0.98-1.79,2.24-3.28,3.76-4.48c1.52-1.2,3.24-2.11,5.17-2.75l-0.57-5.48
			c-0.03-0.27,0-0.51,0.1-0.74c0.1-0.22,0.3-0.43,0.6-0.61c0.31-0.18,0.72-0.33,1.25-0.45c0.53-0.12,1.19-0.22,1.99-0.31
			c0.8-0.08,1.48-0.12,2.03-0.11c0.56,0.01,1,0.07,1.31,0.18c0.32,0.11,0.56,0.27,0.72,0.47c0.15,0.2,0.25,0.43,0.28,0.7l0.55,5.28
			c0.59,0.02,1.23,0.09,1.9,0.21c0.67,0.12,1.33,0.28,1.95,0.48c0.62,0.2,1.21,0.44,1.75,0.7c0.54,0.27,0.98,0.53,1.31,0.79
			c0.34,0.26,0.58,0.5,0.72,0.71c0.14,0.21,0.27,0.47,0.38,0.77c0.11,0.3,0.2,0.66,0.28,1.1c0.07,0.44,0.14,0.95,0.2,1.53
			c0.05,0.51,0.08,1.02,0.08,1.53c0,0.51-0.04,0.97-0.13,1.39c-0.09,0.42-0.24,0.77-0.46,1.06s-0.49,0.46-0.84,0.49
			c-0.42,0.04-0.89-0.1-1.4-0.42c-0.51-0.32-1.12-0.67-1.85-1.06c-0.73-0.39-1.59-0.72-2.57-1.01c-0.99-0.29-2.18-0.36-3.56-0.21
			c-1.18,0.12-2.22,0.46-3.15,1c-0.93,0.54-1.71,1.33-2.34,2.37c-0.63,1.04-1.08,2.33-1.33,3.86c-0.26,1.54-0.28,3.37-0.05,5.5
			c0.22,2.05,0.59,3.8,1.12,5.24c0.53,1.44,1.21,2.59,2.04,3.46c0.83,0.87,1.8,1.47,2.9,1.82c1.1,0.34,2.33,0.44,3.69,0.3
			c1.36-0.14,2.5-0.47,3.41-0.99c0.92-0.51,1.69-1.06,2.34-1.64c0.64-0.57,1.19-1.1,1.65-1.56c0.46-0.47,0.87-0.72,1.21-0.76
			c0.24-0.03,0.45,0.07,0.64,0.29c0.19,0.22,0.34,0.54,0.46,0.94c0.12,0.4,0.23,0.9,0.32,1.48
			C193.95,123.54,194.03,124.18,194.1,124.87z"/>
	</g>
</g>
<g>
	<g>
		<path class="st1" d="M56.84,61.84c0.23,1.47,0.19,2.8-0.13,4c-0.32,1.19-0.84,2.23-1.58,3.11c-0.73,0.88-1.64,1.6-2.72,2.16
			c-1.07,0.56-2.26,0.94-3.56,1.15c-0.88,0.14-1.7,0.19-2.48,0.15c-0.78-0.04-1.47-0.12-2.09-0.26c-0.61-0.13-1.13-0.29-1.55-0.47
			c-0.43-0.18-0.73-0.35-0.94-0.52c-0.2-0.16-0.36-0.41-0.49-0.75c-0.13-0.34-0.24-0.84-0.35-1.51c-0.07-0.45-0.12-0.83-0.14-1.13
			C40.8,67.45,40.8,67.2,40.83,67c0.03-0.2,0.08-0.35,0.17-0.44c0.08-0.1,0.19-0.15,0.32-0.18c0.18-0.03,0.46,0.05,0.83,0.23
			C42.53,66.8,43,67,43.57,67.21c0.57,0.2,1.24,0.37,2,0.49c0.76,0.12,1.63,0.11,2.58-0.04c0.63-0.1,1.18-0.27,1.65-0.52
			c0.47-0.25,0.86-0.55,1.15-0.91c0.3-0.36,0.5-0.78,0.62-1.25c0.11-0.48,0.12-0.99,0.04-1.54c-0.1-0.64-0.35-1.15-0.74-1.56
			c-0.38-0.41-0.86-0.74-1.42-1.02c-0.56-0.27-1.19-0.51-1.88-0.72c-0.69-0.21-1.41-0.43-2.14-0.67c-0.73-0.24-1.46-0.53-2.17-0.87
			c-0.71-0.34-1.37-0.77-1.98-1.31c-0.6-0.53-1.12-1.19-1.57-1.98c-0.44-0.79-0.76-1.77-0.95-2.94c-0.21-1.34-0.18-2.56,0.11-3.65
			c0.29-1.09,0.76-2.03,1.42-2.83c0.66-0.79,1.48-1.44,2.47-1.94c0.99-0.5,2.06-0.84,3.23-1.03c0.6-0.1,1.21-0.14,1.83-0.14
			c0.62,0.01,1.2,0.05,1.76,0.15c0.55,0.09,1.04,0.21,1.49,0.36c0.44,0.15,0.74,0.29,0.89,0.41c0.15,0.12,0.26,0.23,0.33,0.33
			c0.06,0.1,0.12,0.22,0.18,0.38c0.06,0.16,0.11,0.37,0.17,0.62c0.05,0.25,0.11,0.57,0.17,0.94c0.07,0.42,0.11,0.77,0.14,1.06
			c0.03,0.29,0.03,0.54,0.02,0.73c-0.02,0.2-0.06,0.34-0.13,0.44c-0.07,0.1-0.18,0.16-0.32,0.19c-0.14,0.02-0.39-0.04-0.74-0.2
			c-0.35-0.15-0.77-0.31-1.26-0.47c-0.49-0.16-1.06-0.3-1.69-0.4c-0.64-0.1-1.31-0.09-2.03,0.02c-0.56,0.09-1.04,0.24-1.43,0.46
			c-0.4,0.22-0.72,0.48-0.95,0.8c-0.24,0.31-0.4,0.67-0.48,1.06c-0.07,0.4-0.08,0.8-0.01,1.22c0.1,0.62,0.34,1.14,0.72,1.54
			c0.38,0.41,0.86,0.75,1.43,1.02c0.57,0.27,1.21,0.51,1.92,0.72c0.7,0.21,1.42,0.43,2.16,0.67c0.73,0.23,1.46,0.52,2.19,0.86
			c0.72,0.33,1.39,0.77,2,1.3c0.61,0.53,1.13,1.19,1.58,1.97C56.35,59.76,56.66,60.72,56.84,61.84z"/>
		<path class="st1" d="M49.01,73.19c-0.93,0.15-1.84,0.2-2.68,0.16c-0.83-0.04-1.58-0.14-2.23-0.28c-0.67-0.14-1.25-0.32-1.74-0.53
			c-0.5-0.22-0.87-0.43-1.15-0.65c-0.33-0.26-0.6-0.66-0.79-1.17c-0.15-0.41-0.28-0.96-0.4-1.69c-0.08-0.48-0.13-0.89-0.15-1.22
			c-0.03-0.39-0.02-0.7,0.03-0.97c0.05-0.38,0.19-0.69,0.4-0.93c0.47-0.54,1.2-0.69,2.28-0.15c0.35,0.18,0.79,0.36,1.31,0.55
			c0.52,0.18,1.13,0.33,1.83,0.45c1.07,0.17,2.64,0.05,3.64-0.47c0.35-0.18,0.65-0.41,0.86-0.67c0.21-0.25,0.34-0.53,0.42-0.87
			c0.08-0.36,0.09-0.74,0.02-1.17c-0.07-0.44-0.23-0.79-0.48-1.05c-0.31-0.32-0.69-0.6-1.15-0.82c-0.51-0.25-1.07-0.47-1.74-0.67
			c-0.69-0.21-1.41-0.43-2.15-0.67c-0.77-0.25-1.54-0.56-2.29-0.91c-0.79-0.38-1.53-0.86-2.19-1.45c-0.68-0.6-1.27-1.35-1.77-2.23
			c-0.5-0.88-0.86-1.98-1.06-3.26c-0.23-1.47-0.19-2.83,0.13-4.04c0.33-1.22,0.87-2.3,1.61-3.19c0.74-0.89,1.67-1.62,2.77-2.18
			c1.62-0.82,3.51-1.28,5.5-1.27c0.67,0.01,1.3,0.06,1.9,0.15c0.61,0.1,1.16,0.23,1.65,0.4c0.57,0.2,0.93,0.38,1.18,0.57
			c0.22,0.18,0.39,0.35,0.5,0.52c0.12,0.19,0.21,0.37,0.29,0.59c0.07,0.2,0.14,0.45,0.21,0.75c0.06,0.27,0.12,0.6,0.18,0.99
			c0.07,0.44,0.12,0.82,0.15,1.13c0.03,0.35,0.04,0.65,0.01,0.89c-0.04,0.4-0.14,0.7-0.31,0.93c-0.25,0.35-0.87,0.9-2.21,0.3
			c-0.31-0.14-0.71-0.29-1.18-0.44c-0.45-0.15-0.96-0.27-1.54-0.36c-0.92-0.15-2.16,0-2.85,0.38c-0.29,0.16-0.5,0.34-0.66,0.54
			c-0.16,0.2-0.25,0.42-0.3,0.68c-0.05,0.29-0.06,0.58-0.01,0.89c0.07,0.43,0.23,0.78,0.47,1.04c0.3,0.32,0.69,0.59,1.14,0.81
			c0.53,0.25,1.12,0.47,1.78,0.66c0.71,0.21,1.44,0.43,2.19,0.68c0.77,0.24,1.54,0.55,2.3,0.9c0.8,0.37,1.55,0.86,2.23,1.45
			c0.69,0.6,1.29,1.34,1.78,2.21c0.5,0.88,0.85,1.95,1.05,3.19c0.26,1.6,0.21,3.08-0.15,4.39c-0.35,1.32-0.95,2.48-1.76,3.47
			c-0.81,0.97-1.82,1.78-3.01,2.39C51.7,72.55,50.4,72.97,49.01,73.19z M41.75,67.48c0,0.06,0.01,0.13,0.01,0.21
			c0.02,0.29,0.06,0.63,0.13,1.05c0.09,0.58,0.19,1.03,0.31,1.33c0.1,0.25,0.18,0.33,0.19,0.34c0.08,0.07,0.28,0.2,0.72,0.39
			c0.37,0.16,0.83,0.3,1.38,0.42c0.55,0.12,1.2,0.2,1.93,0.24c1.76,0.09,3.91-0.34,5.56-1.19c0.96-0.49,1.78-1.14,2.42-1.92
			c0.64-0.77,1.11-1.69,1.39-2.74c0.28-1.06,0.32-2.27,0.11-3.6c-0.16-1.01-0.44-1.86-0.82-2.54c-0.39-0.68-0.86-1.26-1.39-1.72
			c-0.54-0.47-1.14-0.86-1.78-1.15c-0.69-0.32-1.38-0.59-2.08-0.82c-0.73-0.23-1.44-0.46-2.13-0.66c-0.75-0.22-1.45-0.48-2.06-0.77
			c-0.68-0.32-1.25-0.73-1.72-1.22c-0.51-0.54-0.83-1.23-0.96-2.04c-0.08-0.53-0.08-1.05,0.02-1.55c0.11-0.55,0.33-1.04,0.66-1.46
			c0.31-0.4,0.72-0.76,1.24-1.05c1.05-0.59,2.73-0.8,4.07-0.59c0.69,0.11,1.31,0.25,1.85,0.43c0.46,0.16,0.87,0.31,1.21,0.45
			c0-0.05-0.01-0.1-0.01-0.15c-0.02-0.27-0.07-0.61-0.13-1c-0.06-0.36-0.11-0.66-0.16-0.9c-0.04-0.19-0.08-0.36-0.13-0.49l0.39-1.03
			l-0.6,0.74l0,0c0,0-0.13-0.09-0.6-0.26c-0.39-0.14-0.84-0.24-1.33-0.32c-0.51-0.08-1.05-0.12-1.62-0.13
			c-1.65-0.02-3.26,0.37-4.62,1.06c-0.87,0.44-1.6,1.01-2.17,1.7c-0.56,0.68-0.98,1.51-1.23,2.46c-0.25,0.96-0.28,2.05-0.09,3.26
			c0.17,1.05,0.45,1.93,0.84,2.62c0.39,0.7,0.86,1.28,1.37,1.74c0.53,0.47,1.12,0.86,1.75,1.16c0.68,0.32,1.36,0.6,2.06,0.82
			c0.73,0.24,1.44,0.46,2.12,0.66c0.76,0.23,1.42,0.49,2.02,0.78c0.67,0.33,1.24,0.74,1.7,1.22c0.52,0.54,0.85,1.24,0.98,2.06
			c0.11,0.66,0.09,1.31-0.05,1.91c-0.15,0.62-0.42,1.17-0.81,1.64c-0.38,0.46-0.87,0.84-1.45,1.14c-1.38,0.71-3.37,0.89-4.82,0.66
			c-0.82-0.13-1.54-0.31-2.17-0.54C42.65,67.89,42.15,67.67,41.75,67.48z"/>
	</g>
	<g>
		<path class="st1" d="M77.21,47.2c0.25,1.57,0.25,3,0,4.29c-0.26,1.28-0.74,2.41-1.45,3.37c-0.72,0.97-1.67,1.77-2.83,2.4
			c-1.17,0.63-2.59,1.08-4.26,1.35l-2.12,0.34l1.43,8.95c0.02,0.14,0,0.28-0.07,0.41c-0.07,0.13-0.19,0.25-0.38,0.35
			c-0.19,0.1-0.44,0.2-0.75,0.3c-0.32,0.1-0.74,0.19-1.25,0.27c-0.5,0.08-0.92,0.12-1.26,0.13c-0.34,0.01-0.62-0.01-0.82-0.04
			c-0.21-0.04-0.36-0.12-0.45-0.22c-0.1-0.1-0.16-0.23-0.18-0.37l-4.02-25.22c-0.11-0.68-0.03-1.21,0.23-1.6
			c0.27-0.39,0.66-0.63,1.19-0.71l5.99-0.96c0.6-0.1,1.18-0.16,1.73-0.2c0.55-0.04,1.22-0.03,2,0.01c0.79,0.05,1.61,0.23,2.46,0.56
			c0.85,0.32,1.6,0.78,2.27,1.38c0.66,0.6,1.21,1.33,1.64,2.2C76.72,45.05,77.03,46.06,77.21,47.2z M71.88,48.47
			c-0.16-0.98-0.44-1.76-0.86-2.35c-0.41-0.58-0.87-0.99-1.38-1.22c-0.5-0.23-1.02-0.34-1.53-0.35c-0.52,0-1.04,0.05-1.58,0.13
			l-2.2,0.35l1.52,9.51l2.32-0.37c0.82-0.13,1.49-0.37,2.01-0.7c0.52-0.33,0.92-0.75,1.2-1.25c0.28-0.5,0.47-1.07,0.55-1.71
			C72.01,49.87,71.99,49.19,71.88,48.47z"/>
		<path class="st1" d="M65.68,70.15c-0.55,0.09-1,0.13-1.38,0.15c-0.42,0.01-0.75-0.01-1.04-0.06c-0.42-0.09-0.74-0.26-0.97-0.51
			c-0.22-0.23-0.37-0.54-0.42-0.86l-4.02-25.22c-0.15-0.92-0.02-1.69,0.39-2.29c0.42-0.61,1.05-0.99,1.82-1.12l5.99-0.96
			c0.63-0.1,1.24-0.17,1.82-0.2c0.58-0.04,1.29-0.04,2.12,0.01c0.88,0.05,1.81,0.26,2.74,0.62c0.96,0.36,1.82,0.89,2.56,1.57
			c0.75,0.67,1.37,1.51,1.86,2.49c0.47,0.95,0.81,2.06,1.01,3.29c0.27,1.68,0.26,3.23,0,4.62c-0.28,1.42-0.83,2.69-1.63,3.76
			c-0.79,1.07-1.85,1.97-3.14,2.67c-1.26,0.68-2.79,1.16-4.56,1.45l-1.18,0.19l1.28,8.01c0.05,0.34,0,0.68-0.16,0.99
			c-0.15,0.3-0.41,0.55-0.76,0.75c-0.26,0.14-0.57,0.27-0.95,0.38C66.69,69.96,66.23,70.06,65.68,70.15z M63.72,68.38
			c0.12,0.01,0.28,0.02,0.53,0.01c0.61-0.02,1.68-0.19,2.26-0.36c0.3-0.09,0.47-0.16,0.56-0.22l-1.62-9.66l3.06-0.49
			c1.56-0.25,2.89-0.66,3.96-1.24c1.04-0.56,1.89-1.28,2.52-2.13c0.62-0.84,1.06-1.85,1.28-2.99c0.23-1.17,0.23-2.5-0.01-3.95
			c-0.17-1.04-0.45-1.97-0.84-2.75c-0.38-0.76-0.85-1.41-1.42-1.92c-0.57-0.52-1.23-0.92-1.97-1.2c-0.75-0.29-1.48-0.45-2.17-0.49
			c-0.74-0.04-1.37-0.05-1.89-0.01c-0.53,0.04-1.07,0.1-1.64,0.19l-5.99,0.96c-0.33,0.05-0.47,0.2-0.55,0.31
			c-0.11,0.17-0.15,0.5-0.08,0.92L63.72,68.38z M68.31,55.11l-3.26,0.52l-1.82-11.39l3.14-0.5c0.58-0.09,1.16-0.14,1.73-0.14
			c0.66,0,1.3,0.14,1.93,0.43c0.66,0.3,1.25,0.81,1.76,1.54c0.5,0.7,0.84,1.63,1.02,2.75c0.13,0.82,0.15,1.6,0.05,2.32
			c-0.1,0.75-0.32,1.44-0.67,2.05c-0.35,0.63-0.86,1.16-1.51,1.58C70.06,54.68,69.26,54.96,68.31,55.11z M66.63,53.46l1.38-0.22
			c0.69-0.11,1.24-0.3,1.64-0.56c0.39-0.25,0.68-0.55,0.89-0.92c0.22-0.39,0.37-0.85,0.43-1.36c0.07-0.55,0.06-1.14-0.04-1.78
			c-0.13-0.83-0.36-1.49-0.69-1.95c-0.32-0.44-0.65-0.75-1-0.9c-0.39-0.18-0.76-0.26-1.14-0.26c-0.46,0-0.94,0.04-1.43,0.12
			l-1.26,0.2L66.63,53.46z"/>
	</g>
	<g>
		<path class="st1" d="M99.83,61.31c0.07,0.42,0.11,0.77,0.12,1.06c0.01,0.29,0,0.52-0.04,0.71c-0.04,0.18-0.1,0.32-0.18,0.42
			c-0.09,0.1-0.19,0.15-0.31,0.17L86.66,65.7c-0.43,0.07-0.82-0.02-1.16-0.25c-0.34-0.24-0.56-0.67-0.66-1.31l-3.9-24.44
			c-0.1-0.64-0.03-1.12,0.22-1.45c0.25-0.33,0.59-0.52,1.02-0.59l12.68-2.02c0.12-0.02,0.23,0,0.33,0.06c0.1,0.06,0.2,0.17,0.3,0.34
			c0.09,0.17,0.18,0.39,0.26,0.67c0.08,0.28,0.15,0.63,0.22,1.07c0.06,0.41,0.1,0.75,0.11,1.03c0.01,0.29,0,0.52-0.04,0.71
			c-0.04,0.19-0.1,0.33-0.18,0.42c-0.08,0.09-0.17,0.15-0.29,0.17l-9.07,1.45l1.09,6.84l7.67-1.22c0.12-0.02,0.23,0.01,0.34,0.07
			c0.11,0.06,0.21,0.18,0.31,0.33c0.09,0.16,0.18,0.37,0.25,0.65c0.08,0.28,0.15,0.62,0.21,1.02c0.07,0.42,0.11,0.77,0.12,1.05
			c0.01,0.28-0.01,0.51-0.04,0.68c-0.04,0.18-0.1,0.31-0.19,0.4c-0.09,0.09-0.19,0.14-0.31,0.16l-7.67,1.22l1.26,7.91l9.15-1.46
			c0.12-0.02,0.23,0,0.34,0.07c0.11,0.06,0.21,0.18,0.31,0.34c0.09,0.16,0.18,0.38,0.25,0.66C99.69,60.55,99.77,60.9,99.83,61.31z"
			/>
		<path class="st1" d="M99.57,64.61l-12.76,2.04c-0.67,0.11-1.31-0.03-1.85-0.41c-0.56-0.39-0.91-1.04-1.06-1.94l-3.9-24.44
			c-0.14-0.9-0.01-1.63,0.4-2.17c0.4-0.52,0.96-0.86,1.63-0.96l12.68-2.02c0.32-0.05,0.65,0,0.94,0.17
			c0.27,0.16,0.49,0.39,0.67,0.71c0.13,0.25,0.24,0.53,0.34,0.87c0.09,0.31,0.17,0.7,0.25,1.18c0.07,0.45,0.11,0.82,0.13,1.14
			c0.01,0.37,0,0.67-0.05,0.93c-0.08,0.35-0.2,0.63-0.39,0.84c-0.22,0.27-0.52,0.44-0.87,0.5l-8.13,1.3l0.79,4.97l6.74-1.08
			c0.33-0.05,0.66,0.01,0.96,0.18c0.26,0.16,0.47,0.37,0.65,0.66c0.14,0.25,0.26,0.53,0.36,0.88c0.09,0.31,0.17,0.69,0.24,1.13
			c0.07,0.46,0.12,0.85,0.13,1.16c0.01,0.37-0.01,0.67-0.06,0.92c-0.09,0.37-0.23,0.65-0.44,0.86c-0.22,0.23-0.51,0.39-0.84,0.44
			l-6.74,1.08l0.96,6.03l8.21-1.31c0.33-0.05,0.66,0.01,0.97,0.18c0.26,0.15,0.48,0.37,0.66,0.69c0.13,0.24,0.24,0.52,0.35,0.87
			c0.09,0.3,0.17,0.69,0.24,1.15c0.07,0.46,0.12,0.86,0.13,1.17c0.01,0.36-0.01,0.66-0.05,0.92c-0.08,0.37-0.21,0.65-0.41,0.88
			C100.2,64.39,99.91,64.55,99.57,64.61z M82.34,38.61c-0.24,0.04-0.35,0.14-0.41,0.23c-0.06,0.08-0.11,0.31-0.04,0.72L85.78,64
			c0.06,0.41,0.18,0.62,0.26,0.67c0.09,0.06,0.22,0.13,0.46,0.09L99,62.77c0-0.07,0.01-0.2,0-0.36c-0.01-0.26-0.05-0.57-0.11-0.94
			c-0.06-0.37-0.12-0.68-0.19-0.93c-0.04-0.16-0.08-0.27-0.12-0.34l-9.81,1.57l-1.56-9.79l8.36-1.33c0-0.06,0-0.17,0-0.31
			c-0.01-0.24-0.05-0.55-0.11-0.93c-0.06-0.37-0.12-0.67-0.19-0.92c-0.04-0.15-0.08-0.25-0.11-0.32l-8.34,1.33l-1.39-8.72l9.72-1.55
			c0.01-0.08,0.01-0.2,0-0.36c-0.01-0.25-0.04-0.56-0.1-0.92c-0.06-0.39-0.13-0.71-0.2-0.96c-0.04-0.15-0.08-0.26-0.11-0.34
			L82.34,38.61z"/>
	</g>
	<g>
		<path class="st1" d="M121.85,55.74c0.06,0.36,0.09,0.67,0.12,0.92c0.02,0.26,0.02,0.48,0.02,0.66c-0.01,0.19-0.04,0.35-0.08,0.49
			c-0.04,0.14-0.13,0.3-0.24,0.5c-0.12,0.19-0.36,0.45-0.73,0.77c-0.37,0.32-0.84,0.65-1.39,0.99c-0.56,0.33-1.21,0.64-1.95,0.92
			c-0.74,0.28-1.55,0.49-2.44,0.63c-1.74,0.28-3.36,0.23-4.85-0.14c-1.49-0.37-2.83-1.06-4-2.08c-1.17-1.02-2.15-2.37-2.96-4.05
			c-0.81-1.68-1.39-3.69-1.76-6.03c-0.38-2.38-0.43-4.54-0.15-6.48c0.28-1.94,0.84-3.62,1.67-5.04c0.83-1.42,1.92-2.57,3.26-3.45
			c1.34-0.88,2.88-1.46,4.62-1.74c0.7-0.11,1.39-0.16,2.07-0.13c0.67,0.02,1.31,0.09,1.9,0.22c0.59,0.12,1.13,0.28,1.62,0.49
			c0.49,0.2,0.84,0.39,1.04,0.55c0.21,0.17,0.35,0.31,0.44,0.43c0.08,0.12,0.16,0.28,0.23,0.47c0.07,0.2,0.14,0.43,0.2,0.7
			c0.07,0.27,0.13,0.61,0.19,1.01c0.07,0.43,0.11,0.81,0.14,1.11c0.02,0.31,0.01,0.56-0.02,0.76c-0.04,0.2-0.09,0.35-0.17,0.45
			c-0.08,0.1-0.18,0.16-0.29,0.18c-0.2,0.03-0.47-0.06-0.81-0.26c-0.34-0.2-0.78-0.42-1.3-0.66c-0.53-0.23-1.14-0.42-1.84-0.57
			c-0.7-0.15-1.51-0.15-2.43,0c-1.01,0.16-1.87,0.53-2.59,1.11c-0.72,0.58-1.29,1.34-1.71,2.27c-0.42,0.94-0.68,2.02-0.77,3.27
			c-0.1,1.25-0.03,2.62,0.21,4.12c0.26,1.65,0.64,3.05,1.15,4.21c0.5,1.16,1.09,2.08,1.79,2.77c0.69,0.69,1.47,1.16,2.34,1.41
			c0.86,0.26,1.8,0.3,2.81,0.14c0.91-0.15,1.69-0.39,2.32-0.73c0.63-0.34,1.16-0.7,1.59-1.06c0.44-0.37,0.78-0.69,1.05-0.97
			c0.27-0.28,0.49-0.43,0.66-0.46c0.13-0.02,0.24-0.01,0.33,0.04c0.09,0.05,0.17,0.15,0.25,0.32c0.08,0.16,0.16,0.4,0.23,0.7
			C121.69,54.8,121.77,55.22,121.85,55.74z"/>
		<path class="st1" d="M115.29,62.57c-1.86,0.3-3.62,0.24-5.23-0.15c-1.64-0.41-3.12-1.18-4.39-2.29c-1.26-1.11-2.34-2.57-3.19-4.35
			c-0.84-1.75-1.46-3.86-1.85-6.29c-0.39-2.46-0.44-4.74-0.15-6.77c0.29-2.05,0.9-3.86,1.79-5.39c0.91-1.55,2.11-2.81,3.57-3.77
			c2.04-1.34,4.7-2.12,7.25-2.03c0.73,0.03,1.42,0.11,2.05,0.24c0.65,0.13,1.25,0.31,1.79,0.54c0.59,0.24,0.99,0.46,1.27,0.69
			c0.28,0.22,0.48,0.42,0.62,0.62c0.14,0.2,0.26,0.43,0.36,0.7c0.08,0.23,0.16,0.5,0.23,0.81c0.07,0.29,0.13,0.65,0.2,1.08
			c0.07,0.46,0.12,0.86,0.15,1.19c0.03,0.39,0.02,0.71-0.03,0.99c-0.07,0.36-0.18,0.63-0.35,0.86c-0.54,0.69-1.34,0.76-2.35,0.17
			c-0.31-0.19-0.71-0.39-1.2-0.61c-0.46-0.21-1.02-0.38-1.65-0.51c-1.21-0.26-3.08,0-4.22,0.92c-0.61,0.49-1.08,1.12-1.44,1.92
			c-0.38,0.83-0.61,1.83-0.69,2.95c-0.09,1.18-0.02,2.49,0.2,3.9c0.25,1.56,0.61,2.89,1.08,3.98c0.45,1.04,0.98,1.87,1.58,2.47
			c0.58,0.57,1.23,0.97,1.94,1.18c1.4,0.42,3.31,0.08,4.4-0.52c0.57-0.31,1.05-0.63,1.44-0.96c0.4-0.34,0.73-0.64,0.98-0.9
			c0.81-0.84,1.54-0.91,2.12-0.6c0.27,0.14,0.49,0.38,0.66,0.73c0.11,0.23,0.21,0.53,0.31,0.91c0.08,0.32,0.16,0.76,0.25,1.32
			c0.06,0.39,0.1,0.72,0.13,0.99c0.03,0.31,0.03,0.57,0.02,0.79c-0.01,0.26-0.05,0.5-0.12,0.72c-0.08,0.23-0.19,0.46-0.35,0.72
			c-0.17,0.27-0.46,0.58-0.91,0.98c-0.41,0.36-0.93,0.73-1.53,1.09c-0.62,0.36-1.32,0.7-2.1,0.99
			C117.13,62.18,116.24,62.41,115.29,62.57z M111.12,33.55c-1.6,0.26-3.03,0.79-4.25,1.59c-1.22,0.8-2.21,1.85-2.97,3.14
			c-0.77,1.31-1.29,2.89-1.55,4.7c-0.26,1.84-0.21,3.92,0.15,6.2c0.36,2.25,0.92,4.19,1.68,5.77c0.74,1.55,1.66,2.81,2.73,3.74
			c1.04,0.92,2.25,1.55,3.6,1.88c1.36,0.33,2.87,0.37,4.47,0.12c0.83-0.13,1.59-0.33,2.26-0.58c0.67-0.25,1.28-0.54,1.8-0.85
			c0.5-0.3,0.92-0.6,1.25-0.89c0.43-0.38,0.54-0.54,0.55-0.56c0.11-0.17,0.14-0.26,0.15-0.28c0.01-0.04,0.03-0.12,0.04-0.25
			c0.01-0.15,0-0.33-0.01-0.53c-0.02-0.24-0.06-0.52-0.11-0.85c-0.08-0.49-0.15-0.87-0.22-1.16c0-0.01,0-0.02-0.01-0.03
			c-0.26,0.27-0.59,0.57-0.98,0.89c-0.49,0.41-1.08,0.8-1.75,1.17c-1.52,0.83-3.97,1.23-5.85,0.68c-1.02-0.3-1.94-0.85-2.74-1.66
			c-0.77-0.76-1.45-1.8-1.99-3.07c-0.53-1.23-0.94-2.72-1.21-4.43c-0.25-1.56-0.33-3.02-0.22-4.35c0.1-1.34,0.39-2.55,0.86-3.58
			c0.48-1.06,1.14-1.95,1.97-2.62c1.59-1.28,4.06-1.66,5.81-1.3c0.76,0.16,1.45,0.38,2.04,0.63c0.5,0.22,0.92,0.43,1.26,0.63
			c0-0.05-0.01-0.1-0.01-0.16c-0.02-0.28-0.07-0.62-0.13-1.03c-0.06-0.38-0.12-0.69-0.18-0.95c-0.06-0.23-0.11-0.42-0.17-0.59
			c-0.05-0.15-0.1-0.22-0.12-0.25l0,0c0,0-0.06-0.07-0.26-0.23c-0.07-0.06-0.27-0.2-0.82-0.42c-0.43-0.18-0.91-0.33-1.45-0.44
			c-0.53-0.11-1.11-0.17-1.74-0.2C112.4,33.41,111.76,33.45,111.12,33.55z"/>
	</g>
	<g>
		<path class="st1" d="M132.1,57.66c0.02,0.14,0,0.28-0.07,0.41c-0.07,0.13-0.19,0.25-0.38,0.35c-0.18,0.1-0.44,0.2-0.75,0.3
			c-0.32,0.1-0.74,0.18-1.25,0.27c-0.5,0.08-0.92,0.12-1.26,0.13c-0.34,0.01-0.62-0.01-0.82-0.05c-0.21-0.04-0.37-0.11-0.47-0.22
			c-0.1-0.1-0.17-0.22-0.19-0.37l-4.23-26.48c-0.02-0.14,0-0.28,0.07-0.41c0.06-0.13,0.2-0.25,0.39-0.35c0.19-0.1,0.45-0.2,0.77-0.3
			c0.32-0.1,0.73-0.18,1.23-0.26c0.51-0.08,0.93-0.13,1.27-0.13c0.33-0.01,0.6,0.01,0.81,0.05c0.21,0.04,0.37,0.11,0.47,0.22
			c0.1,0.1,0.17,0.22,0.19,0.37L132.1,57.66z"/>
		<path class="st1" d="M129.8,59.92c-0.54,0.09-1,0.13-1.37,0.14c-0.42,0.01-0.75-0.01-1.04-0.06c-0.4-0.09-0.72-0.24-0.96-0.48
			c-0.24-0.24-0.4-0.55-0.46-0.89l-4.23-26.48c-0.06-0.35,0-0.69,0.16-1c0.15-0.29,0.41-0.54,0.77-0.74
			c0.26-0.14,0.58-0.26,0.95-0.38c0.73-0.21,2.02-0.42,2.74-0.44c0.41-0.01,0.74,0.01,1.02,0.07c0.4,0.08,0.72,0.23,0.95,0.47
			c0.26,0.25,0.42,0.56,0.47,0.9l4.23,26.48c0.05,0.34,0,0.68-0.16,0.99c-0.16,0.31-0.41,0.55-0.76,0.75
			c-0.25,0.14-0.56,0.27-0.95,0.38C130.82,59.73,130.36,59.83,129.8,59.92z M127.82,58.14c0.13,0.02,0.29,0.03,0.55,0.02
			c0.61-0.02,1.69-0.19,2.26-0.36c0.32-0.1,0.49-0.17,0.56-0.22l-4.23-26.06c-0.13-0.02-0.29-0.03-0.54-0.02
			c-0.58,0.02-1.66,0.19-2.25,0.36c-0.31,0.09-0.49,0.17-0.58,0.23L127.82,58.14z"/>
	</g>
	<g>
		<path class="st1" d="M159.03,51.98c0.24,0.49,0.4,0.89,0.49,1.19c0.09,0.3,0.07,0.54-0.05,0.71c-0.12,0.18-0.36,0.31-0.72,0.4
			c-0.36,0.1-0.86,0.19-1.5,0.3c-0.67,0.11-1.19,0.18-1.56,0.22c-0.38,0.04-0.67,0.04-0.87,0.01c-0.21-0.04-0.36-0.1-0.46-0.21
			c-0.09-0.1-0.19-0.24-0.27-0.42l-2.61-5.36l-9.54,1.52l-0.73,5.74c-0.02,0.21-0.06,0.39-0.12,0.54c-0.07,0.15-0.19,0.28-0.36,0.39
			c-0.18,0.11-0.44,0.21-0.78,0.29c-0.34,0.08-0.79,0.17-1.36,0.26c-0.6,0.1-1.08,0.15-1.43,0.16c-0.35,0.01-0.6-0.06-0.75-0.2
			c-0.16-0.14-0.24-0.37-0.25-0.68c-0.01-0.31,0.02-0.73,0.1-1.26l3.86-26.12c0.04-0.26,0.1-0.47,0.18-0.64
			c0.08-0.17,0.22-0.31,0.44-0.43c0.22-0.11,0.53-0.22,0.93-0.3c0.4-0.09,0.94-0.18,1.61-0.29c0.77-0.12,1.39-0.21,1.85-0.26
			c0.46-0.05,0.82-0.06,1.09-0.02c0.26,0.04,0.47,0.13,0.61,0.27c0.13,0.14,0.26,0.34,0.38,0.6L159.03,51.98z M144.09,33.28l-0.02,0
			l-1.69,12.49l7.2-1.15L144.09,33.28z"/>
		<path class="st1" d="M157.4,55.51c-0.69,0.11-1.23,0.18-1.62,0.22c-0.46,0.05-0.82,0.05-1.12,0c-0.42-0.07-0.75-0.24-1-0.49
			c-0.17-0.18-0.32-0.42-0.44-0.69l-2.29-4.7l-8.14,1.3l-0.65,5.03c-0.03,0.28-0.09,0.54-0.19,0.78c-0.14,0.34-0.4,0.63-0.74,0.84
			c-0.27,0.17-0.61,0.3-1.05,0.4c-0.75,0.18-2.25,0.42-2.97,0.45c-0.61,0.02-1.09-0.13-1.43-0.45c-0.35-0.32-0.54-0.78-0.56-1.35
			c-0.01-0.35,0.03-0.83,0.11-1.43l3.87-26.12c0.05-0.37,0.14-0.67,0.27-0.92c0.16-0.34,0.44-0.63,0.84-0.84
			c0.31-0.17,0.69-0.29,1.18-0.4c0.89-0.19,2.67-0.47,3.55-0.57c0.54-0.06,0.97-0.07,1.33-0.01c0.48,0.07,0.87,0.25,1.15,0.55
			c0.21,0.22,0.4,0.5,0.57,0.87l11.81,23.57c0.28,0.57,0.46,1.01,0.56,1.35c0.21,0.72,0.02,1.22-0.18,1.5
			c-0.26,0.38-0.68,0.64-1.27,0.79C158.61,55.3,158.08,55.4,157.4,55.51z M141.09,49.5l10.94-1.75l2.92,6
			c0.07,0.11,0.25,0.13,0.65,0.09c0.7-0.07,2.22-0.3,2.91-0.49c0.03,0,0.05-0.01,0.06-0.02c-0.09-0.29-0.22-0.59-0.4-0.95
			l-11.81-23.58c-0.12-0.25-0.19-0.34-0.22-0.37c-0.16-0.01-0.42-0.03-0.91,0.03c-0.84,0.09-2.52,0.36-3.36,0.53
			c-0.41,0.09-0.61,0.18-0.68,0.22c-0.06,0.05-0.1,0.15-0.13,0.36l-3.86,26.12c-0.07,0.46-0.1,0.82-0.09,1.09
			c0.66-0.09,1.95-0.27,2.61-0.44c0.34-0.08,0.47-0.15,0.51-0.17c0,0,0,0,0,0s0.02-0.09,0.04-0.22L141.09,49.5z M150.99,45.36
			l-9.73,1.55l1.96-14.46l1.41-0.23L150.99,45.36z M143.49,44.63l4.68-0.75l-3.57-7.38L143.49,44.63z"/>
	</g>
	<g>
		<path class="st1" d="M177.3,48.8c0.07,0.43,0.11,0.8,0.12,1.1c0.02,0.3,0.01,0.55-0.03,0.76c-0.03,0.21-0.09,0.36-0.18,0.46
			c-0.09,0.1-0.19,0.16-0.32,0.18l-11.64,1.86c-0.43,0.07-0.82-0.02-1.16-0.25c-0.34-0.24-0.56-0.67-0.66-1.31l-4.06-25.46
			c-0.02-0.14,0-0.28,0.07-0.41c0.07-0.13,0.19-0.25,0.38-0.35c0.19-0.1,0.44-0.2,0.76-0.3c0.33-0.1,0.74-0.19,1.24-0.26
			c0.51-0.08,0.93-0.13,1.27-0.13c0.33-0.01,0.61,0.01,0.81,0.05c0.21,0.04,0.37,0.11,0.47,0.22c0.1,0.1,0.17,0.22,0.19,0.37
			l3.6,22.55l7.99-1.27c0.13-0.02,0.25,0,0.36,0.06c0.11,0.06,0.21,0.18,0.31,0.35c0.09,0.17,0.18,0.4,0.26,0.69
			C177.16,48,177.24,48.36,177.3,48.8z"/>
		<path class="st1" d="M177.05,52.24l-11.64,1.86c-0.67,0.11-1.3-0.03-1.85-0.4c-0.56-0.39-0.92-1.04-1.06-1.94l-4.06-25.46
			c-0.05-0.34,0-0.68,0.16-0.99c0.16-0.31,0.41-0.55,0.76-0.75c0.26-0.14,0.57-0.27,0.96-0.39c0.75-0.21,2.03-0.41,2.75-0.44
			c0.41-0.01,0.74,0.01,1.02,0.07c0.4,0.09,0.72,0.24,0.96,0.48c0.24,0.24,0.4,0.55,0.46,0.89l3.45,21.61l7.05-1.13
			c0.34-0.05,0.67,0.01,0.97,0.17c0.28,0.16,0.5,0.4,0.68,0.72c0.13,0.24,0.25,0.54,0.35,0.9c0.09,0.31,0.17,0.71,0.25,1.19
			c0.08,0.47,0.12,0.88,0.13,1.21c0.02,0.36,0.01,0.68-0.04,0.96c-0.06,0.37-0.19,0.67-0.38,0.9
			C177.71,52.01,177.4,52.19,177.05,52.24z M161.97,25.77c-0.45,0.07-0.83,0.15-1.12,0.24c-0.32,0.1-0.5,0.18-0.57,0.22l4.09,25.24
			c0.08,0.53,0.24,0.65,0.26,0.67c0.14,0.09,0.28,0.12,0.47,0.09l11.38-1.82c0-0.1,0-0.25-0.01-0.46c-0.01-0.28-0.05-0.61-0.11-1
			c-0.06-0.39-0.13-0.72-0.2-0.98c-0.05-0.18-0.09-0.3-0.13-0.38l-8.66,1.38l-3.72-23.3c-0.12-0.02-0.29-0.03-0.54-0.02
			C162.82,25.65,162.44,25.69,161.97,25.77z"/>
	</g>
</g>
</svg>
