<!-- Generator: Adobe Illustrator 23.0.1, SVG Export Plug-In  -->
<svg version="1.1" xmlns="http://www.w3.org/2000/svg" xmlns:xlink="http://www.w3.org/1999/xlink" x="0px" y="0px"
	 width="165.81px" height="64.95px" viewBox="0 0 165.81 64.95" style="enable-background:new 0 0 165.81 64.95;"
	 xml:space="preserve">
<style type="text/css">
	.st0{fill:#F9F6F2;}
	.st1{fill:#45FF00;}
	.st2{fill:none;stroke:#E5DED8;stroke-width:0.25;stroke-miterlimit:10;}
	.st3{opacity:0.3;}
	.st4{opacity:0.36;}
</style>
<defs>
</defs>
<path class="st0" d="M164.25,26.94c-6.92-7.48-9.31-14.69-10.06-19.77V0h-0.03h-0.05v0l0,0H11.67l0,0v0h-0.05h-0.03v7.16
	c-0.75,5.08-3.14,12.29-10.06,19.77c0,0-1.83,2.99-1.49,5.29c-0.35,2.34,1.49,5.37,1.49,5.37c6.92,7.6,9.31,14.92,10.06,20.08v7.28
	h0.03h142.55h0.03v-7.28c0.75-5.16,3.14-12.48,10.06-20.08c0,0,1.83-3.04,1.49-5.37C166.08,29.93,164.25,26.94,164.25,26.94z"/>
<g>
	<path class="st1" d="M12.2,0L12.2,0L12.2,0h-0.05h-0.03v7.16c-0.75,5.08-3.14,12.29-10.06,19.77c0,0-1.83,2.99-1.49,5.29
		c-0.35,2.34,1.49,5.37,1.49,5.37c6.92,7.6,9.31,14.92,10.06,20.08v7.28h0.03h2.64V0H12.2z"/>
</g>
<g>
	<path class="st1" d="M154.14,64.95L154.14,64.95L154.14,64.95h0.05h0.03v-7.16c0.75-5.08,3.14-12.29,10.06-19.77
		c0,0,1.83-2.99,1.49-5.29c0.35-2.34-1.49-5.37-1.49-5.37c-6.92-7.6-9.31-14.92-10.06-20.08V0h-0.03h-2.64v64.95H154.14z"/>
</g>
<line class="st2" x1="39.34" y1="8.85" x2="125.67" y2="8.85"/>
<line class="st2" x1="125.48" y1="5.48" x2="125.48" y2="12.22"/>
<line class="st2" x1="125.28" y1="5.48" x2="125.28" y2="12.22"/>
<line class="st2" x1="39.74" y1="5.48" x2="39.74" y2="12.22"/>
<g>
	<path class="st1" d="M115.15,22.27c-0.1-0.08-0.23-0.14-0.38-0.19c-0.16-0.04-0.35-0.07-0.57-0.06l-1.04,0.01l-0.49,2.57l0.88-0.01
		c0.35,0,0.64-0.06,0.89-0.16c0.24-0.1,0.43-0.23,0.58-0.39c0.15-0.16,0.25-0.34,0.32-0.53c0.06-0.19,0.1-0.39,0.1-0.59
		c0-0.13-0.02-0.25-0.07-0.36C115.32,22.44,115.25,22.35,115.15,22.27z"/>
	<polygon class="st1" points="105.89,22.42 103.91,26.29 106.46,26.27 105.9,22.42 	"/>
	<path class="st1" d="M75.36,22.99c-0.18-0.18-0.41-0.32-0.69-0.42c-0.28-0.1-0.65-0.15-1.12-0.15l-0.96,0.01l-1.18,6.17l0.97-0.01
		c0.49-0.01,0.9-0.07,1.23-0.19c0.33-0.12,0.63-0.29,0.88-0.5c0.25-0.21,0.47-0.45,0.64-0.73c0.18-0.28,0.32-0.56,0.43-0.87
		c0.11-0.3,0.19-0.61,0.24-0.93c0.05-0.32,0.07-0.63,0.07-0.93c0-0.29-0.05-0.56-0.13-0.81C75.67,23.39,75.54,23.17,75.36,22.99z"/>
	<path class="st1" d="M52.53,22.68c-0.1-0.03-0.21-0.05-0.33-0.06c-0.12-0.01-0.26-0.01-0.41-0.01l-0.81,0.01l-0.58,3.08l0.84-0.01
		c0.27,0,0.49-0.03,0.68-0.1c0.19-0.06,0.35-0.15,0.49-0.25c0.14-0.11,0.26-0.23,0.36-0.37c0.1-0.14,0.18-0.29,0.24-0.44
		c0.06-0.15,0.11-0.31,0.13-0.47c0.03-0.15,0.04-0.31,0.04-0.45c0-0.22-0.06-0.41-0.16-0.58C52.92,22.86,52.75,22.75,52.53,22.68z"
		/>
	<path class="st1" d="M137.82,17.43H25.35l3.17,14.79h112.47L137.82,17.43z M47.31,22.08c-0.01,0.07-0.02,0.15-0.03,0.23
		c-0.01,0.08-0.03,0.17-0.05,0.26c-0.02,0.09-0.05,0.16-0.07,0.24c-0.03,0.07-0.06,0.13-0.1,0.18c-0.04,0.05-0.08,0.07-0.12,0.07
		c-0.06,0-0.15-0.03-0.24-0.08c-0.1-0.06-0.22-0.12-0.36-0.19c-0.14-0.06-0.31-0.13-0.5-0.19c-0.19-0.05-0.41-0.08-0.65-0.08
		c-0.25,0-0.47,0.04-0.64,0.11c-0.17,0.07-0.32,0.16-0.43,0.28c-0.11,0.12-0.19,0.25-0.25,0.39c-0.05,0.14-0.08,0.28-0.07,0.43
		c0,0.17,0.04,0.32,0.13,0.45c0.08,0.13,0.2,0.24,0.34,0.35c0.14,0.11,0.3,0.21,0.48,0.31c0.18,0.1,0.37,0.21,0.55,0.32
		c0.19,0.11,0.37,0.23,0.55,0.36c0.18,0.13,0.34,0.28,0.49,0.46c0.14,0.17,0.25,0.37,0.34,0.6c0.09,0.22,0.13,0.48,0.13,0.78
		c0,0.44-0.08,0.85-0.25,1.23c-0.17,0.38-0.42,0.71-0.75,0.99c-0.32,0.28-0.71,0.5-1.17,0.67c-0.46,0.16-0.97,0.25-1.53,0.25
		c-0.3,0-0.58-0.02-0.84-0.06c-0.26-0.05-0.49-0.11-0.68-0.17c-0.2-0.07-0.37-0.14-0.5-0.22c-0.14-0.07-0.24-0.15-0.3-0.22
		c-0.07-0.07-0.1-0.17-0.1-0.31c0-0.04,0-0.09,0.01-0.17c0.01-0.07,0.02-0.15,0.03-0.24c0.02-0.09,0.04-0.18,0.06-0.27
		c0.02-0.09,0.05-0.17,0.08-0.25c0.03-0.08,0.07-0.14,0.11-0.18c0.04-0.05,0.08-0.07,0.13-0.07c0.08,0,0.17,0.04,0.28,0.11
		c0.11,0.07,0.25,0.15,0.41,0.24c0.16,0.09,0.36,0.16,0.58,0.24c0.23,0.07,0.49,0.11,0.81,0.11c0.28,0,0.52-0.04,0.72-0.11
		c0.21-0.07,0.38-0.17,0.52-0.29c0.14-0.12,0.24-0.26,0.32-0.43c0.07-0.16,0.11-0.34,0.1-0.53c0-0.17-0.04-0.33-0.13-0.45
		c-0.08-0.13-0.2-0.25-0.33-0.36c-0.14-0.11-0.3-0.21-0.47-0.31c-0.17-0.1-0.36-0.2-0.54-0.31c-0.18-0.11-0.36-0.23-0.54-0.36
		c-0.18-0.13-0.33-0.28-0.47-0.45c-0.14-0.17-0.25-0.37-0.34-0.6c-0.09-0.23-0.13-0.49-0.13-0.8c0-0.42,0.07-0.8,0.24-1.16
		c0.16-0.36,0.39-0.66,0.69-0.92c0.3-0.26,0.65-0.46,1.07-0.61c0.41-0.15,0.87-0.22,1.37-0.23c0.23,0,0.45,0.01,0.66,0.05
		c0.21,0.03,0.41,0.08,0.58,0.13c0.17,0.06,0.32,0.11,0.44,0.18c0.12,0.06,0.2,0.12,0.25,0.16c0.05,0.04,0.08,0.09,0.1,0.14
		c0.02,0.05,0.03,0.11,0.03,0.19C47.32,21.96,47.32,22.01,47.31,22.08z M55.05,24.19c-0.05,0.28-0.15,0.56-0.28,0.84
		c-0.13,0.27-0.29,0.54-0.5,0.78c-0.21,0.25-0.46,0.47-0.76,0.66c-0.3,0.19-0.65,0.35-1.04,0.46c-0.4,0.11-0.86,0.17-1.4,0.18
		l-0.94,0.01l-0.56,2.91c-0.01,0.05-0.03,0.09-0.07,0.13c-0.04,0.04-0.1,0.07-0.17,0.09c-0.08,0.02-0.18,0.04-0.3,0.06
		c-0.12,0.01-0.27,0.02-0.45,0.02c-0.17,0-0.32,0-0.43-0.02c-0.11-0.01-0.2-0.02-0.27-0.05c-0.06-0.02-0.11-0.05-0.13-0.08
		c-0.02-0.04-0.03-0.08-0.02-0.13l1.56-8.17c0.04-0.22,0.13-0.39,0.27-0.5c0.14-0.11,0.31-0.17,0.52-0.17l1.98-0.02
		c0.24,0,0.46,0,0.65,0.02c0.19,0.02,0.38,0.04,0.57,0.07c0.28,0.05,0.54,0.14,0.77,0.25c0.23,0.11,0.42,0.26,0.58,0.43
		c0.16,0.18,0.28,0.38,0.37,0.61c0.09,0.24,0.13,0.5,0.13,0.8C55.13,23.64,55.1,23.91,55.05,24.19z M62.29,21.5
		c-0.01,0.07-0.02,0.15-0.03,0.24c-0.02,0.09-0.03,0.18-0.05,0.27c-0.02,0.09-0.05,0.18-0.09,0.25c-0.03,0.08-0.07,0.14-0.12,0.19
		c-0.05,0.05-0.1,0.08-0.16,0.08l-3.23,0.03l-0.43,2.22l2.74-0.02c0.06,0,0.11,0.02,0.14,0.07c0.03,0.05,0.04,0.11,0.04,0.19
		c0,0.03,0,0.08-0.01,0.15c-0.01,0.07-0.02,0.15-0.03,0.23c-0.02,0.09-0.03,0.17-0.06,0.26c-0.02,0.09-0.05,0.17-0.08,0.25
		c-0.03,0.07-0.07,0.13-0.12,0.18c-0.05,0.05-0.1,0.07-0.15,0.07l-2.74,0.03l-0.5,2.56l3.27-0.03c0.06,0,0.1,0.02,0.13,0.07
		c0.03,0.05,0.04,0.12,0.04,0.21c0,0.03,0,0.08-0.01,0.15c-0.01,0.07-0.01,0.15-0.03,0.24c-0.01,0.09-0.03,0.17-0.06,0.26
		c-0.02,0.09-0.05,0.17-0.09,0.25c-0.03,0.08-0.07,0.14-0.12,0.19c-0.04,0.05-0.1,0.07-0.16,0.07l-4.55,0.04
		c-0.07,0-0.14-0.01-0.2-0.03c-0.06-0.02-0.11-0.05-0.15-0.1s-0.07-0.11-0.08-0.18c-0.02-0.07-0.01-0.16,0-0.26l1.51-7.91
		c0.04-0.2,0.12-0.35,0.25-0.45c0.13-0.09,0.27-0.14,0.42-0.14l4.51-0.04c0.12,0,0.18,0.09,0.18,0.26
		C62.29,21.38,62.29,21.43,62.29,21.5z M69.28,21.44c-0.01,0.07-0.02,0.15-0.03,0.24c-0.01,0.09-0.03,0.18-0.05,0.27
		c-0.02,0.09-0.05,0.18-0.09,0.25c-0.03,0.08-0.07,0.15-0.12,0.2c-0.05,0.05-0.1,0.07-0.15,0.07L65.6,22.5l-0.43,2.22l2.74-0.02
		c0.06,0,0.11,0.02,0.14,0.07c0.03,0.04,0.05,0.11,0.05,0.19c0,0.03,0,0.08-0.01,0.15c-0.01,0.07-0.02,0.15-0.03,0.24
		c-0.01,0.09-0.03,0.17-0.05,0.26c-0.02,0.09-0.05,0.17-0.08,0.25c-0.04,0.07-0.08,0.13-0.12,0.18c-0.05,0.05-0.1,0.07-0.15,0.07
		l-2.74,0.02l-0.49,2.56l3.27-0.03c0.06,0,0.1,0.02,0.13,0.07s0.04,0.12,0.04,0.21c0,0.03,0,0.08,0,0.15
		c-0.01,0.07-0.02,0.15-0.03,0.24c-0.02,0.09-0.03,0.17-0.06,0.26c-0.03,0.09-0.05,0.18-0.09,0.25c-0.03,0.08-0.07,0.14-0.12,0.19
		c-0.05,0.05-0.1,0.07-0.16,0.07l-4.55,0.04c-0.07,0-0.14-0.01-0.2-0.03c-0.06-0.02-0.11-0.06-0.15-0.11
		c-0.04-0.05-0.07-0.11-0.08-0.18c-0.02-0.07-0.01-0.16,0-0.26l1.51-7.91c0.04-0.21,0.12-0.36,0.25-0.45
		c0.13-0.09,0.27-0.14,0.42-0.14l4.5-0.04c0.12,0,0.18,0.09,0.19,0.27C69.29,21.32,69.28,21.37,69.28,21.44z M77.76,25.11
		c-0.03,0.31-0.09,0.63-0.17,0.95c-0.08,0.33-0.19,0.65-0.32,0.97c-0.13,0.32-0.3,0.63-0.5,0.92c-0.2,0.29-0.45,0.57-0.72,0.82
		c-0.28,0.25-0.6,0.48-0.97,0.66c-0.37,0.19-0.78,0.33-1.24,0.44c-0.46,0.11-1.01,0.16-1.65,0.17l-2.3,0.02
		c-0.07,0-0.15-0.01-0.22-0.02c-0.07-0.02-0.12-0.05-0.17-0.1c-0.04-0.04-0.08-0.1-0.09-0.17c-0.02-0.07-0.02-0.17,0.01-0.28
		l1.51-7.91c0.03-0.2,0.11-0.35,0.24-0.45c0.12-0.09,0.27-0.14,0.45-0.14l2.18-0.02c0.72-0.01,1.32,0.06,1.8,0.19
		c0.48,0.14,0.89,0.34,1.22,0.62c0.33,0.27,0.58,0.61,0.74,1.01c0.16,0.41,0.25,0.88,0.25,1.42C77.81,24.5,77.79,24.8,77.76,25.11z
		 M85.92,21.18c-0.05,0.1-0.13,0.22-0.23,0.37l-3.43,4.97l-0.6,3.2c-0.02,0.05-0.04,0.09-0.07,0.13c-0.04,0.04-0.1,0.06-0.17,0.09
		c-0.07,0.02-0.17,0.04-0.29,0.06c-0.12,0.01-0.27,0.02-0.45,0.02c-0.18,0-0.32,0-0.44-0.01c-0.12-0.01-0.21-0.03-0.27-0.05
		c-0.06-0.02-0.11-0.05-0.13-0.09c-0.02-0.04-0.03-0.08-0.02-0.13l0.6-3.2l-1.53-4.92c-0.05-0.16-0.09-0.29-0.1-0.39
		c-0.01-0.1,0.01-0.17,0.06-0.22c0.06-0.05,0.15-0.08,0.29-0.09c0.14-0.02,0.34-0.02,0.59-0.03c0.19,0,0.35,0,0.46,0.01
		c0.11,0,0.2,0.02,0.27,0.04c0.06,0.02,0.11,0.05,0.14,0.1c0.03,0.04,0.05,0.1,0.07,0.17l0.63,2.17c0.07,0.26,0.14,0.51,0.19,0.75
		c0.06,0.24,0.11,0.48,0.15,0.73h0.01c0.13-0.25,0.26-0.5,0.4-0.74c0.14-0.24,0.28-0.49,0.44-0.73l1.43-2.23
		c0.04-0.06,0.08-0.11,0.12-0.15c0.04-0.04,0.1-0.07,0.17-0.1c0.07-0.02,0.17-0.04,0.3-0.05c0.12-0.01,0.29-0.02,0.5-0.02
		c0.27,0,0.48,0,0.62,0.02c0.14,0.02,0.24,0.05,0.28,0.11C85.97,21.01,85.97,21.09,85.92,21.18z M99.19,29.69
		c-0.03,0.04-0.08,0.06-0.15,0.09c-0.07,0.02-0.16,0.04-0.28,0.06c-0.11,0.01-0.26,0.02-0.43,0.02c-0.18,0-0.33,0-0.44-0.01
		c-0.11-0.01-0.2-0.03-0.26-0.05c-0.06-0.02-0.1-0.05-0.11-0.09c-0.02-0.04-0.02-0.08-0.01-0.13l1.4-7.39h-0.02l-4.04,7.4
		c-0.06,0.12-0.16,0.2-0.33,0.24c-0.16,0.04-0.39,0.07-0.68,0.07c-0.3,0-0.52-0.02-0.66-0.07c-0.13-0.05-0.2-0.12-0.21-0.2
		l-1.13-7.38h-0.01l-1.41,7.39c-0.01,0.05-0.03,0.09-0.06,0.13c-0.03,0.04-0.08,0.06-0.15,0.09c-0.07,0.02-0.16,0.04-0.27,0.06
		c-0.11,0.01-0.26,0.02-0.44,0.02c-0.18,0-0.32,0-0.43-0.01c-0.11-0.01-0.2-0.03-0.26-0.05c-0.06-0.02-0.1-0.05-0.12-0.09
		c-0.02-0.04-0.02-0.08-0.01-0.13l1.54-8.09c0.02-0.12,0.06-0.22,0.11-0.32c0.05-0.1,0.11-0.17,0.18-0.24
		c0.07-0.06,0.16-0.11,0.25-0.15c0.09-0.03,0.19-0.05,0.3-0.05l1.15-0.01c0.2,0,0.38,0.02,0.52,0.05c0.15,0.04,0.27,0.1,0.36,0.18
		c0.1,0.08,0.17,0.19,0.22,0.33c0.05,0.14,0.09,0.3,0.11,0.49l0.92,5.38h0.04l3.06-5.42c0.09-0.19,0.18-0.34,0.28-0.48
		c0.09-0.13,0.19-0.24,0.31-0.33c0.11-0.09,0.24-0.15,0.38-0.19c0.14-0.04,0.3-0.06,0.5-0.07l1.3-0.01c0.12,0,0.22,0.02,0.3,0.05
		c0.09,0.03,0.15,0.08,0.2,0.14c0.05,0.06,0.08,0.14,0.1,0.23c0.01,0.09,0.01,0.2-0.01,0.31l-1.53,8.09
		C99.23,29.61,99.21,29.65,99.19,29.69z M108.65,29.66c-0.06,0.05-0.16,0.08-0.31,0.09c-0.15,0.01-0.34,0.02-0.59,0.02
		c-0.18,0-0.32,0-0.43-0.01c-0.11-0.01-0.2-0.02-0.26-0.04c-0.06-0.02-0.11-0.04-0.13-0.08c-0.02-0.04-0.04-0.09-0.04-0.15
		l-0.26-1.82l-3.4,0.03l-0.92,1.78c-0.03,0.07-0.07,0.12-0.11,0.17c-0.04,0.05-0.1,0.08-0.18,0.1c-0.08,0.03-0.19,0.04-0.32,0.05
		c-0.13,0.01-0.3,0.02-0.5,0.02c-0.21,0-0.38-0.01-0.5-0.02c-0.12-0.01-0.2-0.05-0.24-0.1s-0.05-0.13-0.02-0.23
		c0.03-0.1,0.09-0.23,0.18-0.39l4.32-8.08c0.05-0.08,0.09-0.14,0.14-0.19c0.05-0.05,0.11-0.09,0.2-0.11
		c0.09-0.02,0.2-0.04,0.35-0.05c0.15-0.01,0.34-0.01,0.58-0.01c0.28,0,0.49,0,0.65,0c0.16,0,0.29,0.02,0.37,0.05
		c0.09,0.02,0.15,0.06,0.18,0.11c0.03,0.05,0.05,0.12,0.06,0.21l1.26,8.02c0.02,0.17,0.04,0.3,0.04,0.4
		C108.75,29.53,108.72,29.61,108.65,29.66z M117.29,23.45c-0.08,0.29-0.21,0.57-0.38,0.84c-0.17,0.26-0.4,0.5-0.68,0.71
		c-0.28,0.21-0.62,0.39-1.03,0.51c0.23,0.09,0.41,0.26,0.57,0.53c0.15,0.26,0.28,0.62,0.38,1.08l0.39,1.84
		c0.02,0.1,0.03,0.19,0.05,0.28c0.01,0.08,0.02,0.15,0.02,0.21c0,0.05-0.02,0.09-0.04,0.12c-0.03,0.03-0.09,0.06-0.16,0.08
		c-0.08,0.02-0.19,0.04-0.33,0.05c-0.14,0.01-0.31,0.02-0.52,0.02c-0.19,0-0.35,0-0.47-0.01c-0.12-0.01-0.21-0.03-0.28-0.05
		c-0.06-0.02-0.11-0.06-0.13-0.1c-0.02-0.04-0.04-0.09-0.05-0.15l-0.37-2c-0.04-0.23-0.09-0.44-0.15-0.61
		c-0.06-0.18-0.15-0.32-0.24-0.45c-0.1-0.11-0.22-0.2-0.36-0.26c-0.14-0.05-0.31-0.08-0.51-0.08l-0.57,0.01l-0.66,3.47
		c-0.01,0.05-0.03,0.09-0.07,0.13c-0.04,0.04-0.1,0.06-0.17,0.09c-0.07,0.02-0.17,0.04-0.29,0.06c-0.12,0.02-0.27,0.02-0.45,0.02
		c-0.18,0-0.32,0-0.44-0.01c-0.11-0.01-0.2-0.03-0.27-0.05c-0.06-0.02-0.11-0.05-0.13-0.09c-0.02-0.04-0.03-0.08-0.02-0.13
		l1.58-8.25c0.03-0.2,0.11-0.35,0.24-0.45c0.13-0.09,0.28-0.14,0.45-0.14l2.43-0.02c0.42,0,0.81,0.03,1.15,0.11
		c0.34,0.07,0.64,0.2,0.88,0.36c0.24,0.16,0.43,0.37,0.57,0.61c0.13,0.24,0.2,0.54,0.2,0.87C117.41,22.86,117.37,23.16,117.29,23.45
		z M125.33,20.96c-0.01,0.07-0.02,0.15-0.03,0.24c-0.02,0.09-0.04,0.18-0.06,0.28c-0.03,0.1-0.05,0.18-0.09,0.26
		c-0.03,0.08-0.07,0.14-0.12,0.19c-0.05,0.05-0.1,0.08-0.16,0.08l-2.27,0.02l-1.39,7.32c-0.01,0.05-0.04,0.09-0.07,0.12
		c-0.04,0.04-0.1,0.07-0.17,0.09c-0.08,0.02-0.17,0.04-0.29,0.06c-0.12,0.02-0.27,0.03-0.45,0.03c-0.18,0-0.32-0.01-0.44-0.02
		c-0.12-0.02-0.21-0.03-0.27-0.05c-0.06-0.02-0.11-0.06-0.13-0.09c-0.02-0.04-0.03-0.08-0.02-0.12l1.39-7.31l-2.25,0.02
		c-0.07,0-0.12-0.02-0.15-0.07c-0.03-0.05-0.04-0.12-0.04-0.21c0-0.04,0-0.09,0.01-0.16c0.01-0.07,0.02-0.15,0.03-0.24
		c0.01-0.09,0.03-0.19,0.06-0.28c0.02-0.1,0.06-0.18,0.09-0.27c0.04-0.08,0.08-0.14,0.12-0.19c0.05-0.05,0.1-0.07,0.15-0.07
		l6.39-0.06c0.06,0,0.1,0.03,0.13,0.07c0.03,0.05,0.05,0.12,0.05,0.22C125.33,20.84,125.33,20.89,125.33,20.96z"/>
</g>
<g class="st3">
	<path d="M71.97,53.04c0.48,0.36,1.61,0.95,2.84,1.04c2.28,0.17,3.09-1.23,3.15-2.32c0.11-1.83-1.48-2.74-3.19-2.87l-0.99-0.07
		l0.1-1.33l0.99,0.07c1.29,0.09,2.97-0.45,3.08-2c0.08-1.05-0.52-2.02-2.15-2.14c-1.05-0.08-2.09,0.31-2.68,0.68l-0.37-1.32
		c0.72-0.45,2.09-0.86,3.5-0.76c2.58,0.19,3.64,1.8,3.52,3.4c-0.1,1.35-0.99,2.44-2.64,2.91l0,0.04c1.59,0.44,2.81,1.74,2.68,3.58
		c-0.15,2.1-1.92,3.81-5.06,3.58c-1.47-0.11-2.73-0.66-3.34-1.13L71.97,53.04z"/>
	<path d="M83.96,54.9c0.05-0.75,0.6-1.23,1.3-1.18c0.71,0.05,1.15,0.61,1.1,1.36c-0.05,0.73-0.56,1.24-1.3,1.18
		C84.35,56.21,83.91,55.63,83.96,54.9z"/>
	<path d="M89.93,56.39l0.08-1.09l1.49-1.25c3.58-2.94,5.21-4.52,5.37-6.5c0.1-1.33-0.46-2.61-2.41-2.75
		c-1.19-0.09-2.22,0.45-2.86,0.91l-0.47-1.29c0.96-0.7,2.29-1.17,3.8-1.06c2.82,0.21,3.87,2.23,3.73,4.1
		c-0.18,2.42-2.07,4.25-5.02,6.71l-1.12,0.89l0,0.04l5.88,0.43L98.29,57L89.93,56.39z"/>
	<path d="M103.4,56.11c0.38,0.07,0.83,0.06,1.44,0.04c1.04-0.07,2.04-0.42,2.83-1.07c0.92-0.72,1.63-1.83,1.99-3.36l-0.06,0
		c-0.79,0.83-1.88,1.28-3.18,1.19c-2.36-0.17-3.74-2.05-3.58-4.29c0.18-2.48,2.13-4.52,4.81-4.33c2.68,0.2,4.17,2.49,3.93,5.84
		c-0.21,2.88-1.32,4.83-2.7,5.98c-1.08,0.91-2.51,1.42-3.94,1.48c-0.65,0.05-1.22,0.03-1.64-0.02L103.4,56.11z M104.59,48.62
		c-0.12,1.63,0.79,2.85,2.32,2.96c1.19,0.09,2.16-0.43,2.68-1.18c0.11-0.15,0.19-0.35,0.21-0.63c0.16-2.24-0.54-4.01-2.39-4.14
		C105.89,45.52,104.73,46.77,104.59,48.62z"/>
</g>
<g class="st4">
	<path d="M57.28,58.73l-0.15-2.55c-1.47,0.06-3.01-0.3-3.94-0.88l0.51-1.73c0.95,0.55,2.29,0.95,3.71,0.87
		c1.8-0.11,2.95-1.22,2.86-2.66c-0.08-1.39-1.12-2.19-3.04-2.84c-2.64-0.86-4.31-1.93-4.44-4.13c-0.13-2.1,1.27-3.78,3.58-4.3
		l-0.15-2.56l1.57-0.09l0.15,2.45c1.52-0.04,2.58,0.3,3.34,0.69l-0.53,1.71c-0.55-0.27-1.62-0.77-3.24-0.67
		c-1.95,0.12-2.61,1.33-2.55,2.34c0.08,1.32,1.05,1.92,3.31,2.7c2.67,0.91,4.06,2.14,4.2,4.39c0.12,2-1.16,3.95-3.74,4.54l0.16,2.63
		L57.28,58.73z"/>
</g>
</svg>
