<!-- Generator: Adobe Illustrator 23.0.1, SVG Export Plug-In  -->
<svg version="1.1" xmlns="http://www.w3.org/2000/svg" xmlns:xlink="http://www.w3.org/1999/xlink" x="0px" y="0px" width="23.22px"
	 height="22.68px" viewBox="0 0 23.22 22.68" style="enable-background:new 0 0 23.22 22.68;" xml:space="preserve">
<style type="text/css">
	.st0{fill:#76ADAC;}
	.st1{fill:#08FFFF;}
	.st2{fill:#0575C1;}
	.st3{fill:#EFEDDF;}
	.st4{fill:#F4EA1C;}
	.st5{fill:#F4F4F4;}
	.st6{opacity:0.3;fill:#FFFFFF;}
	.st7{fill:#F6F3C4;}
</style>
<defs>
</defs>
<g>
	<path class="st0" d="M14.19,7.13c0,0,0.7,0.31,0.73,0.73c0,0,0.23,0.86,0.39,1.06l2.8-0.05c0,0,0.05,0.16,0,0.34l-0.6,0.1
		c0,0-0.47,0.13-0.67,0.23l-2.07,0.08c0,0-0.29-0.1-0.34-0.46l-0.36-1.87C14.06,7.29,13.99,7.03,14.19,7.13z"/>
	<path class="st0" d="M18.08,8.97c0,0,2.83,0.18,5.13,1.3c0,0-3.34-1.14-6.04-0.91C17.17,9.36,15.88,9.05,18.08,8.97z"/>
	<path class="st0" d="M9.02,7.13c0,0-0.7,0.31-0.73,0.73c0,0-0.23,0.86-0.39,1.06l-2.8-0.05c0,0-0.05,0.16,0,0.34l0.6,0.1
		c0,0,0.47,0.13,0.67,0.23l2.07,0.08c0,0,0.29-0.1,0.34-0.46l0.36-1.87C9.15,7.29,9.23,7.03,9.02,7.13z"/>
	<path class="st0" d="M5.13,8.97c0,0-2.83,0.18-5.13,1.3c0,0,3.34-1.14,6.04-0.91C6.04,9.36,7.34,9.05,5.13,8.97z"/>
	<path class="st0" d="M6.86,14.91c0,0,0.26,0.02,0.49,0.36c0,0,0.11-0.21-0.02-0.65c-0.13-0.44-0.05-0.13-0.05-0.13
		s0.21-1.58,0.65-2c0,0,0.26-0.49-0.18-0.16c0,0-0.65,0.73-1.04,2.28C6.7,14.62,6.57,14.83,6.86,14.91z"/>
	<path class="st0" d="M7.61,12.38c0,0,0.24-0.1,0.31,0.21c0,0,0.99-1.69,1.37-2.36c0,0,0.43-0.64-0.15-0.16
		C9.14,10.07,8.15,11.42,7.61,12.38z"/>
	<path class="st0" d="M6.73,14.75c0,0-0.1,2.53-2.94,5.28c-0.05,0.05-0.1,0.09-0.15,0.14c0,0-0.29,0.31,0.21-0.02
		c0.49-0.34,1.97-1.97,3.06-4.67c0,0,0.31-0.02,0.36-0.41C7.27,15.06,7.25,14.34,6.73,14.75z"/>
	<path class="st0" d="M16.43,14.91c0,0-0.26,0.02-0.49,0.36c0,0-0.1-0.21,0.03-0.65c0.13-0.44,0.05-0.13,0.05-0.13
		s-0.21-1.58-0.65-2c0,0-0.26-0.49,0.18-0.16c0,0,0.65,0.73,1.04,2.28C16.59,14.62,16.72,14.83,16.43,14.91z"/>
	<path class="st0" d="M15.68,12.38c0,0-0.24-0.1-0.31,0.21c0,0-0.99-1.69-1.37-2.36c0,0-0.43-0.64,0.15-0.16
		C14.16,10.07,15.14,11.42,15.68,12.38z"/>
	<path class="st0" d="M16.56,14.75c0,0,0.1,2.53,2.94,5.28c0.05,0.05,0.1,0.09,0.15,0.14c0,0,0.29,0.31-0.21-0.02
		c-0.49-0.34-1.97-1.97-3.06-4.67c0,0-0.31-0.02-0.36-0.41C16.02,15.06,16.05,14.34,16.56,14.75z"/>
	<path class="st0" d="M9.32,5.65L8.65,4.56c0,0-0.23-0.1-0.34,0.05l-0.1,0.16c0,0-0.08,0.05,0.03,0.18c0,0,0.44,0.52,0.67,1.24
		C8.91,6.2,9.58,6.58,9.32,5.65z"/>
	<path class="st0" d="M8.52,4.59c0,0-2.23-3.26-3.99-4.56c0,0,2.57,2.75,3.73,4.74C8.26,4.77,8.67,5.13,8.52,4.59z"/>
	<path class="st0" d="M13.99,5.63l0.67-1.09c0,0,0.23-0.1,0.34,0.05l0.1,0.15c0,0,0.08,0.05-0.03,0.18c0,0-0.44,0.52-0.67,1.25
		C14.41,6.17,13.73,6.56,13.99,5.63z"/>
	<path class="st0" d="M14.8,4.56c0,0,2.23-3.27,3.99-4.56c0,0-2.57,2.75-3.73,4.74C15.06,4.74,14.64,5.11,14.8,4.56z"/>
	<path class="st1" d="M14.38,7.78l-2.74,0.11L8.9,7.78c0,0-0.96,8.4,1.66,10.55c0,0,0.14,0.14,0.36,0.27
		c0.02,0.02,0.05,0.03,0.07,0.04l0.07,0.25l0.08-0.13c0,0,0.1,0.57,0.08,0.91c0,0,0.16-0.49,0.16-0.73c0-0.05,0-0.08,0-0.1
		c0,0,0.08,0.29,0.03,1.14c0,0,0.16-0.42,0.18-0.86c0,0,0.1-0.03,0.13,0.18c0,0,0.09-0.09,0.1-0.29c0,0.09,0,0.29,0.08,0.5
		c0,0,0.05-0.34,0.1-0.62C12,18.87,12,18.85,12,18.83c0.03,0.03,0.09,0.12,0.09,0.24l0.06-0.36c0.07-0.03,0.14-0.07,0.21-0.11
		c0.22-0.13,0.36-0.27,0.36-0.27C15.34,16.18,14.38,7.78,14.38,7.78z"/>
	<path class="st2" d="M8.91,7.05c0,0-0.36,0.02-0.49,0.31c0,0,0.14-0.44,0.59-0.73c0,0-0.09-0.1-0.33,0.03c0,0,0.16-0.21,0.47-0.18
		L8.91,7.05z"/>
	<path class="st2" d="M14.14,5.39c0,0,0.57,0.21,0.71,0.59c0,0-0.19-0.23-0.64-0.31c0,0,0.28,0.24,0.33,0.45
		c0,0-0.07-0.12-0.31-0.21L14.14,5.39z"/>
	<path class="st2" d="M13.79,5.09c0,0,0.33-0.16,0.56-0.07c0,0-0.18-0.01-0.41,0.15c0,0,0.22-0.02,0.34,0.04
		c0,0-0.08-0.02-0.22,0.05L13.79,5.09z"/>
	<path class="st2" d="M9.04,5.39c0,0-0.57,0.21-0.71,0.59c0,0,0.19-0.23,0.64-0.31c0,0-0.28,0.24-0.33,0.45c0,0,0.07-0.12,0.31-0.21
		L9.04,5.39z"/>
	<path class="st2" d="M9.39,5.09c0,0-0.33-0.16-0.56-0.07c0,0,0.18-0.01,0.41,0.15c0,0-0.22-0.02-0.34,0.04c0,0,0.08-0.02,0.22,0.05
		L9.39,5.09z"/>
	<path class="st3" d="M10.52,2.18c0,0-0.43,0.07-1.18-0.2C9.28,1.95,9.23,1.85,9.18,1.76c-0.06-0.12-0.13-0.25-0.23-0.3
		C8.85,1.41,8.74,1.44,8.63,1.48C8.52,1.51,8.41,1.54,8.34,1.49C7.81,1.18,7.27,0.76,6.72,0.25L6.9,0.25l-0.11-0.1L6.54,0.16
		L6.55,0.4l0.11,0.1L6.65,0.33c0.55,0.51,1.1,0.93,1.63,1.25C8.4,1.65,8.54,1.61,8.66,1.58c0.1-0.03,0.19-0.05,0.24-0.03
		C8.98,1.58,9.03,1.7,9.09,1.8C9.15,1.92,9.21,2.04,9.3,2.07c0.52,0.18,0.88,0.32,1.08,0.32c0.1,0,0.16-0.01,0.16-0.01L10.52,2.18z"
		/>
	<path class="st3" d="M16.56,0.14l-0.11,0.1l0.18,0.01c-0.35,0.32-0.7,0.61-1.04,0.86c-0.12,0.08-0.16,0.24-0.21,0.39
		c-0.04,0.13-0.08,0.25-0.15,0.29c-0.07,0.04-0.21,0-0.33-0.03c-0.13-0.04-0.26-0.07-0.35-0.03c-1.09,0.54-1.73,0.44-1.74,0.44
		L12.8,2.38c0.01,0,0.06,0.01,0.16,0.01c0.26,0,0.83-0.16,1.64-0.56c0.05-0.03,0.17,0,0.27,0.03c0.15,0.04,0.3,0.08,0.41,0.02
		c0.11-0.06,0.15-0.2,0.19-0.35c0.04-0.13,0.08-0.27,0.17-0.34c0.34-0.25,0.69-0.54,1.04-0.86L16.68,0.5l0.11-0.1l0.01-0.25
		L16.56,0.14z"/>
	<path class="st2" d="M14.57,7.41C14.44,7.29,14.47,7,14.47,7l0.23,0.05c0-0.13-0.39-0.42-0.39-0.42l-2.55,3.81L9,6.64
		c0,0-0.39,0.28-0.39,0.42L8.85,7c0,0,0.03,0.29-0.11,0.41c0,0-0.18,0.08-0.26,0.21l0.13,0.03c0,0,0.16,0.36,0.6,0.59
		c0,0,1.11,1.43,1.45,2.23c0,0,0.47,0.93,0.78,0.93c0,0,0.16,0.09,0.32-0.03c0.16,0.12,0.32,0.03,0.32,0.03
		c0.31,0,0.57-0.93,0.57-0.93c0.34-0.8,1.45-2.23,1.45-2.23c0.44-0.23,0.6-0.59,0.6-0.59l0.13-0.03
		C14.76,7.49,14.57,7.41,14.57,7.41z"/>
	<path class="st1" d="M13.25,4.74l-1.16-0.01l0-0.01L11.6,4.73l-0.48-0.01v0.01L9.96,4.74c0,0-1.14,0-1.09,1.53
		c0,0-0.1,0.67,0.57,1.35c0,0,0.7,1.01,0.83,1.45c0,0,0.67,1.32,0.88,1.5c0,0,0.24,0.31,0.49,0.33v0h0.03h0.17h0.03v0
		c0.25-0.02,0.49-0.33,0.49-0.33c0.21-0.18,0.57-1.5,0.57-1.5c0.13-0.44,0.83-1.45,0.83-1.45c0.65-0.65,0.57-1.35,0.57-1.35
		C14.44,4.82,13.25,4.74,13.25,4.74z"/>
	<path class="st2" d="M14.7,4.12l-1.56-0.93l-1.01-0.06l0-0.05L11.7,3.11l-0.44-0.02l0,0.05l-1.01,0.06L8.69,4.12
		c0,0-0.08,0.62,0.73,0.62l1.76,0.21h0.03l0.21,0.62c0,0.06,0.05,0.31,0.1,0.31h0.39c0.06,0,0.1-0.25,0.1-0.31l0.21-0.62l0,0
		l1.76-0.21C14.78,4.74,14.7,4.12,14.7,4.12z"/>
	<path class="st3" d="M8.79,4.33c0,0,0.52-0.05,0.96-0.41c0.44-0.36,0.01-0.32,0.44-0.36c0,0-0.29-0.36,0.13-1.14
		c0,0-1.13-0.03-1.58,1.17C8.74,3.58,8.57,4.19,8.79,4.33z"/>
	<path class="st3" d="M14.56,4.33c0,0-0.52-0.05-0.96-0.41c-0.44-0.36-0.01-0.32-0.44-0.36c0,0,0.29-0.36-0.13-1.14
		c0,0,1.13-0.03,1.58,1.17C14.62,3.58,14.78,4.19,14.56,4.33z"/>
	<path class="st1" d="M11.72,3.34c0,0,0.15-1.01-0.34-1.3c0,0-0.6-0.91-1.11,0.39c0,0-0.33,0.71-0.1,1.27c0,0,0.65,0.21,1.32,0
		C11.49,3.71,11.57,3.34,11.72,3.34z"/>
	<path class="st1" d="M11.69,3.34c0,0-0.16-1.01,0.34-1.3c0,0,0.6-0.91,1.11,0.39c0,0,0.29,0.78,0.1,1.27c0,0-0.65,0.21-1.32,0
		C11.92,3.71,11.84,3.34,11.69,3.34z"/>
	<path class="st4" d="M9.78,11.7"/>
	<path class="st5" d="M9.54,13.88L9.54,13.88L9.54,13.88c0.11-0.18,0.22-0.36,0.34-0.53c0.18,0.11,0.36,0.22,0.53,0.34c0,0,0,0,0,0
		v0c0.13-0.17,0.26-0.34,0.41-0.5c0.18,0.13,0.34,0.27,0.5,0.41v0v0c0.14-0.15,0.28-0.29,0.43-0.43c0.15,0.14,0.29,0.28,0.43,0.43v0
		c0,0,0,0,0,0c0.16-0.14,0.33-0.27,0.5-0.4c0.14,0.17,0.28,0.33,0.41,0.5l0,0v0c0.17-0.12,0.35-0.23,0.53-0.34
		c0.12,0.17,0.24,0.35,0.34,0.53h0l0,0c0.15-0.08,0.32-0.16,0.48-0.24c0.02-0.21,0.04-0.43,0.05-0.64c-0.11,0.05-0.22,0.1-0.33,0.15
		c-0.12-0.18-0.25-0.36-0.38-0.54h0l0,0c-0.2,0.1-0.39,0.21-0.57,0.33c-0.14-0.17-0.28-0.33-0.43-0.49c-0.01,0-0.01,0.01-0.02,0.01
		c0,0-0.01-0.01-0.01-0.01c-0.18,0.12-0.36,0.25-0.53,0.39c-0.02-0.01-0.03-0.03-0.05-0.04c0,0,0.01-0.01,0.02-0.01
		c-0.14-0.13-0.28-0.26-0.43-0.39c0,0-0.01,0.01-0.01,0.01c-0.01,0-0.01-0.01-0.01-0.01c-0.15,0.13-0.29,0.26-0.43,0.39
		c0,0,0.01,0.01,0.02,0.01c-0.02,0.01-0.03,0.03-0.05,0.04c-0.17-0.14-0.35-0.26-0.53-0.39c0,0-0.01,0.01-0.01,0.01
		c-0.01,0-0.01-0.01-0.02-0.01c-0.15,0.16-0.3,0.33-0.43,0.49c-0.18-0.12-0.37-0.22-0.57-0.33l0,0h0c-0.14,0.18-0.26,0.36-0.38,0.54
		c-0.18-0.09-0.36-0.17-0.55-0.24c0.02,0.29,0.04,0.58,0.07,0.87c0.03-0.06,0.06-0.12,0.1-0.19C9.15,13.68,9.35,13.78,9.54,13.88z"
		/>
	<path class="st5" d="M9.14,15.27C9.14,15.27,9.14,15.27,9.14,15.27c0.08-0.17,0.16-0.33,0.25-0.49c0.17,0.07,0.33,0.15,0.49,0.24
		l0,0h0c0.09-0.15,0.18-0.3,0.29-0.45c0.16,0.09,0.3,0.19,0.45,0.29h0l0,0c0.11-0.14,0.22-0.29,0.34-0.42
		c0.15,0.11,0.29,0.22,0.43,0.34l0,0c0,0,0,0,0,0c0.12-0.12,0.24-0.25,0.36-0.36c0.13,0.12,0.25,0.24,0.36,0.36c0,0,0,0,0,0l0,0
		c0.13-0.12,0.28-0.23,0.42-0.34c0.12,0.14,0.24,0.28,0.34,0.42c0,0,0,0,0,0l0,0c0.14-0.1,0.29-0.19,0.45-0.29
		c0.1,0.15,0.2,0.3,0.29,0.45c0,0,0,0,0,0h0c0.16-0.08,0.32-0.17,0.49-0.24c0.05,0.08,0.09,0.17,0.13,0.25
		c0.05-0.25,0.09-0.51,0.12-0.77c-0.01-0.03-0.03-0.05-0.04-0.08c0,0-0.01,0-0.02,0c0,0-0.01-0.01-0.01-0.01
		c-0.18,0.07-0.35,0.14-0.51,0.22c-0.1-0.15-0.21-0.3-0.32-0.45v0c0,0,0,0,0,0c-0.17,0.09-0.33,0.18-0.48,0.28
		c-0.12-0.14-0.24-0.28-0.37-0.42c0,0-0.01,0-0.01,0.01c0,0-0.01-0.01-0.01-0.01c-0.15,0.11-0.3,0.22-0.45,0.33
		c-0.01-0.01-0.03-0.02-0.04-0.04c0,0,0.01-0.01,0.01-0.01c-0.12-0.11-0.23-0.22-0.36-0.33c0,0-0.01,0.01-0.01,0.01
		c0,0-0.01-0.01-0.01-0.01c-0.12,0.11-0.24,0.22-0.36,0.33c0,0,0.01,0.01,0.01,0.01c-0.01,0.01-0.03,0.02-0.04,0.04
		c-0.14-0.11-0.29-0.22-0.45-0.33c0,0-0.01,0.01-0.01,0.01c-0.01,0-0.01-0.01-0.01-0.01c-0.13,0.14-0.25,0.28-0.37,0.42
		c-0.16-0.1-0.32-0.19-0.48-0.28v0l0,0c-0.11,0.15-0.22,0.3-0.32,0.45c-0.16-0.08-0.34-0.15-0.51-0.22c0,0-0.01,0.01-0.01,0.01
		c0,0-0.01,0-0.02,0c-0.08,0.13-0.15,0.25-0.22,0.38c0.04,0.23,0.08,0.45,0.12,0.67C9.1,15.26,9.12,15.27,9.14,15.27L9.14,15.27z"/>
	<path class="st5" d="M14.06,15.42c0,0-0.01-0.01-0.01-0.01c-0.16,0.06-0.31,0.13-0.46,0.2c-0.09-0.14-0.19-0.27-0.29-0.41l0,0h0
		c-0.15,0.08-0.29,0.16-0.44,0.25c-0.1-0.13-0.21-0.25-0.33-0.38c0,0-0.01,0.01-0.01,0.01c0,0-0.01-0.01-0.01-0.01
		c-0.14,0.09-0.27,0.2-0.4,0.3c-0.01-0.01-0.02-0.02-0.03-0.03c0,0,0.01-0.01,0.01-0.01c-0.1-0.1-0.21-0.2-0.32-0.3
		c0,0-0.01,0-0.01,0.01c0,0-0.01,0-0.01-0.01c-0.11,0.1-0.22,0.19-0.32,0.3c0,0,0.01,0,0.01,0.01c-0.01,0.01-0.02,0.02-0.04,0.03
		c-0.13-0.1-0.26-0.2-0.4-0.3c0,0-0.01,0.01-0.01,0.01c0,0-0.01,0-0.01-0.01c-0.12,0.12-0.23,0.25-0.33,0.38
		c-0.14-0.09-0.29-0.17-0.44-0.25c0,0,0,0,0,0l0,0c-0.1,0.14-0.2,0.27-0.29,0.41c-0.15-0.07-0.3-0.14-0.46-0.2
		c0,0-0.01,0.01-0.01,0.01c0,0-0.01,0-0.01,0c-0.08,0.13-0.15,0.26-0.22,0.39c0.05,0.2,0.11,0.39,0.17,0.58c0.01,0,0.01,0,0.02,0
		l0,0h0c0.07-0.15,0.14-0.3,0.22-0.44c0.15,0.07,0.3,0.14,0.45,0.22l0,0l0,0c0.08-0.14,0.17-0.27,0.26-0.4
		c0.14,0.08,0.28,0.17,0.41,0.26h0l0,0c0.1-0.13,0.2-0.26,0.31-0.38c0.13,0.1,0.26,0.2,0.38,0.31l0,0l0,0
		c0.1-0.11,0.21-0.22,0.33-0.33c0.12,0.11,0.23,0.22,0.33,0.33h0l0,0c0.12-0.11,0.25-0.21,0.38-0.31c0.11,0.13,0.21,0.25,0.31,0.38
		l0,0l0,0c0.13-0.09,0.27-0.17,0.41-0.26c0.09,0.13,0.18,0.27,0.26,0.4l0,0l0,0c0.14-0.08,0.29-0.15,0.45-0.22
		c0.04,0.06,0.07,0.13,0.1,0.19c0.06-0.2,0.11-0.4,0.16-0.61c-0.02-0.04-0.04-0.08-0.07-0.12C14.07,15.42,14.07,15.42,14.06,15.42z"
		/>
	<path class="st5" d="M13.79,16.59c0,0,0,0-0.01-0.01c-0.14,0.05-0.28,0.12-0.41,0.18c-0.08-0.12-0.17-0.24-0.26-0.36l0,0l0,0
		c-0.13,0.07-0.26,0.14-0.38,0.22c-0.09-0.11-0.19-0.23-0.29-0.33c0,0-0.01,0-0.01,0.01c0,0-0.01-0.01-0.01-0.01
		c-0.12,0.08-0.24,0.17-0.36,0.26c-0.01-0.01-0.02-0.02-0.03-0.03c0,0,0.01-0.01,0.01-0.01c-0.09-0.09-0.19-0.18-0.29-0.26
		c0,0-0.01,0.01-0.01,0.01c0,0-0.01-0.01-0.01-0.01c-0.1,0.08-0.2,0.17-0.29,0.26c0,0,0.01,0.01,0.01,0.01
		c-0.01,0.01-0.02,0.02-0.03,0.03c-0.11-0.09-0.23-0.18-0.36-0.26c0,0-0.01,0.01-0.01,0.01c0,0-0.01-0.01-0.01-0.01
		c-0.1,0.11-0.2,0.22-0.29,0.33c-0.12-0.08-0.25-0.15-0.38-0.22l0,0l0,0c-0.09,0.12-0.18,0.24-0.26,0.36
		c-0.13-0.06-0.27-0.12-0.41-0.18c0,0.01-0.01,0.01-0.01,0.01c0,0-0.01,0-0.01,0c-0.05,0.09-0.1,0.17-0.15,0.26
		c0.06,0.15,0.13,0.3,0.2,0.43c0.04-0.08,0.08-0.15,0.12-0.23c0.14,0.06,0.27,0.12,0.39,0.19h0l0,0c0.07-0.12,0.15-0.24,0.23-0.36
		c0.12,0.07,0.24,0.15,0.36,0.23v0v0c0.09-0.11,0.18-0.23,0.27-0.34c0.12,0.09,0.23,0.18,0.34,0.27c0,0,0,0,0,0l0,0
		c0.09-0.1,0.19-0.2,0.29-0.29c0.1,0.09,0.2,0.19,0.29,0.29h0l0,0c0.11-0.09,0.22-0.18,0.34-0.27c0.1,0.11,0.19,0.22,0.27,0.34v0v0
		c0.11-0.08,0.23-0.15,0.36-0.23c0.08,0.12,0.16,0.24,0.23,0.36l0,0l0,0c0.13-0.07,0.26-0.13,0.39-0.19c0,0,0,0.01,0.01,0.01
		c0.07-0.14,0.13-0.29,0.19-0.44c-0.01-0.01-0.01-0.03-0.02-0.04C13.8,16.58,13.8,16.59,13.79,16.59z"/>
	<path class="st2" d="M14.25,8.11c0,0-0.18,0.21-0.1,0.49c0,0-0.21,0.02-0.21-0.29L14.25,8.11z"/>
	<path class="st2" d="M13.7,8.66c0,0,0.08,0.26-0.05,0.57c0,0,0.05-0.23-0.05-0.41L13.7,8.66z"/>
	<path class="st2" d="M14.25,8.11c0,0,0.34,0.23,0.6-0.05c0,0-0.21,0.13-0.49-0.18L14.25,8.11z"/>
	<path class="st2" d="M14.4,6.74c0,0-0.03-0.1,0.23,0c0.26,0.1,0.08,0.03,0.08,0.03s-0.13-0.18-0.44-0.13L14.4,6.74z"/>
	<path class="st2" d="M14.32,6.71c0,0,0.03-0.13,0.16-0.13c0,0,0.03-0.08-0.21,0.05L14.32,6.71z"/>
	<path class="st2" d="M13.34,9.2c0,0-0.16,0.34-0.1,0.7c0,0-0.13-0.16-0.13-0.47L13.34,9.2z"/>
	<path class="st2" d="M13.34,9.2c0,0,0.05-0.03,0.05,0.16c0,0,0.08-0.13,0.03-0.42C13.36,8.66,13.34,9.2,13.34,9.2z"/>
	<path class="st2" d="M14.63,7.62c0,0,0.29-0.02,0.36,0.16c0,0-0.29-0.36-0.55-0.39L14.63,7.62z"/>
	<path class="st2" d="M12.82,10.06c0,0-0.13,0.31-0.08,0.62c0,0-0.1-0.18-0.1-0.39L12.82,10.06z"/>
	<path class="st2" d="M12.82,9.98c0,0,0.08,0.23,0.08,0.55c0,0,0.1-0.44,0.05-0.78L12.82,9.98z"/>
	<path class="st2" d="M12.41,11.1c0,0-0.18,0.26-0.18,0.52c0,0-0.05-0.15-0.05-0.44L12.41,11.1z"/>
	<path class="st2" d="M12.41,11.1c0,0,0.05,0.08,0.05,0.39c0,0,0.1-0.39,0.05-0.78L12.41,11.1z"/>
	<path class="st2" d="M9.27,8.29c0,0-0.36-0.23-0.57,0.26c0,0,0.1-0.54,0.39-0.54L9.27,8.29z"/>
	<path class="st2" d="M8.7,7.67c0,0-0.13-0.13-0.34,0.08c0,0,0.16-0.26,0.42-0.26L8.7,7.67z"/>
	<path class="st2" d="M9.35,8.37c0,0,0.16,0.14,0.09,0.47c0,0.02-0.01,0.04-0.02,0.07c0,0,0.21-0.13,0.23-0.36L9.35,8.37z"/>
	<path class="st2" d="M9.35,8.37c0,0-0.16,0.08-0.16,0.34c0,0-0.13-0.44,0.08-0.54L9.35,8.37z"/>
	<path class="st2" d="M9.94,9.1c0,0,0.03,0.49-0.21,0.65c0,0,0.41-0.18,0.41-0.39L9.94,9.1z"/>
	<path class="st2" d="M10.28,9.67c0,0-0.18,0.31-0.1,0.7c0,0,0.03-0.34,0.21-0.54L10.28,9.67z"/>
	<path class="st2" d="M10.54,10.11c0,0,0.08,0.39,0,0.59c0,0,0.13-0.13,0.16-0.36L10.54,10.11z"/>
	<path class="st2" d="M10.9,10.73c0,0-0.05,0.13,0,0.34c0,0,0-0.05,0.13-0.18L10.9,10.73z"/>
	<path class="st2" d="M11.21,11.22c0,0,0.05,0.23-0.03,0.39c0,0,0.21-0.15,0.26-0.34L11.21,11.22z"/>
	<path class="st2" d="M8.88,7.88c0,0-0.23,0.1-0.23,0.34c0,0-0.08-0.39,0.13-0.54L8.88,7.88z"/>
	<path class="st2" d="M9.01,4.64c0,0-0.36-0.08-0.52-0.31c0,0,0.08,0.16,0.47,0.08L9.01,4.64z"/>
	<path class="st2" d="M9.09,4.64c0,0-0.13,0.16-0.31,0.13c0,0,0.21,0.1,0.52-0.13H9.09z"/>
	<path class="st2" d="M14.48,4.51c0,0,0.29,0.05,0.44-0.13c0,0-0.18,0.31-0.67,0.23L14.48,4.51z"/>
	<path class="st2" d="M13.98,4.74c0,0,0.11,0.13,0.4,0.13c0,0-0.05-0.02-0.13-0.26L13.98,4.74z"/>
	<polygon class="st2" points="11.6,5.81 11.65,7.98 11.78,5.78 	"/>
	<path class="st2" d="M11.55,11.35c0,0,0.1,0.13,0.08,0.36l0.1-0.28l0.03,0.6l0.08-0.55l0.08,0.13l0.08-0.26H11.55z"/>
	<path class="st6" d="M13.5,2.73c0,0,0.72,0.22,0.92,1.01c0,0,0.01,0.21-0.16-0.03c0,0-0.53-0.26-0.58-0.77c0,0-0.04-0.12-0.16-0.13
		C13.51,2.81,13.37,2.72,13.5,2.73z"/>
	<path class="st6" d="M9.9,2.73c0,0-0.72,0.22-0.91,1.01c0,0-0.01,0.21,0.16-0.03c0,0,0.53-0.26,0.58-0.77c0,0,0.04-0.12,0.16-0.13
		C9.89,2.81,10.03,2.72,9.9,2.73z"/>
	<g>
		<path class="st2" d="M14.49,9.58l-0.11,0.35l-0.25-1.09c0,0,0.02-0.69-0.15-1.06c-0.17-0.37-0.01-0.06-0.01-0.06
			s-0.09-0.26,0.13,0.01l0.58,0.59c0,0,0.35,0.3,0.83,0.32c0,0,0.44-0.01,0.56,0.52c0,0-0.39-0.68-0.78-0.05
			c0,0-0.36,0.33-0.48,0.38C14.8,9.48,14.6,9.62,14.49,9.58z"/>
		<g>
			<path class="st6" d="M14.07,8.09c0,0-0.08,2.55-0.01,2.71c0.07,0.16,0.03,0.06,0.03,0.06s-1.44,1.34-1.18,2.58
				c0,0,0.86,6.51,6.34,8.47c0,0,1.75,0.84,2.64-0.7c0,0,1.28-1.29-0.28-4.81c-0.01-0.03-0.03-0.06-0.04-0.09
				c-1.62-3.59-3.41-4.34-3.91-4.87c0,0-0.17-0.38-0.03-0.48L16.49,9.7c0,0-0.29-0.13-0.46-0.09c0,0,0.12-0.4-0.08-0.61
				c-0.21-0.21-0.37-0.14-0.52-0.07c0,0-0.55,0.63-0.78,0.62c-0.23-0.01-0.15-0.01-0.15-0.01l-0.1,0.46L14.07,8.09z"/>
			<path class="st6" d="M14.07,8.09c0,0-0.08,2.55-0.01,2.71c0.07,0.16,0.03,0.06,0.03,0.06s-1.44,1.34-1.18,2.58
				c0,0,0.86,6.51,6.34,8.47c0,0,1.75,0.84,2.64-0.7c0,0,1.28-1.29-0.28-4.81c-0.01-0.03-0.03-0.06-0.04-0.09
				c-1.62-3.59-3.41-4.34-3.91-4.87c0,0-0.17-0.38-0.03-0.48L16.49,9.7c0,0-0.29-0.13-0.46-0.09c0,0,0.12-0.4-0.08-0.61
				c-0.21-0.21-0.37-0.14-0.52-0.07c0,0-0.55,0.63-0.78,0.62c-0.23-0.01-0.15-0.01-0.15-0.01l-0.1,0.46L14.07,8.09z"/>
			<path class="st7" d="M20.31,22.3c-0.61,0-1.1-0.23-1.12-0.24c-5.49-1.96-6.42-8.53-6.43-8.59c-0.24-1.15,0.85-2.34,1.16-2.64
				c-0.06-0.28-0.03-1.62,0-2.73c0-0.08,0.07-0.15,0.15-0.15c0.08-0.01,0.15,0.05,0.16,0.13l0.22,1.33c0.01,0,0.02,0,0.03,0l0,0
				c0,0,0,0,0.01,0v0c0,0,0.01,0,0.01,0l0.15,0c0.09-0.01,0.4-0.27,0.66-0.57c0.01-0.02,0.03-0.03,0.05-0.04
				c0.09-0.04,0.19-0.08,0.31-0.08c0.14,0,0.27,0.06,0.39,0.18c0.16,0.16,0.18,0.4,0.16,0.56c0.16,0.02,0.32,0.1,0.34,0.11
				c0.02,0.01,0.04,0.02,0.05,0.04l1.14,1.26c0.03,0.03,0.04,0.08,0.04,0.12c-0.01,0.04-0.03,0.08-0.06,0.11
				c-0.01,0.03,0.02,0.16,0.07,0.27c0.09,0.09,0.23,0.2,0.41,0.33c0.77,0.58,2.2,1.66,3.51,4.56l0.04,0.1
				c1.51,3.41,0.41,4.79,0.26,4.96C21.63,21.96,21.04,22.3,20.31,22.3z M14.13,11.04c-0.27,0.28-1.28,1.38-1.07,2.37
				c0.01,0.08,0.92,6.46,6.24,8.36c0.02,0.01,0.47,0.22,1,0.22c0.63,0,1.12-0.29,1.45-0.85c0.01-0.01,0.01-0.02,0.02-0.03
				c0.01-0.01,1.18-1.28-0.31-4.63l-0.04-0.1c-1.28-2.83-2.67-3.88-3.42-4.44c-0.2-0.15-0.36-0.27-0.47-0.38
				c-0.01-0.01-0.02-0.03-0.03-0.04c-0.04-0.09-0.14-0.34-0.08-0.53L16.4,9.83c-0.07-0.03-0.2-0.08-0.3-0.08c-0.02,0-0.03,0-0.04,0
				c-0.05,0.01-0.11,0-0.15-0.04c-0.04-0.04-0.05-0.1-0.03-0.15c0.03-0.09,0.07-0.34-0.05-0.45c-0.08-0.08-0.14-0.09-0.17-0.09
				c-0.04,0-0.1,0.02-0.15,0.05c-0.19,0.21-0.61,0.64-0.87,0.64l-0.03,0l-0.07,0.33c-0.02,0.07-0.08,0.13-0.15,0.12
				c-0.07,0-0.14-0.05-0.15-0.13l-0.04-0.27c-0.01,0.52,0,0.91,0.02,0.99c0.01,0.01,0.01,0.03,0.02,0.04c0,0,0,0.01,0.01,0.01h0
				c0.03,0.08,0.04,0.11,0.01,0.17C14.22,11.01,14.18,11.04,14.13,11.04z"/>
			<path class="st7" d="M17.61,11.51c-0.01,0-0.03,0-0.04,0c-0.08-0.02-2.07-0.56-2.43-2.41c-0.02-0.08,0.04-0.16,0.12-0.18
				c0.08-0.02,0.17,0.04,0.18,0.12c0.33,1.66,2.19,2.16,2.21,2.17c0.08,0.02,0.13,0.11,0.11,0.19
				C17.74,11.47,17.68,11.51,17.61,11.51z"/>
			<path class="st7" d="M16.8,11.3c-0.37,0-0.85-0.24-0.96-0.29c-0.36-0.24-0.56-0.49-0.61-0.77c-0.05-0.32,0.13-0.55,0.14-0.56
				c0.05-0.07,0.15-0.08,0.22-0.02c0.07,0.05,0.08,0.15,0.02,0.21c0,0.01-0.1,0.14-0.07,0.32c0.03,0.19,0.19,0.38,0.46,0.55
				c0.27,0.14,0.74,0.31,0.91,0.23c0.08-0.04,0.17,0,0.21,0.08c0.04,0.08,0,0.17-0.08,0.21C16.97,11.29,16.89,11.3,16.8,11.3z"/>
			<path class="st7" d="M16.75,13.25c-0.01,0-0.02,0-0.03,0c-0.08-0.01-0.19-0.05-0.27-0.23l-1-2.35c-0.03-0.08,0-0.17,0.08-0.2
				c0.08-0.03,0.17,0,0.2,0.08l0.47,1.09l-0.23-0.61c-0.03-0.08,0.01-0.17,0.09-0.2c0.08-0.03,0.17,0.01,0.2,0.09l0.77,2.04
				c0.02,0.05,0.01,0.1-0.02,0.15C16.99,13.13,16.9,13.25,16.75,13.25z"/>
			<path class="st7" d="M16.42,12.74c-0.05,0-0.1-0.03-0.13-0.08L15.3,11c-0.04-0.07-0.02-0.17,0.05-0.21
				c0.07-0.04,0.17-0.02,0.21,0.05l0.98,1.66c0.04,0.07,0.02,0.17-0.05,0.21C16.47,12.73,16.44,12.74,16.42,12.74z"/>
			<path class="st7" d="M15.65,11.13c-0.12,0-0.37-0.04-0.54-0.33c-0.17-0.3-0.23-0.4-0.23-0.41L14.5,9.62
				c-0.04-0.08,0-0.17,0.07-0.21c0.08-0.04,0.17,0,0.21,0.07l0.37,0.76c0,0,0.06,0.11,0.23,0.39c0.11,0.2,0.28,0.18,0.29,0.18
				c0.08-0.01,0.16,0.04,0.18,0.13c0.01,0.08-0.04,0.16-0.12,0.18C15.72,11.12,15.69,11.13,15.65,11.13z"/>
			<path class="st7" d="M21.52,21.81c-0.07,0-0.14-0.05-0.15-0.12c-0.9-4.28-4.56-8.53-4.6-8.57c-0.06-0.07-0.05-0.16,0.02-0.22
				c0.06-0.06,0.16-0.05,0.22,0.02c0.04,0.04,3.75,4.35,4.67,8.71c0.02,0.08-0.04,0.17-0.12,0.18
				C21.54,21.81,21.53,21.81,21.52,21.81z"/>
			<path class="st7" d="M22.21,18.38c-0.04,0-0.08-0.02-0.11-0.05c-0.06-0.06-1.37-1.49-1.59-1.9c-0.02-0.02-2.98-3.92-4.17-4.59
				c-0.07-0.04-0.1-0.14-0.06-0.21c0.04-0.08,0.14-0.1,0.21-0.06c1.24,0.7,4.15,4.53,4.28,4.69c0.18,0.33,1.19,1.45,1.56,1.86
				c0.06,0.06,0.05,0.16-0.01,0.22C22.28,18.37,22.25,18.38,22.21,18.38z"/>
			<path class="st7" d="M20.02,22.26c-0.06,0-0.12-0.04-0.14-0.09c-0.02-0.06-2.46-5.69-2.91-6.6c-0.02-0.04-0.35-0.85-0.46-1.18
				c0-0.01-0.01-0.02-0.01-0.03l-0.16-1.52c-0.01-0.09,0.05-0.16,0.14-0.17c0.09-0.01,0.16,0.05,0.17,0.14l0.16,1.5
				c0.11,0.33,0.44,1.13,0.44,1.14c0.45,0.91,2.81,6.38,2.92,6.61c0.03,0.08,0,0.17-0.08,0.2C20.06,22.26,20.04,22.26,20.02,22.26z"
				/>
			<path class="st7" d="M14.84,18.53c-0.05,0-0.1-0.02-0.13-0.07c-0.05-0.07-0.02-0.17,0.05-0.21c0.03-0.02,2.14-1.5-0.82-8.19
				c-0.03-0.08,0-0.17,0.08-0.2c0.08-0.04,0.17,0,0.2,0.08c3.09,7,0.8,8.52,0.7,8.58C14.89,18.53,14.87,18.53,14.84,18.53z"/>
		</g>
	</g>
	<g>
		<path class="st2" d="M8.8,9.7l0.13,0.35l0.2-1.1c0,0-0.05-0.69,0.1-1.06c0.15-0.37,0.01-0.06,0.01-0.06s0.08-0.26-0.13,0.02
			L8.56,8.45c0,0-0.33,0.31-0.81,0.36c0,0-0.44,0.01-0.54,0.54c0,0,0.36-0.69,0.77-0.08c0,0,0.38,0.32,0.5,0.35
			C8.48,9.62,8.69,9.74,8.8,9.7z"/>
		<g>
			<path class="st6" d="M9.12,8.19c0,0,0.23,2.56,0.16,2.72c-0.06,0.16-0.02,0.06-0.02,0.06s1.5,1.27,1.3,2.53
				c0,0-0.57,6.55-5.95,8.75c0,0-1.71,0.92-2.67-0.58c0,0-1.34-1.23,0.06-4.81c0.01-0.03,0.03-0.07,0.04-0.1
				c1.46-3.66,3.21-4.49,3.69-5.04c0,0,0.15-0.39,0.01-0.48l1.08-1.32c0,0,0.28-0.15,0.46-0.12c0,0-0.14-0.39,0.06-0.61
				c0.2-0.22,0.36-0.15,0.52-0.09c0,0,0.58,0.6,0.81,0.58c0.23-0.02,0.15-0.01,0.15-0.01l0.12,0.46L9.12,8.19z"/>
			<path class="st6" d="M9.12,8.19c0,0,0.23,2.56,0.16,2.72c-0.06,0.16-0.02,0.06-0.02,0.06s1.5,1.27,1.3,2.53
				c0,0-0.57,6.55-5.95,8.75c0,0-1.71,0.92-2.67-0.58c0,0-1.34-1.23,0.06-4.81c0.01-0.03,0.03-0.07,0.04-0.1
				c1.46-3.66,3.21-4.49,3.69-5.04c0,0,0.15-0.39,0.01-0.48l1.08-1.32c0,0,0.28-0.15,0.46-0.12c0,0-0.14-0.39,0.06-0.61
				c0.2-0.22,0.36-0.15,0.52-0.09c0,0,0.58,0.6,0.81,0.58c0.23-0.02,0.15-0.01,0.15-0.01l0.12,0.46L9.12,8.19z"/>
			<path class="st7" d="M3.46,22.68c-0.69,0-1.26-0.32-1.65-0.92c-0.16-0.16-1.32-1.5,0.04-4.97l0.04-0.1
				c1.18-2.96,2.56-4.1,3.31-4.72c0.17-0.14,0.3-0.25,0.39-0.35c0.04-0.11,0.06-0.25,0.04-0.28c-0.04-0.02-0.06-0.06-0.06-0.1
				c-0.01-0.04,0.01-0.08,0.04-0.12l1.09-1.32C6.71,9.8,6.72,9.79,6.74,9.78c0.02-0.01,0.17-0.09,0.34-0.12
				c-0.02-0.16-0.02-0.4,0.14-0.57c0.12-0.13,0.25-0.2,0.4-0.2c0.11,0,0.21,0.04,0.29,0.07c0.02,0.01,0.04,0.02,0.05,0.03
				c0.27,0.28,0.59,0.53,0.69,0.54L8.8,9.52c0,0,0,0,0.01,0c0.01,0,0.02,0,0.02,0s0.01,0,0.01,0l0.14-1.35
				c0.01-0.08,0.07-0.14,0.15-0.14h0c0.08,0,0.15,0.06,0.15,0.14c0.1,1.11,0.2,2.46,0.16,2.75c0.32,0.29,1.46,1.43,1.27,2.6
				c0,0.05-0.64,6.65-6.05,8.87C4.65,22.39,4.12,22.68,3.46,22.68z M5.92,11.24c0.07,0.18-0.02,0.44-0.06,0.53
				c-0.01,0.02-0.02,0.03-0.03,0.04c-0.11,0.12-0.26,0.24-0.45,0.4c-0.72,0.6-2.06,1.71-3.21,4.59L2.14,16.9
				c-1.35,3.45-0.12,4.63-0.1,4.65c0.01,0.01,0.02,0.02,0.03,0.03c0.34,0.52,0.81,0.79,1.4,0.79c0.58,0,1.06-0.26,1.07-0.26
				c5.25-2.15,5.87-8.56,5.87-8.63c0.17-1.02-0.88-2.07-1.17-2.33c-0.05-0.01-0.09-0.03-0.11-0.07C9.09,11.03,9.08,11,9.11,10.94h0
				c0-0.01,0-0.01,0.01-0.01c0.01-0.02,0.02-0.05,0.03-0.08c0.01-0.07,0-0.44-0.04-0.94l-0.02,0.24c-0.01,0.07-0.07,0.13-0.14,0.14
				c-0.07,0.01-0.14-0.04-0.16-0.12L8.69,9.83l-0.02,0h0c-0.29,0-0.71-0.41-0.91-0.61c-0.05-0.02-0.1-0.04-0.14-0.04
				c-0.02,0-0.08,0-0.17,0.1C7.33,9.41,7.39,9.67,7.41,9.75C7.43,9.8,7.42,9.86,7.39,9.9C7.35,9.94,7.3,9.96,7.24,9.95
				c-0.11,0-0.26,0.06-0.33,0.09L5.92,11.24z"/>
			<path class="st7" d="M5.77,11.77c-0.07,0-0.13-0.04-0.15-0.11c-0.03-0.08,0.02-0.17,0.1-0.19c0.02-0.01,1.86-0.59,2.11-2.27
				C7.84,9.12,7.92,9.06,8,9.07c0.09,0.01,0.14,0.09,0.13,0.18c-0.28,1.86-2.24,2.49-2.32,2.51C5.8,11.77,5.78,11.77,5.77,11.77z"/>
			<path class="st7" d="M6.53,11.53c-0.07,0-0.14-0.01-0.2-0.03c-0.08-0.03-0.12-0.12-0.09-0.2c0.03-0.08,0.12-0.12,0.2-0.09
				c0.17,0.07,0.64-0.12,0.91-0.28c0.25-0.18,0.4-0.38,0.42-0.56c0.02-0.19-0.08-0.31-0.09-0.32C7.64,9.98,7.64,9.88,7.71,9.83
				c0.06-0.06,0.16-0.05,0.22,0.01c0.01,0.01,0.2,0.23,0.16,0.55c-0.03,0.28-0.22,0.55-0.56,0.79C7.41,11.25,6.91,11.53,6.53,11.53z
				"/>
			<path class="st7" d="M6.7,13.47c-0.14,0-0.24-0.11-0.26-0.14c-0.03-0.04-0.04-0.09-0.03-0.14l0.68-2.08
				c0.03-0.08,0.11-0.13,0.2-0.1c0.08,0.03,0.12,0.11,0.1,0.2l-0.2,0.61l0.41-1.1c0.03-0.08,0.12-0.12,0.2-0.09
				c0.08,0.03,0.12,0.12,0.09,0.2L7,13.22c-0.07,0.19-0.18,0.24-0.26,0.25C6.73,13.47,6.71,13.47,6.7,13.47z"/>
			<path class="st7" d="M7.01,12.94c-0.02,0-0.05,0-0.07-0.02c-0.08-0.04-0.1-0.13-0.06-0.21l0.9-1.71c0.04-0.08,0.13-0.1,0.21-0.06
				c0.08,0.04,0.1,0.13,0.06,0.21l-0.9,1.7C7.12,12.91,7.07,12.94,7.01,12.94z"/>
			<path class="st7" d="M7.69,11.3c-0.03,0-0.05,0-0.05,0c-0.08-0.01-0.14-0.09-0.13-0.17c0.01-0.08,0.09-0.15,0.17-0.13
				C7.7,11,7.86,11,7.97,10.81c0.16-0.31,0.22-0.42,0.22-0.42l0.33-0.77c0.03-0.08,0.12-0.11,0.2-0.08c0.08,0.03,0.11,0.12,0.08,0.2
				l-0.33,0.78c-0.01,0.01-0.06,0.12-0.22,0.42C8.07,11.27,7.8,11.3,7.69,11.3z"/>
			<path class="st7" d="M2.32,22.23c-0.01,0-0.02,0-0.03,0c-0.08-0.01-0.14-0.09-0.13-0.18c0.72-4.39,4.24-8.87,4.27-8.91
				c0.05-0.07,0.15-0.08,0.22-0.03c0.07,0.05,0.08,0.15,0.02,0.22c-0.03,0.04-3.51,4.46-4.21,8.77C2.46,22.18,2.4,22.23,2.32,22.23z
				"/>
			<path class="st7" d="M1.48,18.84c-0.04,0-0.07-0.01-0.1-0.03c-0.06-0.06-0.07-0.16-0.02-0.22c0.35-0.42,1.31-1.59,1.46-1.91
				c0.13-0.19,2.87-4.14,4.07-4.9c0.07-0.05,0.17-0.02,0.21,0.05c0.05,0.07,0.02,0.17-0.05,0.21c-1.15,0.73-3.94,4.75-3.97,4.79
				c-0.19,0.4-1.44,1.89-1.49,1.95C1.57,18.83,1.53,18.84,1.48,18.84z"/>
			<path class="st7" d="M3.85,22.62c-0.02,0-0.04,0-0.06-0.01c-0.08-0.03-0.12-0.12-0.09-0.2c0.09-0.23,2.21-5.8,2.62-6.74l0,0
				c0,0,0.29-0.81,0.39-1.15l0.09-1.51c0.01-0.09,0.08-0.15,0.16-0.14c0.09,0,0.15,0.08,0.15,0.16l-0.09,1.53
				c0,0.01,0,0.02-0.01,0.03c-0.1,0.33-0.39,1.16-0.4,1.19c-0.41,0.95-2.59,6.68-2.62,6.74C3.97,22.58,3.91,22.62,3.85,22.62z"/>
			<path class="st7" d="M8.85,18.66c-0.03,0-0.05-0.01-0.08-0.02c-0.1-0.05-2.46-1.47,0.31-8.6c0.03-0.08,0.12-0.12,0.2-0.09
				c0.08,0.03,0.12,0.12,0.09,0.2c-2.66,6.84-0.47,8.2-0.45,8.22c0.07,0.04,0.1,0.14,0.06,0.21C8.96,18.63,8.9,18.66,8.85,18.66z"/>
		</g>
	</g>
</g>
</svg>
